<?xml version="1.0" standalone="no"?>
<!DOCTYPE svg PUBLIC "-//W3C//DTD SVG 1.1//EN" "http://www.w3.org/Graphics/SVG/1.1/DTD/svg11.dtd" >
<svg>
<metadata>
Created by FontForge 20120731 at Fri Nov 21 12:48:51 2014
 By Orthosie Webhosting
(c)2009-2010 Optimo.
</metadata>
<defs>
<font id="TheinhardtLightItalic" horiz-adv-x="501" >
  <font-face 
    font-family="TheinhardtLightItalic"
    font-weight="350"
    font-style="italic"
    font-stretch="normal"
    units-per-em="1000"
    panose-1="2 11 3 3 2 2 2 9 2 4"
    ascent="802"
    descent="-198"
    x-height="476"
    cap-height="680"
    bbox="-151 -278 1302 919"
    underline-thickness="45"
    underline-position="-76"
    slope="-12"
    unicode-range="U+0020-FB02"
  />
<missing-glyph horiz-adv-x="644" 
d="M50 240v49l309 309q16 -9 26 -23zM50 142v49l347 347v-15q0 -20 -13.5 -37.5t-42 -40t-36.5 -30.5q-23 -22 -36 -54zM104 0h-49l261 261h49l-93 -93h-23v-23zM321 168l273 273v-49l-224 -224h-49zM50 338v49l148 148l39 -2q0 29 20 52t55 23h8zM398 0h-49l33 33h2v2
l210 210v-49zM384 133l210 210v-49l-210 -210v49zM50 44v49l206 206v-38h11zM50 583l196 196h49l-44 -44q-53 -14 -92.5 -53.5t-54.5 -93.5l-54 -54v49zM537 482l57 57v-49l-216 -216v7q0 15 6.5 27.5t11 17.5t25.5 20t27 20q2 1 15.5 11t21.5 17.5t20 20.5t20 30t12 37z
M50 681l98 98h49l-147 -147v49zM496 0h-49l147 147v-49zM459 698l81 81h49l-104 -104q-12 13 -26 23zM50 436v49l56 56l46 -3zM506 647l88 88v-49l-70 -70q-7 15 -18 31zM202 0h-49l96 96v-49zM395 732l47 47h49l-62 -62q-17 9 -34 15zM536 579l58 58v-49l-52 -52
q0 15 -6 43zM307 742l37 37h49l-38 -38q-18 2 -28 2zM300 0h-49l33 33h49zM594 49v-49h-49zM50 779h49l-49 -49v49z" />
    <glyph glyph-name="fi" unicode="fi" horiz-adv-x="497" 
d="M332 476l-10 -49h-108l-91 -427h-59l91 427h-108l10 49h108l23 109q12 55 39 79q31 28 83 28q35 0 66 -11l-12 -54q-30 12 -54 12q-28 0 -42.5 -14t-21.5 -47l-22 -102h108zM469 475l-101 -475h-59l101 475h59zM512 680l-20 -98h-59l20 98h59z" />
    <glyph glyph-name="fl" unicode="fl" horiz-adv-x="502" 
d="M332 476l-10 -49h-108l-91 -427h-59l91 427h-108l10 49h108l23 109q12 55 39 79q31 28 83 28q35 0 66 -11l-12 -54q-30 12 -54 12q-28 0 -42.5 -14t-21.5 -47l-22 -102h108zM453 680h59l-145 -680h-59z" />
    <glyph glyph-name=".notdef" horiz-adv-x="644" 
d="M50 240v49l309 309q16 -9 26 -23zM50 142v49l347 347v-15q0 -20 -13.5 -37.5t-42 -40t-36.5 -30.5q-23 -22 -36 -54zM104 0h-49l261 261h49l-93 -93h-23v-23zM321 168l273 273v-49l-224 -224h-49zM50 338v49l148 148l39 -2q0 29 20 52t55 23h8zM398 0h-49l33 33h2v2
l210 210v-49zM384 133l210 210v-49l-210 -210v49zM50 44v49l206 206v-38h11zM50 583l196 196h49l-44 -44q-53 -14 -92.5 -53.5t-54.5 -93.5l-54 -54v49zM537 482l57 57v-49l-216 -216v7q0 15 6.5 27.5t11 17.5t25.5 20t27 20q2 1 15.5 11t21.5 17.5t20 20.5t20 30t12 37z
M50 681l98 98h49l-147 -147v49zM496 0h-49l147 147v-49zM459 698l81 81h49l-104 -104q-12 13 -26 23zM50 436v49l56 56l46 -3zM506 647l88 88v-49l-70 -70q-7 15 -18 31zM202 0h-49l96 96v-49zM395 732l47 47h49l-62 -62q-17 9 -34 15zM536 579l58 58v-49l-52 -52
q0 15 -6 43zM307 742l37 37h49l-38 -38q-18 2 -28 2zM300 0h-49l33 33h49zM594 49v-49h-49zM50 779h49l-49 -49v49z" />
    <glyph glyph-name=".null" horiz-adv-x="0" 
 />
    <glyph glyph-name="nonmarkingreturn" horiz-adv-x="333" 
 />
    <glyph glyph-name="space" unicode=" " horiz-adv-x="200" 
 />
    <glyph glyph-name="exclam" unicode="!" horiz-adv-x="217" 
d="M156 356l-48 -180h-45l29 180l69 324h64zM34 114h76l-24 -114h-76z" />
    <glyph glyph-name="quotedbl" unicode="&#x22;" horiz-adv-x="301" 
d="M193 614l-64 -206h-30l24 206l14 66h70zM317 614l-64 -206h-30l24 206l14 66h70z" />
    <glyph glyph-name="numbersign" unicode="#" horiz-adv-x="682" 
d="M666 472l-4 -55h-176l-39 -170h183l-5 -54h-194l-44 -193h-59l45 193h-128l-44 -193h-59l45 193h-151l5 54h161l39 170h-169l4 55h178l50 208h59l-50 -208h127l50 208h59l-50 -208h167zM299 417l-38 -170h127l39 170h-128z" />
    <glyph glyph-name="dollar" unicode="$" horiz-adv-x="574" 
d="M24 172l53 34q11 -50 43 -89.5t85 -56.5l58 271l-32 12q-32 11 -51.5 21t-42.5 28t-34.5 46t-11.5 67q0 79 61.5 128t162.5 49q15 0 22 -1l17 77h57l-18 -86q58 -14 98.5 -47t60.5 -74l-49 -37q-35 80 -121 106l-53 -249l40 -14q34 -13 57 -25t46.5 -31t35.5 -46.5
t12 -63.5q0 -94 -67.5 -143.5t-173.5 -49.5q-5 0 -15 0.5t-14 0.5l-20 -94h-58l22 103q-65 18 -108.5 60.5t-61.5 103.5zM323 309l-7 2l-56 -262h20q86 0 131 35.5t45 98.5q0 27 -9 47t-30 34.5t-40.5 23.5t-53.5 21zM154 513q0 -51 29.5 -75.5t92.5 -46.5l50 238
q-5 1 -14 1q-71 0 -114.5 -30.5t-43.5 -86.5z" />
    <glyph glyph-name="percent" unicode="%" horiz-adv-x="945" 
d="M769 424q23 0 44 -7t42 -23.5t33.5 -48.5t12.5 -77q0 -67 -21.5 -130t-67 -106.5t-103.5 -43.5q-66 0 -100.5 43.5t-34.5 118.5q0 106 54 190t141 84zM626 155q0 -62 24 -91t62 -29q60 0 98.5 69.5t39.5 154.5q0 55 -21.5 86t-62.5 31q-66 0 -103 -69.5t-37 -151.5z
M274 0h-55l454 680h55zM264 692q23 0 44 -7t42 -23.5t33.5 -48.5t12.5 -77q0 -67 -21.5 -130t-67 -106.5t-103.5 -43.5q-66 0 -100.5 43.5t-34.5 118.5q0 106 54 190t141 84zM121 423q0 -62 24 -91t62 -29q60 0 98.5 69.5t39.5 154.5q0 55 -21.5 86t-62.5 31
q-66 0 -103 -69.5t-37 -151.5z" />
    <glyph glyph-name="ampersand" unicode="&#x26;" horiz-adv-x="611" 
d="M564 0h-76q-51 63 -66 84q-93 -96 -212 -96q-82 0 -133.5 48t-51.5 125q0 81 52.5 129.5t160.5 93.5q-40 82 -40 147q0 67 43 114t117 47q66 0 101.5 -36.5t35.5 -88.5q0 -64 -44 -113t-141 -92q39 -76 119 -188q40 60 76 152l48 -36q-42 -96 -91 -161q48 -66 102 -129z
M219 42q96 0 172 86q-86 120 -134 212q-81 -35 -125.5 -73t-44.5 -98q0 -58 35 -92.5t97 -34.5zM255 535q0 -53 35 -130q149 66 149 157q0 39 -24.5 60t-59.5 21q-46 0 -73 -30.5t-27 -77.5z" />
    <glyph glyph-name="quotesingle" unicode="'" horiz-adv-x="180" 
d="M196 614l-66 -206h-30l22 206l14 66h74z" />
    <glyph glyph-name="parenleft" unicode="(" horiz-adv-x="244" 
d="M133 -160l-49 -4q-55 157 -55 300q0 291 224 546l52 -5q-111 -136 -164 -267.5t-53 -277.5q0 -135 45 -292z" />
    <glyph glyph-name="parenright" unicode=")" horiz-adv-x="243" 
d="M100 678l48 4q56 -160 56 -300q0 -291 -224 -546l-51 5q111 136 163.5 267.5t52.5 277.5q0 134 -45 292z" />
    <glyph glyph-name="asterisk" unicode="*" horiz-adv-x="437" 
d="M324 674l-33 -146l151 18l3 -45l-150 -14l64 -141l-43 -20l-61 140l-113 -103l-30 36l116 100l-135 75l25 41l129 -78l30 147z" />
    <glyph glyph-name="plus" unicode="+" horiz-adv-x="657" 
d="M361 269v-269h-57v269h-265v56h265v268h57v-268h264v-56h-264z" />
    <glyph glyph-name="comma" unicode="," horiz-adv-x="199" 
d="M-35 -141l7 35q32 8 44.5 27t21.5 58l5 21h-42l25 114h78l-34 -152q-11 -49 -34.5 -72t-70.5 -31z" />
    <glyph glyph-name="hyphen" unicode="-" horiz-adv-x="410" 
d="M346 298l-13 -63h-277l13 63h277z" />
    <glyph glyph-name="period" unicode="." horiz-adv-x="199" 
d="M26 114h78l-25 -114h-78z" />
    <glyph glyph-name="slash" unicode="/" horiz-adv-x="356" 
d="M340 679h62l-358 -679h-63z" />
    <glyph glyph-name="zero" unicode="0" horiz-adv-x="590" 
d="M359 692q35 0 68.5 -12t66 -38t52.5 -78.5t20 -123.5q0 -110 -34 -211t-106.5 -171t-167.5 -70q-103 0 -156 69t-53 189q0 110 35 210t107.5 168t167.5 68zM110 252q1 -109 43 -159t110 -50q71 0 127.5 59.5t84.5 146.5t29 180q0 95 -38.5 151.5t-111.5 56.5
q-59 0 -107.5 -37t-77 -95t-44 -123.5t-15.5 -129.5z" />
    <glyph glyph-name="one" unicode="1" horiz-adv-x="590" 
d="M321 0h-62l111 516q-58 -34 -151 -34q-22 0 -34 1l11 52h16q76 0 122 29q57 36 77 116h55z" />
    <glyph glyph-name="two" unicode="2" horiz-adv-x="590" 
d="M182 401l-65 15q-6 27 -6 55q0 93 63.5 157t168.5 64q97 0 154 -53t57 -136q0 -34 -9 -66t-20 -56.5t-35.5 -53t-40.5 -45.5t-50 -43.5t-50 -38t-54 -38.5q-89 -62 -180 -110v-1q65 4 139 4h230l-11 -55h-456l9 52q139 80 275 181q43 32 69.5 55t57 57.5t45.5 72t15 80.5
q0 64 -39.5 101.5t-109.5 37.5q-82 0 -124 -48.5t-42 -121.5q0 -33 9 -66z" />
    <glyph glyph-name="three" unicode="3" horiz-adv-x="590" 
d="M167 495l-56 18q4 67 64 123t159 56q98 0 150.5 -48.5t52.5 -116.5q0 -64 -44 -112.5t-121 -56.5v-1q63 -14 98.5 -59.5t35.5 -104.5q0 -82 -63.5 -143.5t-176.5 -61.5q-105 0 -163.5 50t-66.5 139l60 21q6 -70 48 -112.5t120 -42.5q76 0 127 38.5t51 114.5q0 90 -89 123
q-44 16 -117 16h-55l11 51h73q92 0 136 22q71 35 71 114q0 51 -38.5 83t-102.5 32q-75 0 -116.5 -41.5t-47.5 -100.5z" />
    <glyph glyph-name="four" unicode="4" horiz-adv-x="590" 
d="M402 182l-39 -182h-60l40 182h-327l9 42l430 460h55l-96 -448h124l-11 -54h-125zM106 236h249l47 225q5 24 11.5 51t13.5 54t9 35h-1q-42 -59 -113 -136z" />
    <glyph glyph-name="five" unicode="5" horiz-adv-x="590" 
d="M48 152l58 25q10 -59 53.5 -97.5t108.5 -38.5q77 0 131.5 55.5t54.5 154.5q0 76 -42 115.5t-105 39.5q-57 0 -104 -33t-63 -95l-59 19l96 383h369l-13 -55h-313l-36 -140l-28 -102l2 -1q25 38 70 58.5t94 20.5q83 0 140 -54t57 -152q0 -124 -74.5 -195.5t-175.5 -71.5
q-83 0 -142.5 42t-78.5 122z" />
    <glyph glyph-name="six" unicode="6" horiz-adv-x="590" 
d="M570 537l-53 -34q-8 55 -47 94t-100 39q-56 0 -106.5 -35.5t-82.5 -105.5q-25 -51 -42 -125h1q66 82 181 82q99 0 152 -60.5t53 -147.5q0 -101 -67 -178.5t-180 -77.5q-98 0 -155.5 65t-57.5 185q0 191 84 322.5t223 131.5q77 0 129 -42.5t68 -112.5zM128 294
q-2 -32 -2 -48q0 -94 41 -148t117 -54q82 0 130.5 59t48.5 137q0 66 -40.5 112t-116.5 46q-56 0 -104 -29.5t-74 -74.5z" />
    <glyph glyph-name="seven" unicode="7" horiz-adv-x="590" 
d="M616 680l-11 -48q-278 -311 -370 -632h-66q71 255 290 535q48 60 75 90v1q-22 -1 -109 -1h-218l-32 -153h-59l44 208h456z" />
    <glyph glyph-name="eight" unicode="8" horiz-adv-x="590" 
d="M219 372q-100 33 -100 141q0 73 61.5 126t160.5 53q97 0 153.5 -43.5t56.5 -116.5q0 -68 -41 -113.5t-115 -59.5q121 -41 121 -166q0 -91 -66 -148t-185 -57q-110 0 -169.5 50t-59.5 134q0 75 47 129t136 71zM99 183q0 -64 44.5 -102t122.5 -38q86 0 136 40.5t50 112.5
q0 65 -45.5 103t-123.5 38q-89 0 -136.5 -45t-47.5 -109zM181 512q0 -53 36.5 -86.5t108.5 -33.5q77 0 118.5 36.5t41.5 97.5q0 50 -39 81.5t-106 31.5q-76 -1 -118 -37.5t-42 -89.5z" />
    <glyph glyph-name="nine" unicode="9" horiz-adv-x="590" 
d="M44 143l53 34q8 -55 46.5 -93.5t100.5 -38.5q56 0 106.5 35t82.5 105q25 51 42 125h-1q-66 -82 -181 -82q-99 0 -152 60.5t-53 147.5q0 101 67 178.5t180 77.5q98 0 155.5 -65t57.5 -185q0 -191 -84 -322.5t-223 -131.5q-77 0 -129 42.5t-68 112.5zM486 387q2 32 2 48
q0 94 -41 148t-117 54q-82 0 -130.5 -59t-48.5 -137q0 -66 40.5 -112t116.5 -46q56 0 104 29.5t74 74.5z" />
    <glyph glyph-name="colon" unicode=":" horiz-adv-x="216" 
d="M33 114h78l-24 -114h-78zM110 476h78l-24 -114h-78z" />
    <glyph glyph-name="semicolon" unicode=";" horiz-adv-x="220" 
d="M111 476h78l-24 -114h-78zM-27 -141l7 35q32 8 44.5 27t21.5 58l5 21h-42l25 114h78l-34 -152q-11 -49 -34.5 -72t-70.5 -31z" />
    <glyph glyph-name="less" unicode="&#x3c;" horiz-adv-x="814" 
d="M726 47v-63l-677 319v66l677 317v-63l-613 -286z" />
    <glyph glyph-name="equal" unicode="=" horiz-adv-x="867" 
d="M767 231v-56h-673v56h673zM767 406v-57h-673v57h673z" />
    <glyph glyph-name="greater" unicode="&#x3e;" horiz-adv-x="813" 
d="M110 -16v63l613 290l-613 286v63l677 -317v-66z" />
    <glyph glyph-name="question" unicode="?" horiz-adv-x="465" 
d="M382 349l-88 -67q-38 -29 -49.5 -48.5t-19.5 -55.5q-1 -4 -2.5 -14.5t-2.5 -14.5h-60q11 69 29.5 102t72.5 73l77 57q23 18 37 33q43 49 43 106q0 49 -34 83t-97 34q-70 0 -110 -46t-40 -112q0 -35 13 -72l-62 22q-8 34 -8 62q0 82 60.5 139.5t155.5 57.5q86 0 134 -46.5
t48 -116.5q0 -64 -36 -115q-21 -31 -61 -61zM146 102h74l-22 -102h-74z" />
    <glyph glyph-name="at" unicode="@" horiz-adv-x="799" 
d="M475 163l18 84q-9 -6 -68 -17l-43 -8q-59 -10 -91.5 -29t-32.5 -62q0 -72 85 -72q47 0 84 26t48 78zM537 63q67 0 114.5 77t47.5 173q0 105 -63 179t-189 74q-84 0 -154 -35.5t-115 -93t-69.5 -127t-24.5 -140.5q0 -122 72.5 -205.5t210.5 -83.5q82 0 162 35.5t136 99.5
l10 -50q-58 -63 -140.5 -97.5t-168.5 -34.5q-83 0 -149 27t-106 73.5t-61 105t-21 125.5q0 63 18 126.5t54 121t85.5 102t118.5 71t147 26.5q147 0 223 -86t76 -207q0 -116 -63.5 -208t-156.5 -92q-68 0 -68 47q0 8 1 13l-1 1q-38 -65 -133 -65q-55 0 -89 29.5t-34 81.5
q0 62 42.5 92t128.5 45l96 17q17 3 24 9t9 19q5 20 5 33q0 66 -93 66q-56 0 -85.5 -26t-35.5 -69l-47 11q8 65 57 96t117 31q135 0 135 -103q0 -24 -6 -48l-40 -186q-3 -18 -3 -26q0 -24 26 -24z" />
    <glyph glyph-name="A" unicode="A" horiz-adv-x="599" 
d="M140 205l-120 -205h-69l403 680h64l115 -680h-65l-33 205h-295zM426 260l-40 255q-6 37 -14 95h-1q-31 -60 -45 -84l-155 -266h255z" />
    <glyph glyph-name="B" unicode="B" horiz-adv-x="657" 
d="M322 0h-299l145 680h253q95 0 142 -26q33 -18 50 -51.5t17 -72.5q0 -67 -36.5 -117t-106.5 -60q52 -12 79.5 -49.5t27.5 -91.5q0 -55 -29.5 -107t-77.5 -77q-56 -28 -165 -28zM366 325h-211l-57 -269h230q97 0 140 29q63 43 63 130q0 75 -67 100q-28 10 -98 10zM167 379
h216q88 0 128 27q57 39 57 121q0 48 -34 74q-30 23 -117 23h-198z" />
    <glyph glyph-name="C" unicode="C" horiz-adv-x="627" 
d="M629 522l-57 -36q-32 150 -182 150q-86 0 -149.5 -58t-92 -138.5t-28.5 -165.5q0 -107 48 -168.5t143 -61.5q72 0 128 41t92 110l48 -36q-96 -171 -277 -171q-120 0 -183 73t-63 209q0 108 39.5 203t118.5 157t182 62q89 0 149.5 -44t83.5 -126z" />
    <glyph glyph-name="D" unicode="D" horiz-adv-x="677" 
d="M231 0h-208l145 680h151q158 0 243 -57t85 -194q0 -117 -47 -223t-133 -157q-53 -31 -102.5 -40t-133.5 -9zM219 625l-121 -570h138q135 0 204 46q70 47 106.5 143t36.5 185q0 106 -75 157q-27 18 -64 27t-65.5 10.5t-78.5 1.5h-81z" />
    <glyph glyph-name="E" unicode="E" horiz-adv-x="582" 
d="M501 55l-12 -55h-466l145 680h446l-12 -55h-383l-53 -247h347l-11 -55h-347l-58 -268h404z" />
    <glyph glyph-name="F" unicode="F" horiz-adv-x="542" 
d="M86 0h-63l145 680h433l-12 -55h-370l-53 -247h337l-12 -56h-336z" />
    <glyph glyph-name="G" unicode="G" horiz-adv-x="662" 
d="M311 44q102 0 168 70q54 58 78 168l1 6h-243l12 56h297l-73 -344h-58l22 97l-1 1q-73 -110 -214 -110q-118 0 -181 73.5t-63 208.5q0 108 39.5 203t118.5 157t182 62q89 0 149.5 -44t83.5 -126l-57 -36q-32 150 -182 150q-86 0 -149.5 -58t-92 -138.5t-28.5 -165.5
q0 -107 48 -168.5t143 -61.5z" />
    <glyph glyph-name="H" unicode="H" horiz-adv-x="693" 
d="M694 680l-144 -680h-63l69 322h-401l-69 -322h-63l145 680h63l-64 -301h401l64 301h62z" />
    <glyph glyph-name="I" unicode="I" horiz-adv-x="230" 
d="M168 680h63l-145 -680h-63z" />
    <glyph glyph-name="J" unicode="J" horiz-adv-x="486" 
d="M428 680h62l-96 -454q-21 -101 -48 -149q-53 -92 -177 -92q-87 0 -133.5 41t-46.5 120q0 14 2 34l65 25q-5 -28 -5 -47q0 -55 30 -87.5t91 -32.5q89 0 127 82q17 36 30 100z" />
    <glyph glyph-name="K" unicode="K" horiz-adv-x="625" 
d="M367 406l195 -406h-73l-173 366l-182 -155l-45 -211h-65l144 680h66l-83 -384l451 384h92z" />
    <glyph glyph-name="L" unicode="L" horiz-adv-x="527" 
d="M471 55l-12 -55h-436l145 680h62l-133 -625h374z" />
    <glyph glyph-name="M" unicode="M" horiz-adv-x="796" 
d="M652 0h-62l88 416q22 102 47 181h-1q-41 -79 -84 -149l-276 -448h-44l-96 440q-16 74 -23 151h-1q-8 -82 -25 -166l-90 -425h-62l145 680h67l104 -486q11 -48 20 -104h1q15 31 62 109l296 481h79z" />
    <glyph glyph-name="N" unicode="N" horiz-adv-x="707" 
d="M563 0h-69l-244 511q-27 56 -38 91h-1q-4 -35 -17 -97l-108 -505h-63l145 680h69l246 -511q15 -31 37 -83h1q6 37 17 90l107 504h63z" />
    <glyph glyph-name="O" unicode="O" horiz-adv-x="679" 
d="M401 692q113 0 180 -71.5t67 -198.5q0 -81 -22 -157t-63.5 -138.5t-109.5 -100.5t-152 -38q-120 0 -183 74t-63 208q0 108 40 203t120.5 157t185.5 62zM310 44q65 0 119 35t86.5 90t50 118t17.5 125q0 104 -49 164t-142 60q-64 0 -117 -33.5t-86 -87t-51 -116.5t-18 -125
q0 -107 47.5 -168.5t142.5 -61.5z" />
    <glyph glyph-name="P" unicode="P" horiz-adv-x="609" 
d="M161 356h202q99 0 141 29q63 43 63 134q0 71 -68 95q-32 11 -98 11h-183zM357 300h-208l-64 -300h-62l145 680h237q101 0 151 -28q72 -40 72 -128q0 -65 -27.5 -116t-77.5 -79q-55 -29 -166 -29z" />
    <glyph glyph-name="Q" unicode="Q" horiz-adv-x="687" 
d="M401 692q113 0 180 -71.5t67 -198.5q0 -90 -27 -175.5t-79 -147.5l63 -81l-51 -39l-58 76q-81 -67 -195 -67q-120 0 -183 74t-63 208q0 108 40 203t120.5 157t185.5 62zM310 44q65 0 119 35t86.5 90t50 118t17.5 125q0 104 -49 164t-142 60q-64 0 -117 -33.5t-86 -87
t-51 -116.5t-18 -125q0 -107 47.5 -168.5t142.5 -61.5z" />
    <glyph glyph-name="R" unicode="R" horiz-adv-x="638" 
d="M364 300h-215l-64 -300h-62l145 680h237q101 0 151 -28q72 -40 72 -128q0 -65 -27.5 -116t-77.5 -79q-38 -21 -96 -26l119 -303h-68zM161 356h202q99 0 141 29q63 43 63 134q0 71 -68 95q-32 11 -98 11h-183z" />
    <glyph glyph-name="S" unicode="S" horiz-adv-x="583" 
d="M560 566l-50 -38q-24 49 -73 78.5t-119 29.5q-72 0 -117.5 -30.5t-45.5 -87.5q0 -52 30.5 -77.5t95.5 -48.5l95 -35q74 -27 115 -63.5t41 -106.5q0 -97 -69.5 -148t-178.5 -51q-103 0 -171 48.5t-92 130.5l55 35q14 -67 67 -113t142 -46q86 0 133.5 36t47.5 99
q0 53 -33 78.5t-104 51.5l-95 35q-26 9 -42 16t-38 21.5t-34 30.5t-21 41.5t-9 57.5q0 81 63.5 131.5t167.5 50.5q88 0 148.5 -36t90.5 -90z" />
    <glyph glyph-name="T" unicode="T" horiz-adv-x="526" 
d="M86 625l12 55h500l-12 -55h-219l-133 -625h-62l133 625h-219z" />
    <glyph glyph-name="U" unicode="U" horiz-adv-x="669" 
d="M291 -13q-112 0 -170 52t-58 145q0 31 12 91l87 405h62l-85 -401q-13 -61 -13 -90q0 -146 172 -146q96 0 149 49q49 46 74 155l92 433h62l-90 -425q-32 -146 -94 -204q-67 -64 -200 -64z" />
    <glyph glyph-name="V" unicode="V" horiz-adv-x="579" 
d="M262 0h-77l-90 680h65l68 -522q2 -17 5.5 -44t5.5 -41h1q19 39 45 84l297 523h69z" />
    <glyph glyph-name="W" unicode="W" horiz-adv-x="884" 
d="M606 0h-58l-35 406q-12 134 -12 170h-1q-21 -55 -82 -172l-205 -404h-57l-55 680h62l34 -403q12 -147 12 -167h1q19 49 80 167l202 403h59l37 -403q12 -147 12 -168h1q13 35 79 166l200 405h66z" />
    <glyph glyph-name="X" unicode="X" horiz-adv-x="590" 
d="M532 0h-70l-157 312l-288 -312h-79l339 365l-160 315h69l137 -275l251 275h77l-302 -322z" />
    <glyph glyph-name="Y" unicode="Y" horiz-adv-x="568" 
d="M250 0h-63l60 280l-161 400h67l138 -338l283 338h76l-340 -400z" />
    <glyph glyph-name="Z" unicode="Z" horiz-adv-x="558" 
d="M484 55l-12 -55h-511l9 41l537 584h-391l12 55h480l-10 -45l-532 -580h418z" />
    <glyph glyph-name="bracketleft" unicode="[" horiz-adv-x="270" 
d="M159 -110l-11 -48h-167l178 838h168l-10 -48h-109l-158 -742h109z" />
    <glyph glyph-name="backslash" unicode="\" horiz-adv-x="385" 
d="M296 0h-59l-125 680h59z" />
    <glyph glyph-name="bracketright" unicode="]" horiz-adv-x="270" 
d="M102 632l11 48h167l-178 -838h-168l10 48h109l158 742h-109z" />
    <glyph glyph-name="asciicircum" unicode="^" horiz-adv-x="459" 
d="M352 700l96 -358h-63l-72 289h-1l-200 -289h-70l256 358h54z" />
    <glyph glyph-name="underscore" unicode="_" horiz-adv-x="731" 
d="M548 -92l-11 -56h-525l10 56h526z" />
    <glyph glyph-name="grave" unicode="`" horiz-adv-x="469" 
d="M202 680h94l94 -128h-56z" />
    <glyph glyph-name="a" unicode="a" horiz-adv-x="481" 
d="M320 158l21 96q-10 -6 -78 -19l-50 -9q-68 -12 -105 -34t-37 -71q0 -83 97 -83q55 0 97 29.5t55 90.5zM117 329l-54 13q8 74 64.5 109.5t134.5 35.5q156 0 156 -118q0 -23 -7 -55l-46 -216q-4 -19 -4 -30q0 -28 30 -28q22 0 38 10l-10 -47q-18 -10 -49 -10q-65 0 -65 51
q0 10 3 22l-1 1q-45 -79 -154 -79q-63 0 -102 33.5t-39 93.5q0 72 49 107t147 51l111 19q20 4 27.5 10.5t10.5 21.5q5 23 5 38q0 76 -107 76q-64 0 -98 -30t-40 -79z" />
    <glyph glyph-name="b" unicode="b" horiz-adv-x="530" 
d="M154 680h58l-37 -171l-24 -111h1q22 39 64.5 64t93.5 25q79 0 125.5 -50.5t46.5 -140.5q0 -126 -68 -217t-178 -91q-65 0 -102 32.5t-46 79.5l-21 -100h-59zM293 436q-58 0 -101.5 -41t-62 -96t-18.5 -112q0 -69 32 -108.5t95 -39.5q56 0 99.5 39t64 94t20.5 112
q0 71 -32 111.5t-97 40.5z" />
    <glyph glyph-name="c" unicode="c" horiz-adv-x="481" 
d="M455 351l-53 -28q-27 113 -130 113q-57 0 -100 -39t-62.5 -93t-19.5 -111q0 -72 32.5 -112.5t95.5 -40.5q102 0 157 111l46 -31q-70 -132 -207 -132q-90 0 -137 52.5t-47 144.5q0 122 67.5 212t180.5 90q69 0 115.5 -36.5t61.5 -99.5z" />
    <glyph glyph-name="d" unicode="d" horiz-adv-x="531" 
d="M488 680h59l-145 -680h-59l18 78h-1q-22 -39 -65 -64.5t-94 -25.5q-79 0 -125.5 50.5t-46.5 140.5q0 126 68 217t178 91q65 0 102 -32.5t46 -79.5zM218 39q58 0 101.5 41t62 96t18.5 112q0 69 -32 108.5t-95 39.5q-56 0 -99.5 -39t-64 -94t-20.5 -112q0 -71 32 -111.5
t97 -40.5z" />
    <glyph glyph-name="e" unicode="e" 
d="M446 234h-353q-3 -21 -3 -43q0 -66 32 -108.5t102 -42.5q104 0 167 110l45 -31q-73 -131 -217 -131q-93 0 -141 52.5t-48 153.5q0 119 71.5 206t179.5 87q87 0 130 -52t43 -132q0 -35 -8 -69zM275 437q-63 0 -109 -47t-62 -108h287q2 18 2 29q0 54 -28 90t-90 36z" />
    <glyph glyph-name="f" unicode="f" horiz-adv-x="308" 
d="M332 476l-10 -49h-108l-91 -427h-59l91 427h-108l10 49h108l23 109q12 55 39 79q31 28 83 28q35 0 66 -11l-12 -54q-30 12 -54 12q-28 0 -42.5 -14t-21.5 -47l-22 -102h108z" />
    <glyph glyph-name="g" unicode="g" horiz-adv-x="532" 
d="M220 46q58 0 101 39.5t61.5 92.5t18.5 110q0 69 -32 108.5t-95 39.5q-83 0 -133 -73t-50 -163q0 -71 32.5 -112.5t96.5 -41.5zM364 85h-1q-22 -39 -65.5 -64.5t-94.5 -25.5q-79 0 -125.5 51.5t-46.5 141.5q0 123 67.5 211t174.5 88q65 0 104 -33t47 -79l21 101h59
l-92 -439q-26 -123 -69 -173q-54 -62 -167 -62q-93 0 -136.5 42t-43.5 101q0 13 1 20l58 18q-1 -8 -1 -22q0 -109 126 -109q37 0 64.5 10.5t44 24.5t30 42t19.5 49t15 59z" />
    <glyph glyph-name="h" unicode="h" 
d="M153 680h58l-59 -283q19 37 65 63.5t98 26.5q63 0 97.5 -34t34.5 -93q0 -33 -11 -82l-59 -278h-59l54 255q14 62 14 96q0 81 -92 81q-65 0 -111 -50.5t-59 -115.5l-56 -266h-59z" />
    <glyph glyph-name="i" unicode="i" horiz-adv-x="197" 
d="M169 476l-101 -476h-59l101 476h59zM212 680l-20 -98h-59l20 98h59z" />
    <glyph glyph-name="j" unicode="j" horiz-adv-x="196" 
d="M110 476h59l-104 -485q-19 -89 -28 -117t-28 -48q-28 -28 -82 -28q-43 0 -78 20l13 57q30 -23 66 -23q32 0 45 20.5t25 79.5zM213 680l-21 -98h-59l21 98h59z" />
    <glyph glyph-name="k" unicode="k" horiz-adv-x="488" 
d="M153 680h60l-95 -444l300 240h90l-229 -177l141 -299h-68l-121 261l-129 -100l-34 -161h-59z" />
    <glyph glyph-name="l" unicode="l" horiz-adv-x="208" 
d="M159 680h59l-145 -680h-59z" />
    <glyph glyph-name="m" unicode="m" horiz-adv-x="774" 
d="M420 285l-61 -285h-59l54 255q14 65 14 96q0 81 -79 81q-59 0 -104.5 -49t-59.5 -114l-57 -269h-59l101 476h59l-17 -79q18 36 63.5 63t92.5 27q104 0 119 -99q23 39 70.5 69t101.5 30q57 0 89 -32t32 -90q0 -38 -11 -87l-59 -278h-59l54 255q14 65 14 96q0 81 -79 81
q-55 0 -98.5 -43t-61.5 -104z" />
    <glyph glyph-name="n" unicode="n" 
d="M436 278l-59 -278h-59l54 255q14 62 14 96q0 81 -92 81q-65 0 -111 -50.5t-59 -115.5l-56 -266h-59l101 476h59l-17 -79q19 37 65 63.5t98 26.5q63 0 97.5 -34t34.5 -93q0 -33 -11 -82z" />
    <glyph glyph-name="o" unicode="o" horiz-adv-x="517" 
d="M29 185q0 77 28 144.5t88 112.5t139 45q86 0 135 -53t49 -145q0 -120 -68 -210.5t-187 -90.5q-86 0 -135 52.5t-49 144.5zM277 437q-86 0 -136.5 -75.5t-50.5 -169.5q0 -72 34.5 -112.5t94.5 -40.5q87 0 137.5 76.5t50.5 170.5q0 72 -34.5 111.5t-95.5 39.5z" />
    <glyph glyph-name="p" unicode="p" horiz-adv-x="531" 
d="M28 -190h-59l141 666h59l-18 -79h1q22 39 65 64.5t94 25.5q79 0 125.5 -50.5t46.5 -140.5q0 -126 -68 -217t-178 -91q-65 0 -102 32.5t-46 79.5zM294 436q-84 0 -132.5 -79t-48.5 -170q0 -69 31.5 -108.5t94.5 -39.5q56 0 99.5 39t64 94t20.5 112q0 71 -32 111.5
t-97 40.5z" />
    <glyph glyph-name="q" unicode="q" horiz-adv-x="531" 
d="M361 -190h-59l59 268h-1q-22 -39 -65 -64.5t-94 -25.5q-79 0 -125.5 50.5t-46.5 140.5q0 126 68 217t178 91q65 0 102 -32.5t46 -79.5l21 101h59zM218 39q58 0 101.5 41t62 96t18.5 112q0 69 -32 108.5t-95 39.5q-56 0 -99.5 -39t-64 -94t-20.5 -112q0 -71 32 -111.5
t97 -40.5z" />
    <glyph glyph-name="r" unicode="r" horiz-adv-x="324" 
d="M345 483l-13 -60q-16 4 -36 4q-64 0 -110.5 -46.5t-60.5 -111.5l-57 -269h-59l101 476h59l-20 -92q21 42 65 72.5t96 30.5q20 0 35 -4z" />
    <glyph glyph-name="s" unicode="s" horiz-adv-x="442" 
d="M400 389l-48 -34q-39 82 -130 82q-45 0 -73.5 -20t-28.5 -58q0 -32 18 -47.5t61 -30.5l65 -24q54 -20 84 -46t30 -76q0 -70 -50.5 -108.5t-127.5 -38.5q-76 0 -127 36t-71 98l51 32q38 -116 151 -116q48 0 79 23t31 65q0 33 -19 48.5t-67 32.5l-67 25q-22 8 -35.5 15
t-31.5 20.5t-27 34t-9 48.5q0 64 49 100.5t118 36.5q125 0 175 -98z" />
    <glyph glyph-name="t" unicode="t" horiz-adv-x="303" 
d="M40 427l10 49h96l40 179l61 12l-42 -191h114l-10 -49h-114l-67 -311q-6 -27 -6 -40q0 -32 34 -32q36 0 77 22l-12 -58q-39 -18 -89 -18q-73 0 -73 60q0 16 6 46l71 331h-96z" />
    <glyph glyph-name="u" unicode="u" horiz-adv-x="496" 
d="M46 197l59 279h59l-54 -256q-14 -62 -14 -97q0 -80 88 -80q65 0 110.5 50.5t58.5 115.5l56 267h59l-101 -476h-59l17 78q-19 -37 -64 -63.5t-98 -26.5q-60 0 -94 33.5t-34 90.5q0 36 11 85z" />
    <glyph glyph-name="v" unicode="v" horiz-adv-x="436" 
d="M467 476l-287 -476h-52l-70 476h62l42 -312q2 -16 4.5 -34t4.5 -29t2 -16h1q16 31 49 86l181 305h63z" />
    <glyph glyph-name="w" unicode="w" horiz-adv-x="688" 
d="M410 476l28 -288q2 -23 5.5 -62t3.5 -42h1q15 33 54 109l148 283h60l-253 -476h-56l-27 306q-2 23 -3.5 53.5t-1.5 33.5h-1l-44 -88l-156 -305h-53l-59 476h59l33 -286q6 -42 11 -105h1q37 78 52 106l147 285h51z" />
    <glyph glyph-name="x" unicode="x" horiz-adv-x="445" 
d="M249 241l123 -241h-67l-98 202l-186 -202h-72l235 250l-114 226h67l89 -186l172 186h69z" />
    <glyph glyph-name="y" unicode="y" horiz-adv-x="445" 
d="M120 476l44 -317l12 -83h1q17 32 50 86l187 314h63l-327 -540q-41 -69 -59 -91q-38 -47 -96 -47q-34 0 -61 18l11 56q26 -21 55 -21t47 21q14 16 38 56l43 74l-69 474h61z" />
    <glyph glyph-name="z" unicode="z" horiz-adv-x="405" 
d="M328 50l-11 -50h-347l8 40l339 387h-244l10 49h321l-8 -39l-340 -387h272z" />
    <glyph glyph-name="braceleft" unicode="{" horiz-adv-x="270" 
d="M82 283q54 -26 54 -87q0 -24 -6 -54l-34 -161q-9 -41 -9 -55q0 -22 14.5 -31.5t50.5 -9.5h6l-9 -43q-5 0 -13 -0.5t-12 -0.5q-55 0 -77.5 17t-22.5 55q0 25 17 97l25 111q13 53 13 85q0 24 -11 38.5t-39 23.5l10 40q48 5 64 29.5t31 102.5l24 122q14 73 40.5 96.5
t83.5 23.5q26 0 41 -2l-9 -43h-26q-36 0 -49 -19t-26 -80l-23 -114q-14 -69 -34 -98.5t-74 -42.5z" />
    <glyph glyph-name="bar" unicode="|" horiz-adv-x="258" 
d="M154 680v-838h-59v838h59z" />
    <glyph glyph-name="braceright" unicode="}" horiz-adv-x="269" 
d="M183 258q-54 26 -54 87q0 24 6 54l30 142q9 41 9 55q0 22 -14.5 31.5t-50.5 9.5h-6l9 43q14 1 25 1q55 0 77.5 -17t22.5 -55q0 -25 -17 -97l-21 -92q-13 -53 -13 -85q0 -24 11 -38.5t39 -23.5l-10 -40q-48 -5 -64 -29.5t-31 -102.5l-28 -142q-14 -73 -40.5 -96.5
t-83.5 -23.5q-26 0 -41 2l9 43h26q36 0 49 19t26 80l27 134q14 69 34 98.5t74 42.5z" />
    <glyph glyph-name="asciitilde" unicode="~" horiz-adv-x="540" 
d="M472 348l29 -49q-62 -77 -126 -77q-37 0 -98 30l-41 20q-42 19 -72 19q-27 0 -43 -12.5t-48 -50.5l-31 47q52 81 122 81q36 0 98 -28l47 -22q46 -21 66 -21q46 0 97 63z" />
    <glyph glyph-name="uni00A0" unicode="&#xa0;" horiz-adv-x="200" 
 />
    <glyph glyph-name="exclamdown" unicode="&#xa1;" horiz-adv-x="200" 
d="M33 120l48 180h45l-29 -180l-69 -324h-64zM155 362h-76l24 114h76z" />
    <glyph glyph-name="cent" unicode="&#xa2;" horiz-adv-x="490" 
d="M459 351l-53 -28q-22 92 -95 109l-83 -392q96 4 151 111l46 -31q-70 -132 -207 -132h-1l-21 -101h-52l22 106q-65 14 -98.5 64t-33.5 128q0 118 64.5 207.5t172.5 93.5l20 94h52l-21 -97q53 -10 88.5 -44.5t48.5 -87.5zM94 193q0 -120 84 -147l82 389q-77 -8 -121.5 -82
t-44.5 -160z" />
    <glyph glyph-name="sterling" unicode="&#xa3;" horiz-adv-x="539" 
d="M548 536l-55 -19v7q0 58 -29 86.5t-78 28.5q-36 0 -62.5 -15.5t-42 -36.5t-27 -56.5t-16.5 -62t-11 -66.5q-1 -5 -1 -8l-4 -27h154l-12 -53h-149l-3 -19q-6 -40 -9.5 -58.5t-13 -53.5t-20 -54.5t-29 -41t-42.5 -33.5v-1q52 2 125 2h230l-11 -55h-459l10 49q64 4 96 39
t52 133q4 17 14 93h-107l12 53h103q1 8 8 51t11 60t12.5 49.5t20 55t27.5 40.5q55 66 149 66q73 0 115 -40t42 -102v-11z" />
    <glyph glyph-name="currency" unicode="&#xa4;" horiz-adv-x="567" 
d="M92 289q0 65 36 115l-63 63l42 42l62 -63q50 36 115 36t114 -36l62 62l42 -42l-62 -62q37 -51 37 -115q0 -65 -36 -115l61 -60l-42 -42l-61 61q-50 -36 -115 -36q-66 0 -115 36l-62 -62l-42 42l62 62q-35 47 -35 114zM149 289q0 -57 39 -97t96 -40q58 0 97 40t39 97
q0 58 -38.5 98t-97.5 40q-58 0 -96.5 -39.5t-38.5 -98.5z" />
    <glyph glyph-name="yen" unicode="&#xa5;" horiz-adv-x="625" 
d="M83 285l11 53h158l-140 342h67l139 -333l282 333h76l-294 -342h167l-11 -53h-201l-18 -83h204l-11 -53h-204l-32 -149h-63l32 149h-188l11 53h188l18 83h-191z" />
    <glyph glyph-name="brokenbar" unicode="&#xa6;" horiz-adv-x="270" 
d="M160 680v-323h-59v323h59zM160 165v-323h-59v323h59z" />
    <glyph glyph-name="section" unicode="&#xa7;" horiz-adv-x="490" 
d="M312 163q63 -34 63 -105q0 -70 -50.5 -108.5t-127.5 -38.5q-74 0 -126 36t-72 98l51 32q38 -116 151 -116q48 0 79 23t31 65q0 33 -23 56.5t-69 45.5l-45 22q-65 31 -93.5 61t-28.5 86q0 61 47.5 98t104.5 42q-55 37 -55 97q0 54 45.5 93.5t121.5 39.5q130 0 179 -107
l-49 -32q-37 89 -133 89q-45 0 -73.5 -20t-28.5 -58q0 -32 21 -52t67 -43l28 -12q32 -17 48 -26.5t36.5 -26.5t29 -38t8.5 -48q0 -64 -42 -101.5t-95 -51.5zM205 224l59 -28q52 8 87 38.5t35 73.5q0 36 -25.5 59t-72.5 43l-37 16q-61 -2 -98.5 -29t-37.5 -71q0 -37 23 -59
t67 -43z" />
    <glyph glyph-name="dieresis" unicode="&#xa8;" horiz-adv-x="469" 
d="M161 566l20 91h62l-20 -91h-62zM348 566l20 91h62l-20 -91h-62z" />
    <glyph glyph-name="copyright" unicode="&#xa9;" horiz-adv-x="789" 
d="M568 451l-49 -29q-27 88 -111 88q-55 0 -89 -43.5t-34 -118.5q0 -74 34 -116t89 -42q83 0 114 75l46 -29q-50 -99 -160 -99q-83 0 -131.5 57t-48.5 153q0 97 48.5 155t131.5 58q116 0 160 -109zM749 350q0 -144 -98 -242.5t-243 -98.5q-144 0 -242 98.5t-98 242.5
q0 145 98 243.5t242 98.5q145 0 243 -98.5t98 -243.5zM692 350q0 121 -82 206t-202 85q-119 0 -200.5 -85t-81.5 -206q0 -119 81.5 -203.5t200.5 -84.5q120 0 202 84t82 204z" />
    <glyph glyph-name="ordfeminine" unicode="&#xaa;" horiz-adv-x="362" 
d="M277 483l12 53q-12 -4 -44 -9l-30 -6q-43 -8 -65 -21t-22 -41q0 -48 57 -48q32 0 57.5 18.5t34.5 53.5zM156 585l-39 9q6 49 42 72.5t85 23.5q100 0 100 -77q0 -12 -4 -34l-28 -135q-3 -12 -3 -17q0 -15 15 -15t29 8l-8 -38q-14 -6 -33 -6q-20 0 -31.5 10.5t-11.5 28.5v2
q-31 -44 -93 -44q-41 0 -66 22t-25 60q0 47 31.5 69t93.5 33l69 12q18 4 21 17q4 14 4 23q0 45 -65 45q-74 0 -83 -69z" />
    <glyph glyph-name="guillemotleft" unicode="&#xab;" horiz-adv-x="388" 
d="M47 276l16 73l163 137l-18 -83l-120 -93l79 -99l-16 -75zM194 276l16 73l163 137l-18 -83l-120 -93l79 -99l-16 -75z" />
    <glyph glyph-name="logicalnot" unicode="&#xac;" horiz-adv-x="536" 
d="M468 454v-233h-59v180h-337v53h396z" />
    <glyph glyph-name="uni00AD" unicode="&#xad;" horiz-adv-x="410" 
d="M346 298l-13 -63h-277l13 63h277z" />
    <glyph glyph-name="registered" unicode="&#xae;" horiz-adv-x="789" 
d="M322 317v-167h-51v398h163q66 0 103 -26q43 -31 43 -88q0 -48 -31.5 -79t-75.5 -37l120 -168h-65l-121 167h-85zM322 366h99q48 0 69 10q34 15 34 58q0 41 -34 56q-21 9 -69 9h-99v-133zM749 350q0 -144 -98 -242.5t-243 -98.5q-144 0 -242 98.5t-98 242.5
q0 145 98 243.5t242 98.5q145 0 243 -98.5t98 -243.5zM692 350q0 121 -82 206t-202 85q-119 0 -200.5 -85t-81.5 -206q0 -119 81.5 -203.5t200.5 -84.5q120 0 202 84t82 204z" />
    <glyph glyph-name="macron" unicode="&#xaf;" horiz-adv-x="469" 
d="M172 604l11 53h271l-11 -53h-271z" />
    <glyph glyph-name="degree" unicode="&#xb0;" horiz-adv-x="383" 
d="M95 542q0 62 44 106t106 44t106 -44t44 -106t-44 -106t-106 -44t-106 44t-44 106zM153 542q0 -41 26 -68t66 -27t66 27t26 68t-26 68t-66 27t-66 -27t-26 -68z" />
    <glyph glyph-name="plusminus" unicode="&#xb1;" horiz-adv-x="733" 
d="M379 323v-216h-57v216h-265v56h265v214h57v-214h264v-56h-264zM643 57v-57h-586v57h586z" />
    <glyph glyph-name="twosuperior" unicode="&#xb2;" horiz-adv-x="395" 
d="M168 508l-55 17q-2 16 -2 24q0 58 40 97t106 39q62 0 97.5 -33t35.5 -86q0 -41 -23.5 -81t-65.5 -74t-76 -56t-79 -47v-3q54 1 90 1h113l-9 -45h-285l7 42q53 27 145 93q33 24 49 37t38.5 35t32 45.5t9.5 49.5q0 36 -21.5 57t-59.5 21q-43 0 -67.5 -27.5t-24.5 -68.5
q0 -17 5 -37z" />
    <glyph glyph-name="threesuperior" unicode="&#xb3;" horiz-adv-x="375" 
d="M60 373l50 16q7 -91 94 -91q42 0 70 22t28 63q0 48 -50 67q-29 10 -71 10h-33l9 39h46q53 0 79 13q38 18 38 66q0 28 -20.5 46t-57.5 18q-32 0 -55.5 -20.5t-30.5 -54.5l-46 14q6 42 42.5 73t93.5 31q59 0 92 -28t33 -72q0 -42 -25.5 -71t-63.5 -34l-1 -2
q32 -12 51.5 -37.5t19.5 -59.5q0 -50 -39 -88t-109 -38q-66 0 -103.5 31t-40.5 87z" />
    <glyph glyph-name="acute" unicode="&#xb4;" horiz-adv-x="469" 
d="M297 680h94l-132 -128h-56z" />
    <glyph glyph-name="mu" unicode="&#xb5;" horiz-adv-x="491" 
d="M31 -190h-59l141 666h59l-56 -265q-14 -62 -14 -88q0 -80 90 -80q65 0 110.5 50.5t58.5 115.5l56 267h59l-101 -476h-59l17 78q-21 -40 -66.5 -65t-96.5 -25q-65 0 -92 43z" />
    <glyph glyph-name="paragraph" unicode="&#xb6;" horiz-adv-x="584" 
d="M263 320h-8q-79 0 -129 40t-50 118q0 94 59 145q34 30 83.5 43.5t143.5 13.5h269l-9 -44h-79l-162 -764h-51l162 764h-111l-162 -764h-51z" />
    <glyph glyph-name="periodcentered" unicode="&#xb7;" horiz-adv-x="206" 
d="M84 377h78l-25 -114h-78z" />
    <glyph glyph-name="cedilla" unicode="&#xb8;" horiz-adv-x="469" 
d="M112 -62l61 65h41l-46 -48q4 1 13 1q30 0 49.5 -17t19.5 -46q0 -39 -31 -62.5t-77 -23.5q-26 0 -51 9l15 28q14 -5 31 -5q27 0 45 11.5t18 34.5q0 37 -48 37q-15 0 -31 -7z" />
    <glyph glyph-name="onesuperior" unicode="&#xb9;" horiz-adv-x="244" 
d="M174 263h-50l64 307q-28 -18 -78 -18q-9 0 -27 2l8 43h17q39 0 65 16q30 18 43 67h45z" />
    <glyph glyph-name="ordmasculine" unicode="&#xba;" horiz-adv-x="361" 
d="M92 498q0 76 43.5 134t118.5 58q55 0 86.5 -34t31.5 -92q0 -76 -43 -133.5t-119 -57.5q-55 0 -86.5 33.5t-31.5 91.5zM249 652q-52 0 -82 -45.5t-30 -103.5q0 -43 20.5 -67.5t56.5 -24.5q53 0 83 46.5t30 104.5q0 43 -20.5 66.5t-57.5 23.5z" />
    <glyph glyph-name="guillemotright" unicode="&#xbb;" horiz-adv-x="388" 
d="M353 346l-16 -73l-163 -137l18 84l120 95l-79 96l16 75zM206 346l-16 -73l-163 -137l18 84l120 95l-79 96l16 75z" />
    <glyph glyph-name="onequarter" unicode="&#xbc;" horiz-adv-x="789" 
d="M180 263h-50l64 307q-28 -18 -78 -18q-9 0 -27 2l8 43h17q39 0 65 16q30 18 43 67h45zM172 0h-55l454 680h55zM653 107l-23 -107h-48l23 107h-202l7 35l263 275h44l-56 -267h70l-8 -43h-70zM473 150v-2q32 2 82 2h58l28 133q4 20 13 56h-2q-18 -23 -49 -57l-72 -74
l-17.5 -17.5t-21 -21.5t-19.5 -19z" />
    <glyph glyph-name="onehalf" unicode="&#xbd;" horiz-adv-x="833" 
d="M171 0h-55l454 680h55zM179 263h-50l64 307q-28 -18 -78 -18q-9 0 -27 2l8 43h17q39 0 65 16q30 18 43 67h45zM568 247l-55 17q-2 16 -2 24q0 58 40 97t106 39q62 0 97.5 -33t35.5 -86q0 -41 -23.5 -81t-65.5 -74t-76 -56t-79 -47v-3q54 1 90 1h113l-9 -45h-285l7 42
q53 27 145 93q33 24 49 37t38.5 35t32 45.5t9.5 49.5q0 36 -21.5 57t-59.5 21q-43 0 -67.5 -27.5t-24.5 -68.5q0 -17 5 -37z" />
    <glyph glyph-name="threequarters" unicode="&#xbe;" horiz-adv-x="900" 
d="M55 373l50 16q7 -91 94 -91q42 0 70 22t28 63q0 48 -50 67q-29 10 -71 10h-33l9 39h46q53 0 79 13q38 18 38 66q0 28 -20.5 46t-57.5 18q-32 0 -55.5 -20.5t-30.5 -54.5l-46 14q7 42 43 73t93 31q59 0 92 -28t33 -72q0 -42 -25.5 -71t-63.5 -34l-1 -2q32 -12 51.5 -37.5
t19.5 -59.5q0 -50 -39 -88t-109 -38q-66 0 -103.5 31t-40.5 87zM764 107l-23 -107h-48l23 107h-202l7 35l263 275h44l-56 -267h70l-8 -43h-70zM584 150v-2q32 2 82 2h58l28 133q4 20 13 56h-2q-18 -23 -49 -57l-72 -74zM283 0h-55l454 680h55z" />
    <glyph glyph-name="questiondown" unicode="&#xbf;" horiz-adv-x="459" 
d="M62 127l88 67q38 29 49.5 48.5t19.5 55.5q1 4 2.5 14.5t2.5 14.5h60q-11 -69 -29.5 -102t-72.5 -73l-77 -57q-23 -18 -37 -33q-43 -49 -43 -106q0 -49 34 -83t97 -34q70 0 110 46t40 112q0 35 -13 72l62 -22q8 -34 8 -62q0 -82 -60.5 -139.5t-155.5 -57.5
q-86 0 -134 46.5t-48 116.5q0 64 36 115q21 31 61 61zM298 374h-74l22 102h74z" />
    <glyph glyph-name="Agrave" unicode="&#xc0;" horiz-adv-x="599" 
d="M140 205l-120 -205h-69l403 680h64l115 -680h-65l-33 205h-295zM426 260l-40 255q-6 37 -14 95h-1q-31 -60 -45 -84l-155 -266h255zM445 753h-56l-142 136h96z" />
    <glyph glyph-name="Aacute" unicode="&#xc1;" horiz-adv-x="599" 
d="M140 205l-120 -205h-69l403 680h64l115 -680h-65l-33 205h-295zM426 260l-40 255q-6 37 -14 95h-1q-31 -60 -45 -84l-155 -266h255zM402 753h-56l102 136h96z" />
    <glyph glyph-name="Acircumflex" unicode="&#xc2;" horiz-adv-x="599" 
d="M140 205l-120 -205h-69l403 680h64l115 -680h-65l-33 205h-295zM426 260l-40 255q-6 37 -14 95h-1q-31 -60 -45 -84l-155 -266h255zM419 834l-96 -81h-65l148 136h42l92 -136h-59z" />
    <glyph glyph-name="Atilde" unicode="&#xc3;" horiz-adv-x="599" 
d="M140 205l-120 -205h-69l403 680h64l115 -680h-65l-33 205h-295zM426 260l-40 255q-6 37 -14 95h-1q-31 -60 -45 -84l-155 -266h255zM537 867l41 -10q-10 -21 -16 -32t-18 -27t-27 -23.5t-33 -7.5q-27 0 -77 26q-44 22 -55 22q-33 0 -47 -47l-42 9q36 90 96 90
q23 0 67 -22q46 -23 62 -23q34 0 49 45z" />
    <glyph glyph-name="Adieresis" unicode="&#xc4;" horiz-adv-x="599" 
d="M140 205l-120 -205h-69l403 680h64l115 -680h-65l-33 205h-295zM426 260l-40 255q-6 37 -14 95h-1q-31 -60 -45 -84l-155 -266h255zM275 768l19 91h62l-19 -91h-62zM462 768l19 91h62l-19 -91h-62z" />
    <glyph glyph-name="Aring" unicode="&#xc5;" horiz-adv-x="599" 
d="M140 205l-120 -205h-69l403 680h64l115 -680h-65l-33 205h-295zM426 260l-40 255q-6 37 -14 95h-1q-31 -60 -45 -84l-155 -266h255zM339 819q0 34 24 57.5t58 23.5t58 -23.5t24 -57.5t-24 -57.5t-58 -23.5t-58 23.5t-24 57.5zM377 819q0 -18 13 -30.5t30 -12.5t30 12.5
t13 30.5t-13 30.5t-30 12.5t-30 -12.5t-13 -30.5z" />
    <glyph glyph-name="AE" unicode="&#xc6;" horiz-adv-x="908" 
d="M164 206l-170 -206h-72l562 680h456l-12 -55h-364l-52 -247h329l-12 -55h-329l-57 -268h384l-12 -55h-448l45 206h-248zM423 261l51 234q9 40 17 75.5t11 48.5l3 13h-1q-40 -60 -106 -139l-191 -232h216z" />
    <glyph glyph-name="Ccedilla" unicode="&#xc7;" horiz-adv-x="627" 
d="M629 522l-57 -36q-32 150 -182 150q-86 0 -149.5 -58t-92 -138.5t-28.5 -165.5q0 -107 48 -168.5t143 -61.5q72 0 128 41t92 110l48 -36q-95 -168 -272 -171l-31 -33q4 1 13 1q30 0 49.5 -17t19.5 -46q0 -39 -31 -62.5t-77 -23.5q-26 0 -51 9l15 28q14 -5 31 -5
q27 0 45 11.5t18 34.5q0 37 -48 37q-15 0 -31 -7l-13 23l49 52q-103 10 -156 82.5t-53 197.5q0 108 39.5 203t118.5 157t182 62q89 0 149.5 -44t83.5 -126z" />
    <glyph glyph-name="Egrave" unicode="&#xc8;" horiz-adv-x="582" 
d="M501 55l-12 -55h-466l145 680h446l-12 -55h-383l-53 -247h347l-11 -55h-347l-58 -268h404zM458 753h-56l-142 136h96z" />
    <glyph glyph-name="Eacute" unicode="&#xc9;" horiz-adv-x="582" 
d="M501 55l-12 -55h-466l145 680h446l-12 -55h-383l-53 -247h347l-11 -55h-347l-58 -268h404zM386 753h-56l102 136h96z" />
    <glyph glyph-name="Ecircumflex" unicode="&#xca;" horiz-adv-x="582" 
d="M501 55l-12 -55h-466l145 680h446l-12 -55h-383l-53 -247h347l-11 -55h-347l-58 -268h404zM421 834l-96 -81h-65l148 136h42l92 -136h-59z" />
    <glyph glyph-name="Edieresis" unicode="&#xcb;" horiz-adv-x="582" 
d="M501 55l-12 -55h-466l145 680h446l-12 -55h-383l-53 -247h347l-11 -55h-347l-58 -268h404zM283 768l19 91h62l-19 -91h-62zM470 768l19 91h62l-19 -91h-62z" />
    <glyph glyph-name="Igrave" unicode="&#xcc;" horiz-adv-x="230" 
d="M168 680h63l-145 -680h-63zM257 753h-56l-142 136h96z" />
    <glyph glyph-name="Iacute" unicode="&#xcd;" horiz-adv-x="230" 
d="M168 680h63l-145 -680h-63zM234 753h-56l102 136h96z" />
    <glyph glyph-name="Icircumflex" unicode="&#xce;" horiz-adv-x="230" 
d="M168 680h63l-145 -680h-63zM233 834l-96 -81h-65l148 136h42l92 -136h-59z" />
    <glyph glyph-name="Idieresis" unicode="&#xcf;" horiz-adv-x="230" 
d="M168 680h63l-145 -680h-63zM91 768l19 91h62l-19 -91h-62zM278 768l19 91h62l-19 -91h-62z" />
    <glyph glyph-name="Eth" unicode="&#xd0;" horiz-adv-x="688" 
d="M3 337l11 56h104l61 287h151q158 0 243 -57t85 -194q0 -117 -47 -223t-133 -157q-53 -31 -102.5 -40t-133.5 -9h-208l72 337h-103zM230 625l-49 -232h202l-12 -56h-202l-60 -282h138q135 0 204 46q70 47 106.5 143t36.5 185q0 106 -75 157q-27 18 -64 27t-65.5 10.5
t-78.5 1.5h-81z" />
    <glyph glyph-name="Ntilde" unicode="&#xd1;" horiz-adv-x="707" 
d="M577 867l41 -10q-10 -21 -16 -32t-18 -27t-27 -23.5t-33 -7.5q-27 0 -77 26q-44 22 -55 22q-33 0 -47 -47l-42 9q36 90 96 90q23 0 67 -22q46 -23 62 -23q34 0 49 45zM563 0h-69l-244 511q-27 56 -38 91h-1q-4 -35 -17 -97l-108 -505h-63l145 680h69l246 -511
q15 -31 37 -83h1q6 37 17 90l107 504h63z" />
    <glyph glyph-name="Ograve" unicode="&#xd2;" horiz-adv-x="679" 
d="M401 692q113 0 180 -71.5t67 -198.5q0 -81 -22 -157t-63.5 -138.5t-109.5 -100.5t-152 -38q-120 0 -183 74t-63 208q0 108 40 203t120.5 157t185.5 62zM310 44q65 0 119 35t86.5 90t50 118t17.5 125q0 104 -49 164t-142 60q-64 0 -117 -33.5t-86 -87t-51 -116.5t-18 -125
q0 -107 47.5 -168.5t142.5 -61.5zM488 753h-56l-142 136h96z" />
    <glyph glyph-name="Oacute" unicode="&#xd3;" horiz-adv-x="679" 
d="M401 692q113 0 180 -71.5t67 -198.5q0 -81 -22 -157t-63.5 -138.5t-109.5 -100.5t-152 -38q-120 0 -183 74t-63 208q0 108 40 203t120.5 157t185.5 62zM310 44q65 0 119 35t86.5 90t50 118t17.5 125q0 104 -49 164t-142 60q-64 0 -117 -33.5t-86 -87t-51 -116.5t-18 -125
q0 -107 47.5 -168.5t142.5 -61.5zM415 753h-56l102 136h96z" />
    <glyph glyph-name="Ocircumflex" unicode="&#xd4;" horiz-adv-x="679" 
d="M401 692q113 0 180 -71.5t67 -198.5q0 -81 -22 -157t-63.5 -138.5t-109.5 -100.5t-152 -38q-120 0 -183 74t-63 208q0 108 40 203t120.5 157t185.5 62zM310 44q65 0 119 35t86.5 90t50 118t17.5 125q0 104 -49 164t-142 60q-64 0 -117 -33.5t-86 -87t-51 -116.5t-18 -125
q0 -107 47.5 -168.5t142.5 -61.5zM441 834l-96 -81h-65l148 136h42l92 -136h-59z" />
    <glyph glyph-name="Otilde" unicode="&#xd5;" horiz-adv-x="679" 
d="M401 692q113 0 180 -71.5t67 -198.5q0 -81 -22 -157t-63.5 -138.5t-109.5 -100.5t-152 -38q-120 0 -183 74t-63 208q0 108 40 203t120.5 157t185.5 62zM310 44q65 0 119 35t86.5 90t50 118t17.5 125q0 104 -49 164t-142 60q-64 0 -117 -33.5t-86 -87t-51 -116.5t-18 -125
q0 -107 47.5 -168.5t142.5 -61.5zM558 867l41 -10q-10 -21 -16 -32t-18 -27t-27 -23.5t-33 -7.5q-27 0 -77 26q-44 22 -55 22q-33 0 -47 -47l-42 9q36 90 96 90q23 0 67 -22q46 -23 62 -23q34 0 49 45z" />
    <glyph glyph-name="Odieresis" unicode="&#xd6;" horiz-adv-x="679" 
d="M401 692q113 0 180 -71.5t67 -198.5q0 -81 -22 -157t-63.5 -138.5t-109.5 -100.5t-152 -38q-120 0 -183 74t-63 208q0 108 40 203t120.5 157t185.5 62zM310 44q65 0 119 35t86.5 90t50 118t17.5 125q0 104 -49 164t-142 60q-64 0 -117 -33.5t-86 -87t-51 -116.5t-18 -125
q0 -107 47.5 -168.5t142.5 -61.5zM287 768l19 91h62l-19 -91h-62zM474 768l19 91h62l-19 -91h-62z" />
    <glyph glyph-name="multiply" unicode="&#xd7;" horiz-adv-x="690" 
d="M617 522l-228 -228l228 -228l-40 -40l-228 228l-228 -228l-40 40l228 228l-228 228l40 40l228 -228l228 228z" />
    <glyph glyph-name="Oslash" unicode="&#xd8;" horiz-adv-x="691" 
d="M409 692q126 0 193 -87l123 111l38 -43l-132 -119q25 -58 25 -132q0 -81 -22 -157t-63.5 -138.5t-109.5 -100.5t-152 -38q-137 0 -199 95l-116 -105l-39 43l128 116q-20 58 -20 133q0 108 40 203t120.5 157t185.5 62zM318 44q65 0 119 35t86.5 90t50 118t17.5 125
q0 54 -13 94l-418 -378q48 -84 158 -84zM128 274q0 -49 9 -88l416 375q-49 75 -153 75q-64 0 -117 -33.5t-86 -87t-51 -116.5t-18 -125z" />
    <glyph glyph-name="Ugrave" unicode="&#xd9;" horiz-adv-x="669" 
d="M291 -13q-112 0 -170 52t-58 145q0 31 12 91l87 405h62l-85 -401q-13 -61 -13 -90q0 -146 172 -146q96 0 149 49q49 46 74 155l92 433h62l-90 -425q-32 -146 -94 -204q-67 -64 -200 -64zM474 753h-56l-142 136h96z" />
    <glyph glyph-name="Uacute" unicode="&#xda;" horiz-adv-x="669" 
d="M291 -13q-112 0 -170 52t-58 145q0 31 12 91l87 405h62l-85 -401q-13 -61 -13 -90q0 -146 172 -146q96 0 149 49q49 46 74 155l92 433h62l-90 -425q-32 -146 -94 -204q-67 -64 -200 -64zM417 753h-56l102 136h96z" />
    <glyph glyph-name="Ucircumflex" unicode="&#xdb;" horiz-adv-x="669" 
d="M291 -13q-112 0 -170 52t-58 145q0 31 12 91l87 405h62l-85 -401q-13 -61 -13 -90q0 -146 172 -146q96 0 149 49q49 46 74 155l92 433h62l-90 -425q-32 -146 -94 -204q-67 -64 -200 -64zM450 834l-96 -81h-65l148 136h42l92 -136h-59z" />
    <glyph glyph-name="Udieresis" unicode="&#xdc;" horiz-adv-x="669" 
d="M291 -13q-112 0 -170 52t-58 145q0 31 12 91l87 405h62l-85 -401q-13 -61 -13 -90q0 -146 172 -146q96 0 149 49q49 46 74 155l92 433h62l-90 -425q-32 -146 -94 -204q-67 -64 -200 -64zM313 768l19 91h62l-19 -91h-62zM500 768l19 91h62l-19 -91h-62z" />
    <glyph glyph-name="Yacute" unicode="&#xdd;" horiz-adv-x="568" 
d="M250 0h-63l60 280l-161 400h67l138 -338l283 338h76l-340 -400zM363 753h-56l102 136h96z" />
    <glyph glyph-name="Thorn" unicode="&#xde;" horiz-adv-x="613" 
d="M86 0h-62l144 680h63l-22 -100h176q101 0 151 -28q72 -40 72 -128q0 -65 -27.5 -116t-77.5 -79q-55 -29 -166 -29h-208zM141 256h202q99 0 141 29q63 43 63 134q0 71 -68 95q-32 11 -98 11h-183z" />
    <glyph glyph-name="germandbls" unicode="&#xdf;" horiz-adv-x="472" 
d="M331 410v-1q18 -4 30.5 -10t27.5 -19t23 -36.5t8 -57.5q0 -35 -11 -88q-25 -114 -66.5 -159.5t-111.5 -45.5q-108 0 -108 106q0 31 8 66l6 26h46l-5 -25q-8 -36 -8 -58q0 -69 63 -69q48 0 74 39.5t44 120.5q10 44 10 81q0 58 -30.5 79t-102.5 21h-51l9 48h39q85 0 126 34
q42 34 42 100q0 36 -24 58t-70 22q-48 0 -75 -26q-33 -31 -52 -127l-104 -489h-59l107 501q14 63 29.5 98.5t44.5 59.5q44 36 113 36q68 0 109 -32.5t41 -92.5q0 -63 -32 -107t-90 -53z" />
    <glyph glyph-name="agrave" unicode="&#xe0;" horiz-adv-x="481" 
d="M320 158l21 96q-10 -6 -78 -19l-50 -9q-68 -12 -105 -34t-37 -71q0 -83 97 -83q55 0 97 29.5t55 90.5zM117 329l-54 13q8 74 64.5 109.5t134.5 35.5q156 0 156 -118q0 -23 -7 -55l-46 -216q-4 -19 -4 -30q0 -28 30 -28q22 0 38 10l-10 -47q-18 -10 -49 -10q-65 0 -65 51
q0 10 3 22l-1 1q-45 -79 -154 -79q-63 0 -102 33.5t-39 93.5q0 72 49 107t147 51l111 19q20 4 27.5 10.5t10.5 21.5q5 23 5 38q0 76 -107 76q-64 0 -98 -30t-40 -79zM158 680h94l94 -128h-56z" />
    <glyph glyph-name="aacute" unicode="&#xe1;" horiz-adv-x="481" 
d="M320 158l21 96q-10 -6 -78 -19l-50 -9q-68 -12 -105 -34t-37 -71q0 -83 97 -83q55 0 97 29.5t55 90.5zM117 329l-54 13q8 74 64.5 109.5t134.5 35.5q156 0 156 -118q0 -23 -7 -55l-46 -216q-4 -19 -4 -30q0 -28 30 -28q22 0 38 10l-10 -47q-18 -10 -49 -10q-65 0 -65 51
q0 10 3 22l-1 1q-45 -79 -154 -79q-63 0 -102 33.5t-39 93.5q0 72 49 107t147 51l111 19q20 4 27.5 10.5t10.5 21.5q5 23 5 38q0 76 -107 76q-64 0 -98 -30t-40 -79zM329 680h94l-132 -128h-56z" />
    <glyph glyph-name="acircumflex" unicode="&#xe2;" horiz-adv-x="481" 
d="M320 158l21 96q-10 -6 -78 -19l-50 -9q-68 -12 -105 -34t-37 -71q0 -83 97 -83q55 0 97 29.5t55 90.5zM117 329l-54 13q8 74 64.5 109.5t134.5 35.5q156 0 156 -118q0 -23 -7 -55l-46 -216q-4 -19 -4 -30q0 -28 30 -28q22 0 38 10l-10 -47q-18 -10 -49 -10q-65 0 -65 51
q0 10 3 22l-1 1q-45 -79 -154 -79q-63 0 -102 33.5t-39 93.5q0 72 49 107t147 51l111 19q20 4 27.5 10.5t10.5 21.5q5 23 5 38q0 76 -107 76q-64 0 -98 -30t-40 -79zM226 552h-67l140 128h42l86 -128h-59l-54 77z" />
    <glyph glyph-name="atilde" unicode="&#xe3;" horiz-adv-x="481" 
d="M320 158l21 96q-10 -6 -78 -19l-50 -9q-68 -12 -105 -34t-37 -71q0 -83 97 -83q55 0 97 29.5t55 90.5zM117 329l-54 13q8 74 64.5 109.5t134.5 35.5q156 0 156 -118q0 -23 -7 -55l-46 -216q-4 -19 -4 -30q0 -28 30 -28q22 0 38 10l-10 -47q-18 -10 -49 -10q-65 0 -65 51
q0 10 3 22l-1 1q-45 -79 -154 -79q-63 0 -102 33.5t-39 93.5q0 72 49 107t147 51l111 19q20 4 27.5 10.5t10.5 21.5q5 23 5 38q0 76 -107 76q-64 0 -98 -30t-40 -79zM408 666l41 -10q-10 -21 -16 -32t-18 -27t-27 -23.5t-33 -7.5q-27 0 -77 26q-44 22 -55 22q-33 0 -47 -47
l-42 9q36 90 96 90q23 0 67 -22q46 -23 62 -23q34 0 49 45z" />
    <glyph glyph-name="adieresis" unicode="&#xe4;" horiz-adv-x="481" 
d="M320 158l21 96q-10 -6 -78 -19l-50 -9q-68 -12 -105 -34t-37 -71q0 -83 97 -83q55 0 97 29.5t55 90.5zM117 329l-54 13q8 74 64.5 109.5t134.5 35.5q156 0 156 -118q0 -23 -7 -55l-46 -216q-4 -19 -4 -30q0 -28 30 -28q22 0 38 10l-10 -47q-18 -10 -49 -10q-65 0 -65 51
q0 10 3 22l-1 1q-45 -79 -154 -79q-63 0 -102 33.5t-39 93.5q0 72 49 107t147 51l111 19q20 4 27.5 10.5t10.5 21.5q5 23 5 38q0 76 -107 76q-64 0 -98 -30t-40 -79zM159 566l20 91h62l-20 -91h-62zM346 566l20 91h62l-20 -91h-62z" />
    <glyph glyph-name="aring" unicode="&#xe5;" horiz-adv-x="481" 
d="M320 158l21 96q-10 -6 -78 -19l-50 -9q-68 -12 -105 -34t-37 -71q0 -83 97 -83q55 0 97 29.5t55 90.5zM117 329l-54 13q8 74 64.5 109.5t134.5 35.5q156 0 156 -118q0 -23 -7 -55l-46 -216q-4 -19 -4 -30q0 -28 30 -28q22 0 38 10l-10 -47q-18 -10 -49 -10q-65 0 -65 51
q0 10 3 22l-1 1q-45 -79 -154 -79q-63 0 -102 33.5t-39 93.5q0 72 49 107t147 51l111 19q20 4 27.5 10.5t10.5 21.5q5 23 5 38q0 76 -107 76q-64 0 -98 -30t-40 -79zM216 618q0 34 24 57.5t58 23.5t58 -23.5t24 -57.5t-24 -57.5t-58 -23.5t-58 23.5t-24 57.5zM254 618
q0 -18 13 -30.5t30 -12.5t30 12.5t13 30.5t-13 30.5t-30 12.5t-30 -12.5t-13 -30.5z" />
    <glyph glyph-name="ae" unicode="&#xe6;" horiz-adv-x="798" 
d="M743 234h-353q-3 -21 -3 -43q0 -66 32 -108.5t102 -42.5q104 0 167 110l45 -31q-73 -131 -217 -131q-133 0 -172 103q-67 -103 -187 -103q-66 0 -105.5 33.5t-39.5 93.5q0 72 49 107t147 51l111 19q20 4 27.5 10.5t10.5 21.5q5 23 5 38q0 76 -107 76q-64 0 -98 -30
t-40 -79l-54 13q8 74 64.5 109.5t134.5 35.5q121 0 148 -73q73 73 168 73q87 0 130 -52t43 -132q0 -35 -8 -69zM320 158l21 96q-10 -6 -78 -19l-50 -9q-68 -12 -105 -34t-37 -71q0 -83 97 -83q55 0 97 29.5t55 90.5zM572 437q-63 0 -109 -47t-62 -108h287q2 18 2 29
q0 54 -28 90t-90 36z" />
    <glyph glyph-name="ccedilla" unicode="&#xe7;" horiz-adv-x="481" 
d="M455 351l-53 -28q-27 113 -130 113q-57 0 -100 -39t-62.5 -93t-19.5 -111q0 -72 32.5 -112.5t95.5 -40.5q102 0 157 111l46 -31q-68 -128 -199 -132l-29 -33q4 1 13 1q30 0 49.5 -17t19.5 -46q0 -39 -31 -62.5t-77 -23.5q-25 0 -51 9l15 28q14 -5 31 -5q27 0 45 11.5
t18 34.5q0 37 -48 37q-15 0 -31 -7l-9 23l47 52q-75 9 -114.5 60t-39.5 135q0 122 67.5 212t180.5 90q69 0 115.5 -36.5t61.5 -99.5z" />
    <glyph glyph-name="egrave" unicode="&#xe8;" 
d="M446 234h-353q-3 -21 -3 -43q0 -66 32 -108.5t102 -42.5q104 0 167 110l45 -31q-73 -131 -217 -131q-93 0 -141 52.5t-48 153.5q0 119 71.5 206t179.5 87q87 0 130 -52t43 -132q0 -35 -8 -69zM275 437q-63 0 -109 -47t-62 -108h287q2 18 2 29q0 54 -28 90t-90 36z
M177 680h94l94 -128h-56z" />
    <glyph glyph-name="eacute" unicode="&#xe9;" 
d="M446 234h-353q-3 -21 -3 -43q0 -66 32 -108.5t102 -42.5q104 0 167 110l45 -31q-73 -131 -217 -131q-93 0 -141 52.5t-48 153.5q0 119 71.5 206t179.5 87q87 0 130 -52t43 -132q0 -35 -8 -69zM275 437q-63 0 -109 -47t-62 -108h287q2 18 2 29q0 54 -28 90t-90 36z
M341 680h94l-132 -128h-56z" />
    <glyph glyph-name="ecircumflex" unicode="&#xea;" 
d="M446 234h-353q-3 -21 -3 -43q0 -66 32 -108.5t102 -42.5q104 0 167 110l45 -31q-73 -131 -217 -131q-93 0 -141 52.5t-48 153.5q0 119 71.5 206t179.5 87q87 0 130 -52t43 -132q0 -35 -8 -69zM275 437q-63 0 -109 -47t-62 -108h287q2 18 2 29q0 54 -28 90t-90 36z
M224 552h-67l140 128h42l86 -128h-59l-54 77z" />
    <glyph glyph-name="edieresis" unicode="&#xeb;" 
d="M446 234h-353q-3 -21 -3 -43q0 -66 32 -108.5t102 -42.5q104 0 167 110l45 -31q-73 -131 -217 -131q-93 0 -141 52.5t-48 153.5q0 119 71.5 206t179.5 87q87 0 130 -52t43 -132q0 -35 -8 -69zM275 437q-63 0 -109 -47t-62 -108h287q2 18 2 29q0 54 -28 90t-90 36z
M169 566l20 91h62l-20 -91h-62zM356 566l20 91h62l-20 -91h-62z" />
    <glyph glyph-name="igrave" unicode="&#xec;" horiz-adv-x="197" 
d="M169 475l-101 -475h-59l101 475h59zM-2 680h94l94 -128h-56z" />
    <glyph glyph-name="iacute" unicode="&#xed;" horiz-adv-x="197" 
d="M169 475l-101 -475h-59l101 475h59zM206 680h94l-132 -128h-56z" />
    <glyph glyph-name="icircumflex" unicode="&#xee;" horiz-adv-x="197" 
d="M169 475l-101 -475h-59l101 475h59zM86 552h-67l140 128h42l86 -128h-59l-54 77z" />
    <glyph glyph-name="idieresis" unicode="&#xef;" horiz-adv-x="197" 
d="M169 475l-101 -475h-59l101 475h59zM34 566l20 91h62l-20 -91h-62zM221 566l20 91h62l-20 -91h-62z" />
    <glyph glyph-name="eth" unicode="&#xf0;" horiz-adv-x="517" 
d="M208 550l155 46q-26 48 -52 78l50 27q35 -43 58 -90l111 34l10 -40l-103 -32q36 -98 36 -209q0 -72 -15 -136.5t-45 -119.5t-83 -87.5t-122 -32.5q-83 0 -131 51.5t-48 140.5q0 116 66.5 205.5t175.5 89.5q55 0 94 -29t54 -77q-2 108 -39 190l-162 -48zM270 425
q-56 0 -99 -37t-62.5 -90.5t-19.5 -110.5q0 -71 33 -109.5t92 -38.5q85 0 134 74t49 165q0 69 -34 108t-93 39z" />
    <glyph glyph-name="ntilde" unicode="&#xf1;" 
d="M436 278l-59 -278h-59l54 255q14 62 14 96q0 81 -92 81q-65 0 -111 -50.5t-59 -115.5l-56 -266h-59l101 476h59l-17 -79q19 37 65 63.5t98 26.5q63 0 97.5 -34t34.5 -93q0 -33 -11 -82zM438 666l41 -10q-10 -21 -16 -32t-18 -27t-27 -23.5t-33 -7.5q-27 0 -77 26
q-44 22 -55 22q-33 0 -47 -47l-42 9q36 90 96 90q23 0 67 -22q46 -23 62 -23q34 0 49 45z" />
    <glyph glyph-name="ograve" unicode="&#xf2;" horiz-adv-x="517" 
d="M29 185q0 77 28 144.5t88 112.5t139 45q86 0 135 -53t49 -145q0 -120 -68 -210.5t-187 -90.5q-86 0 -135 52.5t-49 144.5zM277 437q-86 0 -136.5 -75.5t-50.5 -169.5q0 -72 34.5 -112.5t94.5 -40.5q87 0 137.5 76.5t50.5 170.5q0 72 -34.5 111.5t-95.5 39.5zM188 680h94
l94 -128h-56z" />
    <glyph glyph-name="oacute" unicode="&#xf3;" horiz-adv-x="517" 
d="M29 185q0 77 28 144.5t88 112.5t139 45q86 0 135 -53t49 -145q0 -120 -68 -210.5t-187 -90.5q-86 0 -135 52.5t-49 144.5zM277 437q-86 0 -136.5 -75.5t-50.5 -169.5q0 -72 34.5 -112.5t94.5 -40.5q87 0 137.5 76.5t50.5 170.5q0 72 -34.5 111.5t-95.5 39.5zM344 680h94
l-132 -128h-56z" />
    <glyph glyph-name="ocircumflex" unicode="&#xf4;" horiz-adv-x="517" 
d="M29 185q0 77 28 144.5t88 112.5t139 45q86 0 135 -53t49 -145q0 -120 -68 -210.5t-187 -90.5q-86 0 -135 52.5t-49 144.5zM277 437q-86 0 -136.5 -75.5t-50.5 -169.5q0 -72 34.5 -112.5t94.5 -40.5q87 0 137.5 76.5t50.5 170.5q0 72 -34.5 111.5t-95.5 39.5zM244 552h-67
l140 128h42l86 -128h-59l-54 77z" />
    <glyph glyph-name="otilde" unicode="&#xf5;" horiz-adv-x="517" 
d="M29 185q0 77 28 144.5t88 112.5t139 45q86 0 135 -53t49 -145q0 -120 -68 -210.5t-187 -90.5q-86 0 -135 52.5t-49 144.5zM277 437q-86 0 -136.5 -75.5t-50.5 -169.5q0 -72 34.5 -112.5t94.5 -40.5q87 0 137.5 76.5t50.5 170.5q0 72 -34.5 111.5t-95.5 39.5zM441 666
l41 -10q-10 -21 -16 -32t-18 -27t-27 -23.5t-33 -7.5q-27 0 -77 26q-44 22 -55 22q-33 0 -47 -47l-42 9q36 90 96 90q23 0 67 -22q46 -23 62 -23q34 0 49 45z" />
    <glyph glyph-name="odieresis" unicode="&#xf6;" horiz-adv-x="517" 
d="M29 185q0 77 28 144.5t88 112.5t139 45q86 0 135 -53t49 -145q0 -120 -68 -210.5t-187 -90.5q-86 0 -135 52.5t-49 144.5zM277 437q-86 0 -136.5 -75.5t-50.5 -169.5q0 -72 34.5 -112.5t94.5 -40.5q87 0 137.5 76.5t50.5 170.5q0 72 -34.5 111.5t-95.5 39.5zM181 566
l20 91h62l-20 -91h-62zM368 566l20 91h62l-20 -91h-62z" />
    <glyph glyph-name="divide" unicode="&#xf7;" horiz-adv-x="799" 
d="M727 267v-57h-673v57h673zM351 476h78v-100h-78v100zM351 101h78v-101h-78v101z" />
    <glyph glyph-name="oslash" unicode="&#xf8;" horiz-adv-x="516" 
d="M284 487q84 0 133 -49l71 72l39 -35l-79 -80q21 -45 21 -98q0 -123 -67.5 -216t-187.5 -93q-79 0 -126 41l-65 -66l-35 36l68 70q-26 47 -26 116q0 122 69 212t185 90zM90 193q0 -44 12 -77l274 280q-34 40 -99 40q-85 0 -136 -76.5t-51 -166.5zM218 40q63 0 108 41
t64 95.5t19 111.5q0 30 -8 59l-271 -275q32 -32 88 -32z" />
    <glyph glyph-name="ugrave" unicode="&#xf9;" horiz-adv-x="496" 
d="M46 197l59 279h59l-54 -256q-14 -62 -14 -97q0 -80 88 -80q65 0 110.5 50.5t58.5 115.5l56 267h59l-101 -476h-59l17 78q-19 -37 -64 -63.5t-98 -26.5q-60 0 -94 33.5t-34 90.5q0 36 11 85zM173 680h94l94 -128h-56z" />
    <glyph glyph-name="uacute" unicode="&#xfa;" horiz-adv-x="496" 
d="M46 197l59 279h59l-54 -256q-14 -62 -14 -97q0 -80 88 -80q65 0 110.5 50.5t58.5 115.5l56 267h59l-101 -476h-59l17 78q-19 -37 -64 -63.5t-98 -26.5q-60 0 -94 33.5t-34 90.5q0 36 11 85zM334 680h94l-132 -128h-56z" />
    <glyph glyph-name="ucircumflex" unicode="&#xfb;" horiz-adv-x="496" 
d="M46 197l59 279h59l-54 -256q-14 -62 -14 -97q0 -80 88 -80q65 0 110.5 50.5t58.5 115.5l56 267h59l-101 -476h-59l17 78q-19 -37 -64 -63.5t-98 -26.5q-60 0 -94 33.5t-34 90.5q0 36 11 85zM229 552h-67l140 128h42l86 -128h-59l-54 77z" />
    <glyph glyph-name="udieresis" unicode="&#xfc;" horiz-adv-x="496" 
d="M46 197l59 279h59l-54 -256q-14 -62 -14 -97q0 -80 88 -80q65 0 110.5 50.5t58.5 115.5l56 267h59l-101 -476h-59l17 78q-19 -37 -64 -63.5t-98 -26.5q-60 0 -94 33.5t-34 90.5q0 36 11 85zM177 566l20 91h62l-20 -91h-62zM364 566l20 91h62l-20 -91h-62z" />
    <glyph glyph-name="yacute" unicode="&#xfd;" horiz-adv-x="445" 
d="M120 476l44 -317l12 -83h1q17 32 50 86l187 314h63l-327 -540q-41 -69 -59 -91q-38 -47 -96 -47q-34 0 -61 18l11 56q26 -21 55 -21t47 21q14 16 38 56l43 74l-69 474h61zM326 680h94l-132 -128h-56z" />
    <glyph glyph-name="thorn" unicode="&#xfe;" horiz-adv-x="531" 
d="M28 -190h-59l184 869h58l-60 -282h1q22 39 65 64.5t94 25.5q79 0 125.5 -50.5t46.5 -140.5q0 -126 -68 -217t-178 -91q-65 0 -102 32.5t-46 79.5zM294 436q-84 0 -132.5 -79t-48.5 -170q0 -69 31.5 -108.5t94.5 -39.5q56 0 99.5 39t64 94t20.5 112q0 71 -32 111.5
t-97 40.5z" />
    <glyph glyph-name="ydieresis" unicode="&#xff;" horiz-adv-x="445" 
d="M120 476l44 -317l12 -83h1q17 32 50 86l187 314h63l-327 -540q-41 -69 -59 -91q-38 -47 -96 -47q-34 0 -61 18l11 56q26 -21 55 -21t47 21q14 16 38 56l43 74l-69 474h61zM154 566l20 91h62l-20 -91h-62zM341 566l20 91h62l-20 -91h-62z" />
    <glyph glyph-name="Amacron" unicode="&#x100;" horiz-adv-x="599" 
d="M140 205l-120 -205h-69l403 680h64l115 -680h-65l-33 205h-295zM426 260l-40 255q-6 37 -14 95h-1q-31 -60 -45 -84l-155 -266h255zM272 778l11 53h271l-11 -53h-271z" />
    <glyph glyph-name="amacron" unicode="&#x101;" horiz-adv-x="481" 
d="M320 158l21 96q-10 -6 -78 -19l-50 -9q-68 -12 -105 -34t-37 -71q0 -83 97 -83q55 0 97 29.5t55 90.5zM117 329l-54 13q8 74 64.5 109.5t134.5 35.5q156 0 156 -118q0 -23 -7 -55l-46 -216q-4 -19 -4 -30q0 -28 30 -28q22 0 38 10l-10 -47q-18 -10 -49 -10q-65 0 -65 51
q0 10 3 22l-1 1q-45 -79 -154 -79q-63 0 -102 33.5t-39 93.5q0 72 49 107t147 51l111 19q20 4 27.5 10.5t10.5 21.5q5 23 5 38q0 76 -107 76q-64 0 -98 -30t-40 -79zM147 579l11 53h271l-11 -53h-271z" />
    <glyph glyph-name="Abreve" unicode="&#x102;" horiz-adv-x="599" 
d="M140 205l-120 -205h-69l403 680h64l115 -680h-65l-33 205h-295zM426 260l-40 255q-6 37 -14 95h-1q-31 -60 -45 -84l-155 -266h255zM413 783q70 0 100 67h48q-19 -54 -59 -83t-94 -29q-57 0 -88 29.5t-27 82.5h48q2 -67 72 -67z" />
    <glyph glyph-name="abreve" unicode="&#x103;" horiz-adv-x="481" 
d="M320 158l21 96q-10 -6 -78 -19l-50 -9q-68 -12 -105 -34t-37 -71q0 -83 97 -83q55 0 97 29.5t55 90.5zM117 329l-54 13q8 74 64.5 109.5t134.5 35.5q156 0 156 -118q0 -23 -7 -55l-46 -216q-4 -19 -4 -30q0 -28 30 -28q22 0 38 10l-10 -47q-18 -10 -49 -10q-65 0 -65 51
q0 10 3 22l-1 1q-45 -79 -154 -79q-63 0 -102 33.5t-39 93.5q0 72 49 107t147 51l111 19q20 4 27.5 10.5t10.5 21.5q5 23 5 38q0 76 -107 76q-64 0 -98 -30t-40 -79zM290 582q70 0 100 67h48q-19 -54 -59 -83t-94 -29q-57 0 -88 29.5t-27 82.5h48q2 -67 72 -67z" />
    <glyph glyph-name="Aogonek" unicode="&#x104;" horiz-adv-x="599" 
d="M490 -174l18 -41q-22 -6 -46 -6q-45 0 -71.5 24.5t-26.5 66.5q0 69 104 130l-33 205h-295l-120 -205h-69l403 680h64l115 -680h-8q-111 -67 -111 -126q0 -51 54 -51q11 0 22 3zM426 260l-40 255q-6 37 -14 95h-1q-31 -60 -45 -84l-155 -266h255z" />
    <glyph glyph-name="aogonek" unicode="&#x105;" horiz-adv-x="481" 
d="M377 -174l18 -41q-22 -6 -46 -6q-45 0 -71.5 24.5t-26.5 66.5q0 67 96 125q-42 10 -42 49q0 10 3 22l-1 1q-45 -79 -154 -79q-63 0 -102 33.5t-39 93.5q0 72 49 107t147 51l111 19q20 4 27.5 10.5t10.5 21.5q5 23 5 38q0 76 -107 76q-64 0 -98 -30t-40 -79l-54 13
q8 74 64.5 109.5t134.5 35.5q156 0 156 -118q0 -23 -7 -55l-46 -216q-4 -19 -4 -30q0 -28 30 -28q22 0 38 10l-10 -47q-3 -3 -8 -3q-110 -70 -110 -126q0 -51 54 -51q11 0 22 3zM320 158l21 96q-10 -6 -78 -19l-50 -9q-68 -12 -105 -34t-37 -71q0 -83 97 -83q55 0 97 29.5
t55 90.5z" />
    <glyph glyph-name="Cacute" unicode="&#x106;" horiz-adv-x="627" 
d="M414 753h-56l102 136h96zM629 522l-57 -36q-32 150 -182 150q-86 0 -149.5 -58t-92 -138.5t-28.5 -165.5q0 -107 48 -168.5t143 -61.5q72 0 128 41t92 110l48 -36q-96 -171 -277 -171q-120 0 -183 73t-63 209q0 108 39.5 203t118.5 157t182 62q89 0 149.5 -44t83.5 -126z
" />
    <glyph glyph-name="cacute" unicode="&#x107;" horiz-adv-x="481" 
d="M455 351l-53 -28q-27 113 -130 113q-57 0 -100 -39t-62.5 -93t-19.5 -111q0 -72 32.5 -112.5t95.5 -40.5q102 0 157 111l46 -31q-70 -132 -207 -132q-90 0 -137 52.5t-47 144.5q0 122 67.5 212t180.5 90q69 0 115.5 -36.5t61.5 -99.5zM345 680h94l-132 -128h-56z" />
    <glyph glyph-name="Ccircumflex" unicode="&#x108;" horiz-adv-x="627" 
d="M439 834l-96 -81h-65l148 136h42l92 -136h-59zM629 522l-57 -36q-32 150 -182 150q-86 0 -149.5 -58t-92 -138.5t-28.5 -165.5q0 -107 48 -168.5t143 -61.5q72 0 128 41t92 110l48 -36q-96 -171 -277 -171q-120 0 -183 73t-63 209q0 108 39.5 203t118.5 157t182 62
q89 0 149.5 -44t83.5 -126z" />
    <glyph glyph-name="ccircumflex" unicode="&#x109;" horiz-adv-x="481" 
d="M455 351l-53 -28q-27 113 -130 113q-57 0 -100 -39t-62.5 -93t-19.5 -111q0 -72 32.5 -112.5t95.5 -40.5q102 0 157 111l46 -31q-70 -132 -207 -132q-90 0 -137 52.5t-47 144.5q0 122 67.5 212t180.5 90q69 0 115.5 -36.5t61.5 -99.5zM244 552h-67l140 128h42l86 -128
h-59l-54 77z" />
    <glyph glyph-name="Cdotaccent" unicode="&#x10a;" horiz-adv-x="627" 
d="M629 522l-57 -36q-32 150 -182 150q-86 0 -149.5 -58t-92 -138.5t-28.5 -165.5q0 -107 48 -168.5t143 -61.5q72 0 128 41t92 110l48 -36q-96 -171 -277 -171q-120 0 -183 73t-63 209q0 108 39.5 203t118.5 157t182 62q89 0 149.5 -44t83.5 -126zM386 768l20 91h62
l-20 -91h-62z" />
    <glyph glyph-name="cdotaccent" unicode="&#x10b;" horiz-adv-x="481" 
d="M455 351l-53 -28q-27 113 -130 113q-57 0 -100 -39t-62.5 -93t-19.5 -111q0 -72 32.5 -112.5t95.5 -40.5q102 0 157 111l46 -31q-70 -132 -207 -132q-90 0 -137 52.5t-47 144.5q0 122 67.5 212t180.5 90q69 0 115.5 -36.5t61.5 -99.5zM264 566l20 91h62l-20 -91h-62z" />
    <glyph glyph-name="Ccaron" unicode="&#x10c;" horiz-adv-x="627" 
d="M435 808l96 81h65l-148 -136h-42l-92 136h59zM629 522l-57 -36q-32 150 -182 150q-86 0 -149.5 -58t-92 -138.5t-28.5 -165.5q0 -107 48 -168.5t143 -61.5q72 0 128 41t92 110l48 -36q-96 -171 -277 -171q-120 0 -183 73t-63 209q0 108 39.5 203t118.5 157t182 62
q89 0 149.5 -44t83.5 -126z" />
    <glyph glyph-name="ccaron" unicode="&#x10d;" horiz-adv-x="481" 
d="M455 351l-53 -28q-27 113 -130 113q-57 0 -100 -39t-62.5 -93t-19.5 -111q0 -72 32.5 -112.5t95.5 -40.5q102 0 157 111l46 -31q-70 -132 -207 -132q-90 0 -137 52.5t-47 144.5q0 122 67.5 212t180.5 90q69 0 115.5 -36.5t61.5 -99.5zM415 680h67l-140 -128h-42l-86 128
h59l54 -77z" />
    <glyph glyph-name="Dcaron" unicode="&#x10e;" horiz-adv-x="677" 
d="M401 808l96 81h65l-148 -136h-42l-92 136h59zM231 0h-208l145 680h151q158 0 243 -57t85 -194q0 -117 -47 -223t-133 -157q-53 -31 -102.5 -40t-133.5 -9zM219 625l-121 -570h138q135 0 204 46q70 47 106.5 143t36.5 185q0 106 -75 157q-27 18 -64 27t-65.5 10.5
t-78.5 1.5h-81z" />
    <glyph glyph-name="dcaron" unicode="&#x10f;" horiz-adv-x="539" 
d="M488 680h59l-145 -680h-59l18 78h-1q-22 -39 -65 -64.5t-94 -25.5q-79 0 -125.5 50.5t-46.5 140.5q0 126 68 217t178 91q65 0 102 -32.5t46 -79.5zM218 39q58 0 101.5 41t62 96t18.5 112q0 69 -32 108.5t-95 39.5q-56 0 -99.5 -39t-64 -94t-20.5 -112q0 -71 32 -111.5
t97 -40.5zM616 552h-48l49 128h82z" />
    <glyph glyph-name="Dcroat" unicode="&#x110;" horiz-adv-x="688" 
d="M3 337l11 56h104l61 287h151q158 0 243 -57t85 -194q0 -117 -47 -223t-133 -157q-53 -31 -102.5 -40t-133.5 -9h-208l72 337h-103zM230 625l-49 -232h202l-12 -56h-202l-60 -282h138q135 0 204 46q70 47 106.5 143t36.5 185q0 106 -75 157q-27 18 -64 27t-65.5 10.5
t-78.5 1.5h-81z" />
    <glyph glyph-name="dcroat" unicode="&#x111;" horiz-adv-x="531" 
d="M218 39q58 0 101.5 41t62 96t18.5 112q0 69 -32 108.5t-95 39.5q-56 0 -99.5 -39t-64 -94t-20.5 -112q0 -71 32 -111.5t97 -40.5zM488 680h59l-15 -72h79l-12 -56h-79l-118 -552h-59l18 78h-1q-22 -39 -65 -64.5t-94 -25.5q-79 0 -125.5 50.5t-46.5 140.5q0 126 68 217
t178 91q65 0 102 -32.5t46 -79.5l38 177h-149l12 56h149z" />
    <glyph glyph-name="Emacron" unicode="&#x112;" horiz-adv-x="582" 
d="M501 55l-12 -55h-466l145 680h446l-12 -55h-383l-53 -247h347l-11 -55h-347l-58 -268h404zM260 778l11 53h271l-11 -53h-271z" />
    <glyph glyph-name="emacron" unicode="&#x113;" 
d="M446 234h-353q-3 -21 -3 -43q0 -66 32 -108.5t102 -42.5q104 0 167 110l45 -31q-73 -131 -217 -131q-93 0 -141 52.5t-48 153.5q0 119 71.5 206t179.5 87q87 0 130 -52t43 -132q0 -35 -8 -69zM275 437q-63 0 -109 -47t-62 -108h287q2 18 2 29q0 54 -28 90t-90 36z
M168 579l11 53h271l-11 -53h-271z" />
    <glyph glyph-name="Ebreve" unicode="&#x114;" horiz-adv-x="582" 
d="M501 55l-12 -55h-466l145 680h446l-12 -55h-383l-53 -247h347l-11 -55h-347l-58 -268h404zM412 783q70 0 100 67h48q-19 -54 -59 -83t-94 -29q-57 0 -88 29.5t-27 82.5h48q2 -67 72 -67z" />
    <glyph glyph-name="ebreve" unicode="&#x115;" 
d="M446 234h-353q-3 -21 -3 -43q0 -66 32 -108.5t102 -42.5q104 0 167 110l45 -31q-73 -131 -217 -131q-93 0 -141 52.5t-48 153.5q0 119 71.5 206t179.5 87q87 0 130 -52t43 -132q0 -35 -8 -69zM275 437q-63 0 -109 -47t-62 -108h287q2 18 2 29q0 54 -28 90t-90 36z
M315 582q70 0 100 67h48q-19 -54 -59 -83t-94 -29q-57 0 -88 29.5t-27 82.5h48q2 -67 72 -67z" />
    <glyph glyph-name="Edotaccent" unicode="&#x116;" horiz-adv-x="582" 
d="M501 55l-12 -55h-466l145 680h446l-12 -55h-383l-53 -247h347l-11 -55h-347l-58 -268h404zM377 768l20 91h62l-20 -91h-62z" />
    <glyph glyph-name="edotaccent" unicode="&#x117;" 
d="M446 234h-353q-3 -21 -3 -43q0 -66 32 -108.5t102 -42.5q104 0 167 110l45 -31q-73 -131 -217 -131q-93 0 -141 52.5t-48 153.5q0 119 71.5 206t179.5 87q87 0 130 -52t43 -132q0 -35 -8 -69zM275 437q-63 0 -109 -47t-62 -108h287q2 18 2 29q0 54 -28 90t-90 36z
M266 566l20 91h62l-20 -91h-62z" />
    <glyph glyph-name="Eogonek" unicode="&#x118;" horiz-adv-x="582" 
d="M448 -174l18 -41q-23 -6 -46 -6q-45 0 -71.5 24.5t-26.5 66.5q0 37 31 71.5t73 58.5h-403l145 680h446l-12 -55h-383l-53 -247h347l-11 -55h-347l-58 -268h404l-12 -55h-6q-111 -67 -111 -126q0 -51 54 -51q11 0 22 3z" />
    <glyph glyph-name="eogonek" unicode="&#x119;" 
d="M229 -174l18 -41q-23 -6 -46 -6q-45 0 -71.5 24.5t-26.5 66.5q0 65 87 119q-160 18 -160 205q0 119 71.5 206t179.5 87q87 0 130 -52t43 -132q0 -35 -8 -69h-353q-3 -21 -3 -43q0 -66 32 -108.5t102 -42.5q104 0 167 110l45 -31q-68 -118 -189 -130q-94 -62 -94 -115
q0 -51 54 -51q11 0 22 3zM275 437q-63 0 -109 -47t-62 -108h287q2 18 2 29q0 54 -28 90t-90 36z" />
    <glyph glyph-name="Ecaron" unicode="&#x11a;" horiz-adv-x="582" 
d="M411 834l-96 -81h-65l148 136h42l92 -136h-59zM501 55l-12 -55h-466l145 680h446l-12 -55h-383l-53 -247h347l-11 -55h-347l-58 -268h404z" />
    <glyph glyph-name="ecaron" unicode="&#x11b;" 
d="M446 234h-353q-3 -21 -3 -43q0 -66 32 -108.5t102 -42.5q104 0 167 110l45 -31q-73 -131 -217 -131q-93 0 -141 52.5t-48 153.5q0 119 71.5 206t179.5 87q87 0 130 -52t43 -132q0 -35 -8 -69zM275 437q-63 0 -109 -47t-62 -108h287q2 18 2 29q0 54 -28 90t-90 36z
M399 680h67l-140 -128h-42l-86 128h59l54 -77z" />
    <glyph glyph-name="Gcircumflex" unicode="&#x11c;" horiz-adv-x="662" 
d="M440 834l-96 -81h-65l148 136h42l92 -136h-59zM311 44q102 0 168 70q54 58 78 168l1 6h-243l12 56h297l-73 -344h-58l22 97l-1 1q-73 -110 -214 -110q-118 0 -181 73.5t-63 208.5q0 108 39.5 203t118.5 157t182 62q89 0 149.5 -44t83.5 -126l-57 -36q-32 150 -182 150
q-86 0 -149.5 -58t-92 -138.5t-28.5 -165.5q0 -107 48 -168.5t143 -61.5z" />
    <glyph glyph-name="gcircumflex" unicode="&#x11d;" horiz-adv-x="532" 
d="M220 46q58 0 101 39.5t61.5 92.5t18.5 110q0 69 -32 108.5t-95 39.5q-83 0 -133 -73t-50 -163q0 -71 32.5 -112.5t96.5 -41.5zM364 85h-1q-22 -39 -65.5 -64.5t-94.5 -25.5q-79 0 -125.5 51.5t-46.5 141.5q0 123 67.5 211t174.5 88q65 0 104 -33t47 -79l21 101h59
l-92 -439q-26 -123 -69 -173q-54 -62 -167 -62q-93 0 -136.5 42t-43.5 101q0 13 1 20l58 18q-1 -8 -1 -22q0 -109 126 -109q37 0 64.5 10.5t44 24.5t30 42t19.5 49t15 59zM244 552h-67l140 128h42l86 -128h-59l-54 77z" />
    <glyph glyph-name="Gbreve" unicode="&#x11e;" horiz-adv-x="662" 
d="M311 44q102 0 168 70q54 58 78 168l1 6h-243l12 56h297l-73 -344h-58l22 97l-1 1q-73 -110 -214 -110q-118 0 -181 73.5t-63 208.5q0 108 39.5 203t118.5 157t182 62q89 0 149.5 -44t83.5 -126l-57 -36q-32 150 -182 150q-86 0 -149.5 -58t-92 -138.5t-28.5 -165.5
q0 -107 48 -168.5t143 -61.5zM426 783q70 0 100 67h48q-19 -54 -59 -83t-94 -29q-57 0 -88 29.5t-27 82.5h48q2 -67 72 -67z" />
    <glyph glyph-name="gbreve" unicode="&#x11f;" horiz-adv-x="532" 
d="M220 46q58 0 101 39.5t61.5 92.5t18.5 110q0 69 -32 108.5t-95 39.5q-83 0 -133 -73t-50 -163q0 -71 32.5 -112.5t96.5 -41.5zM364 85h-1q-22 -39 -65.5 -64.5t-94.5 -25.5q-79 0 -125.5 51.5t-46.5 141.5q0 123 67.5 211t174.5 88q65 0 104 -33t47 -79l21 101h59
l-92 -439q-26 -123 -69 -173q-54 -62 -167 -62q-93 0 -136.5 42t-43.5 101q0 13 1 20l58 18q-1 -8 -1 -22q0 -109 126 -109q37 0 64.5 10.5t44 24.5t30 42t19.5 49t15 59zM313 582q70 0 100 67h48q-19 -54 -59 -83t-94 -29q-57 0 -88 29.5t-27 82.5h48q2 -67 72 -67z" />
    <glyph glyph-name="Gdotaccent" unicode="&#x120;" horiz-adv-x="662" 
d="M311 44q102 0 168 70q54 58 78 168l1 6h-243l12 56h297l-73 -344h-58l22 97l-1 1q-73 -110 -214 -110q-118 0 -181 73.5t-63 208.5q0 108 39.5 203t118.5 157t182 62q89 0 149.5 -44t83.5 -126l-57 -36q-32 150 -182 150q-86 0 -149.5 -58t-92 -138.5t-28.5 -165.5
q0 -107 48 -168.5t143 -61.5zM385 768l20 91h62l-20 -91h-62z" />
    <glyph glyph-name="gdotaccent" unicode="&#x121;" horiz-adv-x="532" 
d="M220 46q58 0 101 39.5t61.5 92.5t18.5 110q0 69 -32 108.5t-95 39.5q-83 0 -133 -73t-50 -163q0 -71 32.5 -112.5t96.5 -41.5zM364 85h-1q-22 -39 -65.5 -64.5t-94.5 -25.5q-79 0 -125.5 51.5t-46.5 141.5q0 123 67.5 211t174.5 88q65 0 104 -33t47 -79l21 101h59
l-92 -439q-26 -123 -69 -173q-54 -62 -167 -62q-93 0 -136.5 42t-43.5 101q0 13 1 20l58 18q-1 -8 -1 -22q0 -109 126 -109q37 0 64.5 10.5t44 24.5t30 42t19.5 49t15 59zM263 566l20 91h62l-20 -91h-62z" />
    <glyph glyph-name="Gcommaaccent" unicode="&#x122;" horiz-adv-x="662" 
d="M311 44q102 0 168 70q54 58 78 168l1 6h-243l12 56h297l-73 -344h-58l22 97l-1 1q-73 -110 -214 -110q-118 0 -181 73.5t-63 208.5q0 108 39.5 203t118.5 157t182 62q89 0 149.5 -44t83.5 -126l-57 -36q-32 150 -182 150q-86 0 -149.5 -58t-92 -138.5t-28.5 -165.5
q0 -107 48 -168.5t143 -61.5zM192 -278l7 35q33 9 45 25.5t21 58.5h-42l21 94h77l-24 -110q-11 -49 -34.5 -72t-70.5 -31z" />
    <glyph glyph-name="gcommaaccent" unicode="&#x123;" horiz-adv-x="532" 
d="M220 46q58 0 101 39.5t61.5 92.5t18.5 110q0 69 -32 108.5t-95 39.5q-83 0 -133 -73t-50 -163q0 -71 32.5 -112.5t96.5 -41.5zM364 85h-1q-22 -39 -65.5 -64.5t-94.5 -25.5q-79 0 -125.5 51.5t-46.5 141.5q0 123 67.5 211t174.5 88q65 0 104 -33t47 -79l21 101h59
l-92 -439q-26 -123 -69 -173q-54 -62 -167 -62q-93 0 -136.5 42t-43.5 101q0 13 1 20l58 18q-1 -8 -1 -22q0 -109 126 -109q37 0 64.5 10.5t44 24.5t30 42t19.5 49t15 59zM384 799l-7 -35q-33 -9 -45 -25.5t-21 -58.5h42l-21 -94h-77l24 110q11 49 34.5 72t70.5 31z" />
    <glyph glyph-name="Hcircumflex" unicode="&#x124;" horiz-adv-x="693" 
d="M449 834l-96 -81h-65l148 136h42l92 -136h-59zM694 680l-144 -680h-63l69 322h-401l-69 -322h-63l145 680h63l-64 -301h401l64 301h62z" />
    <glyph glyph-name="hcircumflex" unicode="&#x125;" 
d="M360 834l-96 -81h-65l148 136h42l92 -136h-59zM153 680h58l-59 -283q19 37 65 63.5t98 26.5q63 0 97.5 -34t34.5 -93q0 -33 -11 -82l-59 -278h-59l54 255q14 62 14 96q0 81 -92 81q-65 0 -111 -50.5t-59 -115.5l-56 -266h-59z" />
    <glyph glyph-name="Hbar" unicode="&#x126;" horiz-adv-x="693" 
d="M694 680l-144 -680h-63l69 322h-401l-69 -322h-63l145 680h63l-34 -158h401l34 158h62zM167 379h401l19 90h-401z" />
    <glyph glyph-name="hbar" unicode="&#x127;" 
d="M153 680h58l-16 -75h165l-11 -53h-165l-32 -154q19 37 65 63.5t98 26.5q63 0 97.5 -34t34.5 -93q0 -33 -11 -82l-59 -279h-59l54 256q14 62 14 96q0 81 -92 81q-65 0 -111 -50.5t-59 -115.5l-56 -267h-59l117 552h-80l11 53h80z" />
    <glyph glyph-name="Itilde" unicode="&#x128;" horiz-adv-x="230" 
d="M168 680h63l-145 -680h-63zM347 868l41 -10q-10 -21 -16 -32t-18 -27t-27 -23.5t-33 -7.5q-27 0 -77 26q-44 22 -55 22q-33 0 -47 -47l-42 9q36 90 96 90q23 0 67 -22q46 -23 62 -23q34 0 49 45z" />
    <glyph glyph-name="itilde" unicode="&#x129;" horiz-adv-x="197" 
d="M169 476l-101 -476h-59l101 476h59zM285 666l41 -10q-10 -21 -16 -32t-18 -27t-27 -23.5t-33 -7.5q-27 0 -77 26q-44 22 -55 22q-33 0 -47 -47l-42 9q36 90 96 90q23 0 67 -22q46 -23 62 -23q34 0 49 45z" />
    <glyph glyph-name="Imacron" unicode="&#x12a;" horiz-adv-x="230" 
d="M168 680h63l-145 -680h-63zM86 778l11 53h271l-11 -53h-271z" />
    <glyph glyph-name="imacron" unicode="&#x12b;" horiz-adv-x="197" 
d="M169 476l-101 -476h-59l101 476h59zM27 579l11 53h271l-11 -53h-271z" />
    <glyph glyph-name="Ibreve" unicode="&#x12c;" horiz-adv-x="230" 
d="M168 680h63l-145 -680h-63zM231 783q70 0 100 67h48q-19 -54 -59 -83t-94 -29q-57 0 -88 29.5t-27 82.5h48q2 -67 72 -67z" />
    <glyph glyph-name="ibreve" unicode="&#x12d;" horiz-adv-x="197" 
d="M169 476l-101 -476h-59l101 476h59zM172 582q70 0 100 67h48q-19 -54 -59 -83t-94 -29q-57 0 -88 29.5t-27 82.5h48q2 -67 72 -67z" />
    <glyph glyph-name="Iogonek" unicode="&#x12e;" horiz-adv-x="230" 
d="M45 -174l18 -41q-22 -6 -46 -6q-45 0 -71.5 24.5t-26.5 66.5q0 70 104 130l145 680h63l-145 -680h-6q-111 -67 -111 -126q0 -51 54 -51q11 0 22 3z" />
    <glyph glyph-name="iogonek" unicode="&#x12f;" horiz-adv-x="197" 
d="M31 -174l18 -41q-23 -6 -46 -6q-45 0 -71.5 24.5t-26.5 66.5q0 70 104 130l101 476h59l-101 -476h-2q-111 -67 -111 -126q0 -51 54 -51q12 0 22 3zM212 680l-20 -98h-59l20 98h59z" />
    <glyph glyph-name="Idotaccent" unicode="&#x130;" horiz-adv-x="230" 
d="M168 680h63l-145 -680h-63zM186 768l20 91h62l-20 -91h-62z" />
    <glyph glyph-name="dotlessi" unicode="&#x131;" horiz-adv-x="197" 
d="M169 476l-101 -476h-59l101 476h59z" />
    <glyph glyph-name="IJ" unicode="&#x132;" horiz-adv-x="700" 
d="M168 680h63l-145 -680h-63zM643 680h62l-96 -454q-21 -101 -48 -149q-53 -92 -177 -92q-87 0 -133.5 41t-46.5 120q0 14 2 34l65 25q-5 -28 -5 -47q0 -55 30 -87.5t91 -32.5q89 0 127 82q17 36 30 100z" />
    <glyph glyph-name="ij" unicode="&#x133;" horiz-adv-x="413" 
d="M169 476l-101 -476h-59l101 476h59zM212 680l-20 -98h-59l20 98h59zM327 476h59l-104 -485q-19 -89 -28 -117t-28 -48q-28 -28 -82 -28q-43 0 -78 20l13 57q30 -23 66 -23q32 0 45 20.5t25 79.5zM430 680l-21 -98h-59l21 98h59z" />
    <glyph glyph-name="Jcircumflex" unicode="&#x134;" horiz-adv-x="486" 
d="M488 834l-96 -81h-65l148 136h42l92 -136h-59zM428 680h62l-96 -454q-21 -101 -48 -149q-53 -92 -177 -92q-87 0 -133.5 41t-46.5 120q0 14 2 34l65 25q-5 -28 -5 -47q0 -55 30 -87.5t91 -32.5q89 0 127 82q17 36 30 100z" />
    <glyph glyph-name="jcircumflex" unicode="&#x135;" horiz-adv-x="196" 
d="M110 476h59l-104 -485q-19 -89 -28 -117t-28 -48q-28 -28 -82 -28q-43 0 -78 20l13 57q30 -23 66 -23q32 0 45 20.5t25 79.5zM79 552h-67l140 128h42l86 -128h-59l-54 77z" />
    <glyph glyph-name="Kcommaaccent" unicode="&#x136;" horiz-adv-x="625" 
d="M367 406l195 -406h-73l-173 366l-182 -155l-45 -211h-65l144 680h66l-83 -384l451 384h92zM196 -278l7 35q33 9 45 25.5t21 58.5h-42l21 94h77l-24 -110q-11 -49 -34.5 -72t-70.5 -31z" />
    <glyph glyph-name="kcommaaccent" unicode="&#x137;" horiz-adv-x="488" 
d="M153 680h60l-95 -444l300 240h90l-229 -177l141 -299h-68l-121 261l-129 -100l-34 -161h-59zM119 -278l7 35q33 9 45 25.5t21 58.5h-42l21 94h77l-24 -110q-11 -49 -34.5 -72t-70.5 -31z" />
    <glyph glyph-name="kgreenlandic" unicode="&#x138;" horiz-adv-x="486" 
d="M168 475l-51 -239l200 161q43 33 60.5 45.5t44 23t54.5 10.5h7l-12 -56h-6q-13 0 -26 -4t-28.5 -14t-24.5 -17t-28 -22.5t-25 -20.5l-55 -43l141 -299h-68l-121 261l-129 -100l-34 -161h-59l101 475h59z" />
    <glyph glyph-name="Lacute" unicode="&#x139;" horiz-adv-x="527" 
d="M234 753h-56l102 136h96zM471 55l-12 -55h-436l145 680h62l-133 -625h374z" />
    <glyph glyph-name="lacute" unicode="&#x13a;" horiz-adv-x="208" 
d="M227 753h-56l102 136h96zM159 680h59l-145 -680h-59z" />
    <glyph glyph-name="Lcommaaccent" unicode="&#x13b;" horiz-adv-x="527" 
d="M471 55l-12 -55h-436l145 680h62l-133 -625h374zM169 -278l7 35q33 9 45 25.5t21 58.5h-42l21 94h77l-24 -110q-11 -49 -34.5 -72t-70.5 -31z" />
    <glyph glyph-name="lcommaaccent" unicode="&#x13c;" horiz-adv-x="208" 
d="M159 680h59l-145 -680h-59zM-61 -278l7 35q33 9 45 25.5t21 58.5h-42l21 94h77l-24 -110q-11 -49 -34.5 -72t-70.5 -31z" />
    <glyph glyph-name="Lcaron" unicode="&#x13d;" horiz-adv-x="527" 
d="M471 55l-12 -55h-436l145 680h62l-133 -625h374zM375 553h-48l49 128h82z" />
    <glyph glyph-name="lcaron" unicode="&#x13e;" horiz-adv-x="215" 
d="M159 680h59l-145 -680h-59zM290 552h-48l49 128h82z" />
    <glyph glyph-name="Ldot" unicode="&#x13f;" horiz-adv-x="527" 
d="M471 55l-12 -55h-436l145 680h62l-133 -625h374zM289 476h78l-25 -114h-78z" />
    <glyph glyph-name="ldot" unicode="&#x140;" horiz-adv-x="266" 
d="M159 680h59l-145 -680h-59zM252 476h78l-25 -114h-78z" />
    <glyph glyph-name="Lslash" unicode="&#x141;" horiz-adv-x="535" 
d="M479 55l-12 -55h-436l55 258l-102 -58l14 62l101 57l77 361h62l-68 -320l223 127l-14 -62l-222 -127l-52 -243h374z" />
    <glyph glyph-name="lslash" unicode="&#x142;" horiz-adv-x="221" 
d="M165 680h59l-54 -254l84 48l-13 -60l-84 -48l-78 -366h-59l70 327l-78 -44l12 60l79 45z" />
    <glyph glyph-name="Nacute" unicode="&#x143;" horiz-adv-x="707" 
d="M430 753h-56l102 136h96zM563 0h-69l-244 511q-27 56 -38 91h-1q-4 -35 -17 -97l-108 -505h-63l145 680h69l246 -511q15 -31 37 -83h1q6 37 17 90l107 504h63z" />
    <glyph glyph-name="nacute" unicode="&#x144;" 
d="M436 278l-59 -278h-59l54 255q14 62 14 96q0 81 -92 81q-65 0 -111 -50.5t-59 -115.5l-56 -266h-59l101 476h59l-17 -79q19 37 65 63.5t98 26.5q63 0 97.5 -34t34.5 -93q0 -33 -11 -82zM332 680h94l-132 -128h-56z" />
    <glyph glyph-name="Ncommaaccent" unicode="&#x145;" horiz-adv-x="707" 
d="M563 0h-69l-244 511q-27 56 -38 91h-1q-4 -35 -17 -97l-108 -505h-63l145 680h69l246 -511q15 -31 37 -83h1q6 37 17 90l107 504h63zM205 -278l7 35q33 9 45 25.5t21 58.5h-42l21 94h77l-24 -110q-11 -49 -34.5 -72t-70.5 -31z" />
    <glyph glyph-name="ncommaaccent" unicode="&#x146;" 
d="M436 278l-59 -278h-59l54 255q14 62 14 96q0 81 -92 81q-65 0 -111 -50.5t-59 -115.5l-56 -266h-59l101 476h59l-17 -79q19 37 65 63.5t98 26.5q63 0 97.5 -34t34.5 -93q0 -33 -11 -82zM106 -278l7 35q33 9 45 25.5t21 58.5h-42l21 94h77l-24 -110q-11 -49 -34.5 -72
t-70.5 -31z" />
    <glyph glyph-name="Ncaron" unicode="&#x147;" horiz-adv-x="707" 
d="M439 808l96 81h65l-148 -136h-42l-92 136h59zM563 0h-69l-244 511q-27 56 -38 91h-1q-4 -35 -17 -97l-108 -505h-63l145 680h69l246 -511q15 -31 37 -83h1q6 37 17 90l107 504h63z" />
    <glyph glyph-name="ncaron" unicode="&#x148;" 
d="M436 278l-59 -278h-59l54 255q14 62 14 96q0 81 -92 81q-65 0 -111 -50.5t-59 -115.5l-56 -266h-59l101 476h59l-17 -79q19 37 65 63.5t98 26.5q63 0 97.5 -34t34.5 -93q0 -33 -11 -82zM379 680h67l-140 -128h-42l-86 128h59l54 -77z" />
    <glyph glyph-name="napostrophe" unicode="&#x149;" 
d="M436 278l-59 -278h-59l54 255q14 62 14 96q0 81 -92 81q-65 0 -111 -50.5t-59 -115.5l-56 -266h-59l101 476h59l-17 -79q19 37 65 63.5t98 26.5q63 0 97.5 -34t34.5 -93q0 -33 -11 -82zM79 561l7 35q33 9 45 25.5t21 58.5h-42l21 94h77l-24 -110q-11 -49 -34.5 -72
t-70.5 -31z" />
    <glyph glyph-name="Eng" unicode="&#x14a;" horiz-adv-x="707" 
d="M168 -38l62 23v-10q0 -55 30 -87.5t91 -32.5q89 0 127 82q12 25 22 63l-250 511q-27 56 -38 91h-1q-4 -35 -17 -97l-108 -505h-63l145 680h69l247 -505q15 -31 37 -83h1q6 37 17 90l106 498h63l-135 -637q-21 -101 -48 -149q-53 -92 -177 -92q-87 0 -133 41t-47 119z" />
    <glyph glyph-name="eng" unicode="&#x14b;" 
d="M436 279l-61 -288q-19 -89 -28 -117t-28 -48q-28 -28 -82 -28q-43 0 -78 20l13 57q30 -23 66 -23q32 0 45 20.5t25 79.5l64 304q14 62 14 96q0 81 -92 81q-65 0 -111 -50.5t-59 -115.5l-56 -267h-59l101 476h59l-17 -78q19 37 65 63.5t98 26.5q63 0 97.5 -34t34.5 -93
q0 -33 -11 -82z" />
    <glyph glyph-name="Omacron" unicode="&#x14c;" horiz-adv-x="679" 
d="M401 692q113 0 180 -71.5t67 -198.5q0 -81 -22 -157t-63.5 -138.5t-109.5 -100.5t-152 -38q-120 0 -183 74t-63 208q0 108 40 203t120.5 157t185.5 62zM310 44q65 0 119 35t86.5 90t50 118t17.5 125q0 104 -49 164t-142 60q-64 0 -117 -33.5t-86 -87t-51 -116.5t-18 -125
q0 -107 47.5 -168.5t142.5 -61.5zM293 778l11 53h271l-11 -53h-271z" />
    <glyph glyph-name="omacron" unicode="&#x14d;" horiz-adv-x="517" 
d="M29 185q0 77 28 144.5t88 112.5t139 45q86 0 135 -53t49 -145q0 -120 -68 -210.5t-187 -90.5q-86 0 -135 52.5t-49 144.5zM277 437q-86 0 -136.5 -75.5t-50.5 -169.5q0 -72 34.5 -112.5t94.5 -40.5q87 0 137.5 76.5t50.5 170.5q0 72 -34.5 111.5t-95.5 39.5zM169 579
l11 53h271l-11 -53h-271z" />
    <glyph glyph-name="Obreve" unicode="&#x14e;" horiz-adv-x="679" 
d="M401 692q113 0 180 -71.5t67 -198.5q0 -81 -22 -157t-63.5 -138.5t-109.5 -100.5t-152 -38q-120 0 -183 74t-63 208q0 108 40 203t120.5 157t185.5 62zM310 44q65 0 119 35t86.5 90t50 118t17.5 125q0 104 -49 164t-142 60q-64 0 -117 -33.5t-86 -87t-51 -116.5t-18 -125
q0 -107 47.5 -168.5t142.5 -61.5zM428 783q70 0 100 67h48q-19 -54 -59 -83t-94 -29q-57 0 -88 29.5t-27 82.5h48q2 -67 72 -67z" />
    <glyph glyph-name="obreve" unicode="&#x14f;" horiz-adv-x="517" 
d="M29 185q0 77 28 144.5t88 112.5t139 45q86 0 135 -53t49 -145q0 -120 -68 -210.5t-187 -90.5q-86 0 -135 52.5t-49 144.5zM277 437q-86 0 -136.5 -75.5t-50.5 -169.5q0 -72 34.5 -112.5t94.5 -40.5q87 0 137.5 76.5t50.5 170.5q0 72 -34.5 111.5t-95.5 39.5zM312 582
q70 0 100 67h48q-19 -54 -59 -83t-94 -29q-57 0 -88 29.5t-27 82.5h48q2 -67 72 -67z" />
    <glyph glyph-name="Ohungarumlaut" unicode="&#x150;" horiz-adv-x="679" 
d="M401 692q113 0 180 -71.5t67 -198.5q0 -81 -22 -157t-63.5 -138.5t-109.5 -100.5t-152 -38q-120 0 -183 74t-63 208q0 108 40 203t120.5 157t185.5 62zM310 44q65 0 119 35t86.5 90t50 118t17.5 125q0 104 -49 164t-142 60q-64 0 -117 -33.5t-86 -87t-51 -116.5t-18 -125
q0 -107 47.5 -168.5t142.5 -61.5zM540 884h94l-132 -128h-56zM381 884h94l-132 -128h-56z" />
    <glyph glyph-name="ohungarumlaut" unicode="&#x151;" horiz-adv-x="517" 
d="M29 185q0 77 28 144.5t88 112.5t139 45q86 0 135 -53t49 -145q0 -120 -68 -210.5t-187 -90.5q-86 0 -135 52.5t-49 144.5zM277 437q-86 0 -136.5 -75.5t-50.5 -169.5q0 -72 34.5 -112.5t94.5 -40.5q87 0 137.5 76.5t50.5 170.5q0 72 -34.5 111.5t-95.5 39.5zM423 680h94
l-132 -128h-56zM264 680h94l-132 -128h-56z" />
    <glyph glyph-name="OE" unicode="&#x152;" horiz-adv-x="907" 
d="M827 55l-12 -55h-425l4 16q-48 -17 -93 -17q-119 0 -181 73t-62 206q0 107 39 200t118.5 153.5t183.5 60.5q77 0 131 -33l5 21h405l-12 -55h-342l-53 -247h306l-11 -55h-306l-58 -268h363zM309 52q51 0 97 24l111 518q-51 45 -127 45q-63 0 -115.5 -33t-85 -86t-50 -115
t-17.5 -123q0 -107 46.5 -168.5t140.5 -61.5z" />
    <glyph glyph-name="oe" unicode="&#x153;" horiz-adv-x="864" 
d="M408 96q-71 -108 -197 -108q-89 0 -135 52.5t-46 144.5q0 122 67.5 212t183.5 90q62 0 105.5 -27.5t62.5 -79.5q74 107 195 107q87 0 130 -52t43 -132q0 -35 -8 -69h-353q-3 -21 -3 -43q0 -66 32 -108.5t102 -42.5q104 0 167 110l45 -31q-73 -131 -217 -131
q-134 0 -174 108zM215 40q63 0 107.5 41.5t62.5 95.5t18 111q0 148 -129 148q-58 0 -101.5 -39t-63 -93t-19.5 -111q0 -72 31 -112.5t94 -40.5zM638 437q-63 0 -109 -47t-62 -108h287q2 18 2 29q0 54 -28 90t-90 36z" />
    <glyph glyph-name="Racute" unicode="&#x154;" horiz-adv-x="638" 
d="M394 753h-56l102 136h96zM364 300h-215l-64 -300h-62l145 680h237q101 0 151 -28q72 -40 72 -128q0 -65 -27.5 -116t-77.5 -79q-38 -21 -96 -26l119 -303h-68zM161 356h202q99 0 141 29q63 43 63 134q0 71 -68 95q-32 11 -98 11h-183z" />
    <glyph glyph-name="racute" unicode="&#x155;" horiz-adv-x="324" 
d="M345 483l-13 -60q-16 4 -36 4q-64 0 -110.5 -46.5t-60.5 -111.5l-57 -269h-59l101 476h59l-20 -92q21 42 65 72.5t96 30.5q20 0 35 -4zM216 680h94l-132 -128h-56z" />
    <glyph glyph-name="Rcommaaccent" unicode="&#x156;" horiz-adv-x="638" 
d="M364 300h-215l-64 -300h-62l145 680h237q101 0 151 -28q72 -40 72 -128q0 -65 -27.5 -116t-77.5 -79q-38 -21 -96 -26l119 -303h-68zM161 356h202q99 0 141 29q63 43 63 134q0 71 -68 95q-32 11 -98 11h-183zM182 -278l7 35q33 9 45 25.5t21 58.5h-42l21 94h77l-24 -110
q-11 -49 -34.5 -72t-70.5 -31z" />
    <glyph glyph-name="rcommaaccent" unicode="&#x157;" horiz-adv-x="324" 
d="M345 483l-13 -60q-16 4 -36 4q-64 0 -110.5 -46.5t-60.5 -111.5l-57 -269h-59l101 476h59l-20 -92q21 42 65 72.5t96 30.5q20 0 35 -4zM-66 -278l7 35q33 9 45 25.5t21 58.5h-42l21 94h77l-24 -110q-11 -49 -34.5 -72t-70.5 -31z" />
    <glyph glyph-name="Rcaron" unicode="&#x158;" horiz-adv-x="638" 
d="M384 808l96 81h65l-148 -136h-42l-92 136h59zM364 300h-215l-64 -300h-62l145 680h237q101 0 151 -28q72 -40 72 -128q0 -65 -27.5 -116t-77.5 -79q-38 -21 -96 -26l119 -303h-68zM161 356h202q99 0 141 29q63 43 63 134q0 71 -68 95q-32 11 -98 11h-183z" />
    <glyph glyph-name="rcaron" unicode="&#x159;" horiz-adv-x="324" 
d="M345 483l-13 -60q-16 4 -36 4q-64 0 -110.5 -46.5t-60.5 -111.5l-57 -269h-59l101 476h59l-20 -92q21 42 65 72.5t96 30.5q20 0 35 -4zM323 680h67l-140 -128h-42l-86 128h59l54 -77z" />
    <glyph glyph-name="Sacute" unicode="&#x15a;" horiz-adv-x="583" 
d="M362 753h-56l102 136h96zM560 566l-50 -38q-24 49 -73 78.5t-119 29.5q-72 0 -117.5 -30.5t-45.5 -87.5q0 -52 30.5 -77.5t95.5 -48.5l95 -35q74 -27 115 -63.5t41 -106.5q0 -97 -69.5 -148t-178.5 -51q-103 0 -171 48.5t-92 130.5l55 35q14 -67 67 -113t142 -46
q86 0 133.5 36t47.5 99q0 53 -33 78.5t-104 51.5l-95 35q-26 9 -42 16t-38 21.5t-34 30.5t-21 41.5t-9 57.5q0 81 63.5 131.5t167.5 50.5q88 0 148.5 -36t90.5 -90z" />
    <glyph glyph-name="sacute" unicode="&#x15b;" horiz-adv-x="442" 
d="M400 389l-48 -34q-39 82 -130 82q-45 0 -73.5 -20t-28.5 -58q0 -32 18 -47.5t61 -30.5l65 -24q54 -20 84 -46t30 -76q0 -70 -50.5 -108.5t-127.5 -38.5q-76 0 -127 36t-71 98l51 32q38 -116 151 -116q48 0 79 23t31 65q0 33 -19 48.5t-67 32.5l-67 25q-22 8 -35.5 15
t-31.5 20.5t-27 34t-9 48.5q0 64 49 100.5t118 36.5q125 0 175 -98zM303 680h94l-132 -128h-56z" />
    <glyph glyph-name="Scircumflex" unicode="&#x15c;" horiz-adv-x="583" 
d="M384 834l-96 -81h-65l148 136h42l92 -136h-59zM560 566l-50 -38q-24 49 -73 78.5t-119 29.5q-72 0 -117.5 -30.5t-45.5 -87.5q0 -52 30.5 -77.5t95.5 -48.5l95 -35q74 -27 115 -63.5t41 -106.5q0 -97 -69.5 -148t-178.5 -51q-103 0 -171 48.5t-92 130.5l55 35
q14 -67 67 -113t142 -46q86 0 133.5 36t47.5 99q0 53 -33 78.5t-104 51.5l-95 35q-26 9 -42 16t-38 21.5t-34 30.5t-21 41.5t-9 57.5q0 81 63.5 131.5t167.5 50.5q88 0 148.5 -36t90.5 -90z" />
    <glyph glyph-name="scircumflex" unicode="&#x15d;" horiz-adv-x="442" 
d="M400 389l-48 -34q-39 82 -130 82q-45 0 -73.5 -20t-28.5 -58q0 -32 18 -47.5t61 -30.5l65 -24q54 -20 84 -46t30 -76q0 -70 -50.5 -108.5t-127.5 -38.5q-76 0 -127 36t-71 98l51 32q38 -116 151 -116q48 0 79 23t31 65q0 33 -19 48.5t-67 32.5l-67 25q-22 8 -35.5 15
t-31.5 20.5t-27 34t-9 48.5q0 64 49 100.5t118 36.5q125 0 175 -98zM205 552h-67l140 128h42l86 -128h-59l-54 77z" />
    <glyph glyph-name="Scedilla" unicode="&#x15e;" horiz-adv-x="583" 
d="M208 -62l48 51q-92 7 -152.5 54.5t-82.5 123.5l55 35q14 -67 67 -113t142 -46q86 0 133.5 36t47.5 99q0 53 -33 78.5t-104 51.5l-95 35q-26 9 -42 16t-38 21.5t-34 30.5t-21 41.5t-9 57.5q0 81 63.5 131.5t167.5 50.5q88 0 148.5 -36t90.5 -90l-50 -38q-24 49 -73 78.5
t-119 29.5q-72 0 -117.5 -30.5t-45.5 -87.5q0 -52 30.5 -77.5t95.5 -48.5l95 -35q74 -27 115 -63.5t41 -106.5q0 -94 -65.5 -145t-170.5 -54l-32 -33q4 1 13 1q30 0 49.5 -17t19.5 -46q0 -39 -31 -62.5t-77 -23.5q-26 0 -51 9l15 28q14 -5 31 -5q27 0 45 11.5t18 34.5
q0 37 -48 37q-15 0 -31 -7z" />
    <glyph glyph-name="scedilla" unicode="&#x15f;" horiz-adv-x="442" 
d="M128 -62l48 51q-66 6 -111 41t-63 92l51 32q38 -116 151 -116q48 0 79 23t31 65q0 33 -19 48.5t-67 32.5l-67 25q-22 8 -35.5 15t-31.5 20.5t-27 34t-9 48.5q0 64 49 100.5t118 36.5q125 0 175 -98l-48 -34q-39 82 -130 82q-45 0 -73.5 -20t-28.5 -58q0 -32 18 -47.5
t61 -30.5l65 -24q54 -20 84 -46t30 -76q0 -67 -46 -105t-116 -42l-32 -33q4 1 13 1q30 0 49.5 -17t19.5 -46q0 -39 -31 -62.5t-77 -23.5q-26 0 -51 9l15 28q14 -5 31 -5q27 0 45 11.5t18 34.5q0 37 -48 37q-15 0 -31 -7z" />
    <glyph glyph-name="Scaron" unicode="&#x160;" horiz-adv-x="583" 
d="M560 566l-50 -38q-24 49 -73 78.5t-119 29.5q-72 0 -117.5 -30.5t-45.5 -87.5q0 -52 30.5 -77.5t95.5 -48.5l95 -35q74 -27 115 -63.5t41 -106.5q0 -97 -69.5 -148t-178.5 -51q-103 0 -171 48.5t-92 130.5l55 35q14 -67 67 -113t142 -46q86 0 133.5 36t47.5 99
q0 53 -33 78.5t-104 51.5l-95 35q-26 9 -42 16t-38 21.5t-34 30.5t-21 41.5t-9 57.5q0 81 63.5 131.5t167.5 50.5q88 0 148.5 -36t90.5 -90zM360 808l96 81h65l-148 -136h-42l-92 136h59z" />
    <glyph glyph-name="scaron" unicode="&#x161;" horiz-adv-x="442" 
d="M348 680h67l-140 -128h-42l-86 128h59l54 -77zM400 389l-48 -34q-39 82 -130 82q-45 0 -73.5 -20t-28.5 -58q0 -32 18 -47.5t61 -30.5l65 -24q54 -20 84 -46t30 -76q0 -70 -50.5 -108.5t-127.5 -38.5q-76 0 -127 36t-71 98l51 32q38 -116 151 -116q48 0 79 23t31 65
q0 33 -19 48.5t-67 32.5l-67 25q-22 8 -35.5 15t-31.5 20.5t-27 34t-9 48.5q0 64 49 100.5t118 36.5q125 0 175 -98z" />
    <glyph glyph-name="uni0162" unicode="&#x162;" horiz-adv-x="526" 
d="M123 -62l58 62h-9l133 625h-219l12 55h500l-12 -55h-219l-133 -625h-12l-43 -45q4 1 13 1q30 0 49.5 -17t19.5 -46q0 -39 -31 -62.5t-77 -23.5q-25 0 -51 9l15 28q14 -5 31 -5q27 0 45 11.5t18 34.5q0 37 -48 37q-15 0 -31 -7z" />
    <glyph glyph-name="uni0163" unicode="&#x163;" horiz-adv-x="303" 
d="M42 -62l53 57q-36 12 -36 55q0 16 6 46l71 331h-96l10 49h96l40 179l61 12l-42 -191h114l-10 -49h-114l-67 -311q-6 -27 -6 -40q0 -32 34 -32q36 0 77 22l-12 -58q-39 -18 -89 -18h-1l-33 -35q4 1 13 1q30 0 49.5 -17t19.5 -46q0 -39 -31 -62.5t-77 -23.5q-26 0 -51 9
l15 28q14 -5 31 -5q27 0 45 11.5t18 34.5q0 37 -48 37q-15 0 -31 -7z" />
    <glyph glyph-name="Tcaron" unicode="&#x164;" horiz-adv-x="526" 
d="M373 808l96 81h65l-148 -136h-42l-92 136h59zM86 625l12 55h500l-12 -55h-219l-133 -625h-62l133 625h-219z" />
    <glyph glyph-name="tcaron" unicode="&#x165;" horiz-adv-x="303" 
d="M40 427l10 49h96l40 179l61 12l-42 -191h114l-10 -49h-114l-67 -311q-6 -27 -6 -40q0 -32 34 -32q36 0 77 22l-12 -58q-39 -18 -89 -18q-73 0 -73 60q0 16 6 46l71 331h-96zM350 552h-48l49 128h82z" />
    <glyph glyph-name="Tbar" unicode="&#x166;" horiz-adv-x="526" 
d="M86 625l12 55h500l-12 -55h-219l-37 -173h133l-11 -53h-133l-85 -399h-62l85 399h-136l11 53h136l37 173h-219z" />
    <glyph glyph-name="tbar" unicode="&#x167;" horiz-adv-x="315" 
d="M48 427l10 49h96l40 179l61 12l-42 -191h114l-10 -49h-114l-26 -119h119l-11 -53h-119l-30 -139q-6 -27 -6 -40q0 -32 34 -32q36 0 77 22l-12 -58q-39 -18 -89 -18q-73 0 -73 60q0 16 6 46l34 159h-103l11 53h103l26 119h-96z" />
    <glyph glyph-name="Utilde" unicode="&#x168;" horiz-adv-x="669" 
d="M291 -13q-112 0 -170 52t-58 145q0 31 12 91l87 405h62l-85 -401q-13 -61 -13 -90q0 -146 172 -146q96 0 149 49q49 46 74 155l92 433h62l-90 -425q-32 -146 -94 -204q-67 -64 -200 -64zM561 868l41 -10q-10 -21 -16 -32t-18 -27t-27 -23.5t-33 -7.5q-27 0 -77 26
q-44 22 -55 22q-33 0 -47 -47l-42 9q36 90 96 90q23 0 67 -22q46 -23 62 -23q34 0 49 45z" />
    <glyph glyph-name="utilde" unicode="&#x169;" horiz-adv-x="496" 
d="M46 197l59 279h59l-54 -256q-14 -62 -14 -97q0 -80 88 -80q65 0 110.5 50.5t58.5 115.5l56 267h59l-101 -476h-59l17 78q-19 -37 -64 -63.5t-98 -26.5q-60 0 -94 33.5t-34 90.5q0 36 11 85zM432 666l41 -10q-10 -21 -16 -32t-18 -27t-27 -23.5t-33 -7.5q-27 0 -77 26
q-44 22 -55 22q-33 0 -47 -47l-42 9q36 90 96 90q23 0 67 -22q46 -23 62 -23q34 0 49 45z" />
    <glyph glyph-name="Umacron" unicode="&#x16a;" horiz-adv-x="669" 
d="M291 -13q-112 0 -170 52t-58 145q0 31 12 91l87 405h62l-85 -401q-13 -61 -13 -90q0 -146 172 -146q96 0 149 49q49 46 74 155l92 433h62l-90 -425q-32 -146 -94 -204q-67 -64 -200 -64zM299 778l11 53h271l-11 -53h-271z" />
    <glyph glyph-name="umacron" unicode="&#x16b;" horiz-adv-x="496" 
d="M46 197l59 279h59l-54 -256q-14 -62 -14 -97q0 -80 88 -80q65 0 110.5 50.5t58.5 115.5l56 267h59l-101 -476h-59l17 78q-19 -37 -64 -63.5t-98 -26.5q-60 0 -94 33.5t-34 90.5q0 36 11 85zM173 579l11 53h271l-11 -53h-271z" />
    <glyph glyph-name="Ubreve" unicode="&#x16c;" horiz-adv-x="669" 
d="M291 -13q-112 0 -170 52t-58 145q0 31 12 91l87 405h62l-85 -401q-13 -61 -13 -90q0 -146 172 -146q96 0 149 49q49 46 74 155l92 433h62l-90 -425q-32 -146 -94 -204q-67 -64 -200 -64zM442 783q70 0 100 67h48q-19 -54 -59 -83t-94 -29q-57 0 -88 29.5t-27 82.5h48
q2 -67 72 -67z" />
    <glyph glyph-name="ubreve" unicode="&#x16d;" horiz-adv-x="496" 
d="M46 197l59 279h59l-54 -256q-14 -62 -14 -97q0 -80 88 -80q65 0 110.5 50.5t58.5 115.5l56 267h59l-101 -476h-59l17 78q-19 -37 -64 -63.5t-98 -26.5q-60 0 -94 33.5t-34 90.5q0 36 11 85zM320 582q70 0 100 67h48q-19 -54 -59 -83t-94 -29q-57 0 -88 29.5t-27 82.5h48
q2 -67 72 -67z" />
    <glyph glyph-name="Uring" unicode="&#x16e;" horiz-adv-x="669" 
d="M291 -13q-112 0 -170 52t-58 145q0 31 12 91l87 405h62l-85 -401q-13 -61 -13 -90q0 -146 172 -146q96 0 149 49q49 46 74 155l92 433h62l-90 -425q-32 -146 -94 -204q-67 -64 -200 -64zM367 819q0 34 24 57.5t58 23.5t58 -23.5t24 -57.5t-24 -57.5t-58 -23.5t-58 23.5
t-24 57.5zM405 819q0 -18 13 -30.5t30 -12.5t30 12.5t13 30.5t-13 30.5t-30 12.5t-30 -12.5t-13 -30.5z" />
    <glyph glyph-name="uring" unicode="&#x16f;" horiz-adv-x="496" 
d="M46 197l59 279h59l-54 -256q-14 -62 -14 -97q0 -80 88 -80q65 0 110.5 50.5t58.5 115.5l56 267h59l-101 -476h-59l17 78q-19 -37 -64 -63.5t-98 -26.5q-60 0 -94 33.5t-34 90.5q0 36 11 85zM222 618q0 34 24 57.5t58 23.5t58 -23.5t24 -57.5t-24 -57.5t-58 -23.5
t-58 23.5t-24 57.5zM260 618q0 -18 13 -30.5t30 -12.5t30 12.5t13 30.5t-13 30.5t-30 12.5t-30 -12.5t-13 -30.5z" />
    <glyph glyph-name="Uhungarumlaut" unicode="&#x170;" horiz-adv-x="669" 
d="M291 -13q-112 0 -170 52t-58 145q0 31 12 91l87 405h62l-85 -401q-13 -61 -13 -90q0 -146 172 -146q96 0 149 49q49 46 74 155l92 433h62l-90 -425q-32 -146 -94 -204q-67 -64 -200 -64zM538 882h94l-132 -128h-56zM379 882h94l-132 -128h-56z" />
    <glyph glyph-name="uhungarumlaut" unicode="&#x171;" horiz-adv-x="496" 
d="M46 197l59 279h59l-54 -256q-14 -62 -14 -97q0 -80 88 -80q65 0 110.5 50.5t58.5 115.5l56 267h59l-101 -476h-59l17 78q-19 -37 -64 -63.5t-98 -26.5q-60 0 -94 33.5t-34 90.5q0 36 11 85zM418 680h94l-132 -128h-56zM259 680h94l-132 -128h-56z" />
    <glyph glyph-name="Uogonek" unicode="&#x172;" horiz-adv-x="669" 
d="M296 -174l18 -41q-22 -6 -46 -6q-45 0 -71.5 24.5t-26.5 66.5q0 61 85 118q-95 9 -143.5 60t-48.5 136q0 31 12 91l87 405h62l-85 -401q-13 -61 -13 -90q0 -146 172 -146q96 0 149 49q49 46 74 155l92 433h62l-90 -425q-32 -146 -94 -204q-63 -60 -181 -64
q-90 -63 -90 -113q0 -51 54 -51q12 0 22 3z" />
    <glyph glyph-name="uogonek" unicode="&#x173;" horiz-adv-x="496" 
d="M330 -174l18 -41q-23 -6 -46 -6q-45 0 -71.5 24.5t-26.5 66.5q0 70 104 130l17 78q-19 -37 -64 -63.5t-98 -26.5q-60 0 -94 33.5t-34 90.5q0 36 11 85l59 279h59l-54 -256q-14 -62 -14 -97q0 -80 88 -80q65 0 110.5 50.5t58.5 115.5l56 267h59l-101 -476h-2
q-111 -67 -111 -126q0 -51 54 -51q12 0 22 3z" />
    <glyph glyph-name="Wcircumflex" unicode="&#x174;" horiz-adv-x="884" 
d="M556 834l-96 -81h-65l148 136h42l92 -136h-59zM606 0h-58l-35 406q-12 134 -12 170h-1q-21 -55 -82 -172l-205 -404h-57l-55 680h62l34 -403q12 -147 12 -167h1q19 49 80 167l202 403h59l37 -403q12 -147 12 -168h1q13 35 79 166l200 405h66z" />
    <glyph glyph-name="wcircumflex" unicode="&#x175;" horiz-adv-x="688" 
d="M410 476l28 -288q2 -23 5.5 -62t3.5 -42h1q15 33 54 109l148 283h60l-253 -476h-56l-27 306q-2 23 -3.5 53.5t-1.5 33.5h-1l-44 -88l-156 -305h-53l-59 476h59l33 -286q6 -42 11 -105h1q37 78 52 106l147 285h51zM331 552h-67l140 128h42l86 -128h-59l-54 77z" />
    <glyph glyph-name="Ycircumflex" unicode="&#x176;" horiz-adv-x="568" 
d="M396 834l-96 -81h-65l148 136h42l92 -136h-59zM250 0h-63l60 280l-161 400h67l138 -338l283 338h76l-340 -400z" />
    <glyph glyph-name="ycircumflex" unicode="&#x177;" horiz-adv-x="445" 
d="M120 476l44 -317l12 -83h1q17 32 50 86l187 314h63l-327 -540q-41 -69 -59 -91q-38 -47 -96 -47q-34 0 -61 18l11 56q26 -21 55 -21t47 21q14 16 38 56l43 74l-69 474h61zM206 552h-67l140 128h42l86 -128h-59l-54 77z" />
    <glyph glyph-name="Ydieresis" unicode="&#x178;" horiz-adv-x="568" 
d="M250 0h-63l60 280l-161 400h67l138 -338l283 338h76l-340 -400zM242 768l19 91h62l-19 -91h-62zM429 768l19 91h62l-19 -91h-62z" />
    <glyph glyph-name="Zacute" unicode="&#x179;" horiz-adv-x="558" 
d="M370 753h-56l102 136h96zM484 55l-12 -55h-511l9 41l537 584h-391l12 55h480l-10 -45l-532 -580h418z" />
    <glyph glyph-name="zacute" unicode="&#x17a;" horiz-adv-x="405" 
d="M328 50l-11 -50h-347l8 40l339 387h-244l10 49h321l-8 -39l-340 -387h272zM282 680h94l-132 -128h-56z" />
    <glyph glyph-name="Zdotaccent" unicode="&#x17b;" horiz-adv-x="558" 
d="M484 55l-12 -55h-511l9 41l537 584h-391l12 55h480l-10 -45l-532 -580h418zM344 768l20 91h62l-20 -91h-62z" />
    <glyph glyph-name="zdotaccent" unicode="&#x17c;" horiz-adv-x="405" 
d="M328 50l-11 -50h-347l8 40l339 387h-244l10 49h321l-8 -39l-340 -387h272zM227 566l20 91h62l-20 -91h-62z" />
    <glyph glyph-name="Zcaron" unicode="&#x17d;" horiz-adv-x="558" 
d="M484 55l-12 -55h-511l9 41l537 584h-391l12 55h480l-10 -45l-532 -580h418zM382 808l96 81h65l-148 -136h-42l-92 136h59z" />
    <glyph glyph-name="zcaron" unicode="&#x17e;" horiz-adv-x="405" 
d="M328 50l-11 -50h-347l8 40l339 387h-244l10 49h321l-8 -39l-340 -387h272zM345 680h67l-140 -128h-42l-86 128h59l54 -77z" />
    <glyph glyph-name="florin" unicode="&#x192;" horiz-adv-x="590" 
d="M25 -190l21 52q40 -9 67 -9q32 0 47 14q19 16 31 76l101 479h-112l11 54h111l20 99q13 63 42.5 90.5t81.5 27.5q41 0 95 -16l-16 -52q-53 11 -72 11q-30 0 -47 -18q-17 -17 -26 -64l-16 -78h116l-11 -54h-115l-107 -502q-14 -64 -44 -93t-85 -29q-45 0 -93 12z" />
    <glyph glyph-name="Aringacute" unicode="&#x1fa;" horiz-adv-x="599" 
d="M347 763q0 23 16.5 39t39.5 16t39 -16t16 -39t-16 -39t-39 -16t-39.5 16t-16.5 39zM373 763q0 -13 8.5 -21t20.5 -8t20.5 8t8.5 21q0 12 -8.5 20.5t-20.5 8.5t-20.5 -8.5t-8.5 -20.5zM396 839h-56l86 80h96zM140 205l-120 -205h-69l403 680h64l115 -680h-65l-33 205h-295
zM426 260l-40 255q-6 37 -14 95h-1q-31 -60 -45 -84l-155 -266h255z" />
    <glyph glyph-name="aringacute" unicode="&#x1fb;" horiz-adv-x="481" 
d="M231 583q0 23 16.5 39t39.5 16t39 -16t16 -39t-16 -39t-39 -16t-39.5 16t-16.5 39zM257 583q0 -13 8.5 -21t20.5 -8t20.5 8t8.5 21q0 12 -8.5 20.5t-20.5 8.5t-20.5 -8.5t-8.5 -20.5zM288 659h-56l86 80h96zM320 158l21 96q-10 -6 -78 -19l-50 -9q-68 -12 -105 -34
t-37 -71q0 -83 97 -83q55 0 97 29.5t55 90.5zM117 329l-54 13q8 74 64.5 109.5t134.5 35.5q156 0 156 -118q0 -23 -7 -55l-46 -216q-4 -19 -4 -30q0 -28 30 -28q22 0 38 10l-10 -47q-18 -10 -49 -10q-65 0 -65 51q0 10 3 22l-1 1q-45 -79 -154 -79q-63 0 -102 33.5t-39 93.5
q0 72 49 107t147 51l111 19q20 4 27.5 10.5t10.5 21.5q5 23 5 38q0 76 -107 76q-64 0 -98 -30t-40 -79z" />
    <glyph glyph-name="AEacute" unicode="&#x1fc;" horiz-adv-x="908" 
d="M582 753h-56l102 136h96zM164 206l-170 -206h-72l562 680h456l-12 -55h-364l-52 -247h329l-12 -55h-329l-57 -268h384l-12 -55h-448l45 206h-248zM423 261l51 234q9 40 17 75.5t11 48.5l3 13h-1q-40 -60 -106 -139l-191 -232h216z" />
    <glyph glyph-name="aeacute" unicode="&#x1fd;" horiz-adv-x="798" 
d="M743 234h-353q-3 -21 -3 -43q0 -66 32 -108.5t102 -42.5q104 0 167 110l45 -31q-73 -131 -217 -131q-133 0 -172 103q-67 -103 -187 -103q-66 0 -105.5 33.5t-39.5 93.5q0 72 49 107t147 51l111 19q20 4 27.5 10.5t10.5 21.5q5 23 5 38q0 76 -107 76q-64 0 -98 -30
t-40 -79l-54 13q8 74 64.5 109.5t134.5 35.5q121 0 148 -73q73 73 168 73q87 0 130 -52t43 -132q0 -35 -8 -69zM320 158l21 96q-10 -6 -78 -19l-50 -9q-68 -12 -105 -34t-37 -71q0 -83 97 -83q55 0 97 29.5t55 90.5zM572 437q-63 0 -109 -47t-62 -108h287q2 18 2 29
q0 54 -28 90t-90 36zM490 680h94l-132 -128h-56z" />
    <glyph glyph-name="Oslashacute" unicode="&#x1fe;" horiz-adv-x="691" 
d="M409 692q126 0 193 -87l123 111l38 -43l-132 -119q25 -58 25 -132q0 -81 -22 -157t-63.5 -138.5t-109.5 -100.5t-152 -38q-137 0 -199 95l-116 -105l-39 43l128 116q-20 58 -20 133q0 108 40 203t120.5 157t185.5 62zM318 44q65 0 119 35t86.5 90t50 118t17.5 125
q0 54 -13 94l-418 -378q48 -84 158 -84zM128 274q0 -49 9 -88l416 375q-49 75 -153 75q-64 0 -117 -33.5t-86 -87t-51 -116.5t-18 -125zM421 753h-56l102 136h96z" />
    <glyph glyph-name="oslashacute" unicode="&#x1ff;" horiz-adv-x="516" 
d="M284 487q84 0 133 -49l71 72l39 -35l-79 -80q21 -45 21 -98q0 -123 -67.5 -216t-187.5 -93q-79 0 -126 41l-65 -66l-35 36l68 70q-26 47 -26 116q0 122 69 212t185 90zM90 193q0 -44 12 -77l274 280q-34 40 -99 40q-85 0 -136 -76.5t-51 -166.5zM218 40q63 0 108 41
t64 95.5t19 111.5q0 30 -8 59l-271 -275q32 -32 88 -32zM344 680h94l-132 -128h-56z" />
    <glyph glyph-name="uni0218" unicode="&#x218;" horiz-adv-x="583" 
d="M560 566l-50 -38q-24 49 -73 78.5t-119 29.5q-72 0 -117.5 -30.5t-45.5 -87.5q0 -52 30.5 -77.5t95.5 -48.5l95 -35q74 -27 115 -63.5t41 -106.5q0 -97 -69.5 -148t-178.5 -51q-103 0 -171 48.5t-92 130.5l55 35q14 -67 67 -113t142 -46q86 0 133.5 36t47.5 99
q0 53 -33 78.5t-104 51.5l-95 35q-26 9 -42 16t-38 21.5t-34 30.5t-21 41.5t-9 57.5q0 81 63.5 131.5t167.5 50.5q88 0 148.5 -36t90.5 -90zM186 -278l7 35q33 9 45 25.5t21 58.5h-42l21 94h77l-24 -110q-11 -49 -34.5 -72t-70.5 -31z" />
    <glyph glyph-name="uni0219" unicode="&#x219;" horiz-adv-x="442" 
d="M400 389l-48 -34q-39 82 -130 82q-45 0 -73.5 -20t-28.5 -58q0 -32 18 -47.5t61 -30.5l65 -24q54 -20 84 -46t30 -76q0 -70 -50.5 -108.5t-127.5 -38.5q-76 0 -127 36t-71 98l51 32q38 -116 151 -116q48 0 79 23t31 65q0 33 -19 48.5t-67 32.5l-67 25q-22 8 -35.5 15
t-31.5 20.5t-27 34t-9 48.5q0 64 49 100.5t118 36.5q125 0 175 -98zM91 -278l7 35q33 9 45 25.5t21 58.5h-42l21 94h77l-24 -110q-11 -49 -34.5 -72t-70.5 -31z" />
    <glyph glyph-name="uni021A" unicode="&#x21a;" horiz-adv-x="526" 
d="M86 625l12 55h500l-12 -55h-219l-133 -625h-62l133 625h-219zM99 -278l7 35q33 9 45 25.5t21 58.5h-42l21 94h77l-24 -110q-11 -49 -34.5 -72t-70.5 -31z" />
    <glyph glyph-name="uni021B" unicode="&#x21b;" horiz-adv-x="303" 
d="M40 427l10 49h96l40 179l61 12l-42 -191h114l-10 -49h-114l-67 -311q-6 -27 -6 -40q0 -32 34 -32q36 0 77 22l-12 -58q-39 -18 -89 -18q-73 0 -73 60q0 16 6 46l71 331h-96zM-4 -278l7 35q33 9 45 25.5t21 58.5h-42l21 94h77l-24 -110q-11 -49 -34.5 -72t-70.5 -31z" />
    <glyph glyph-name="circumflex" unicode="&#x2c6;" horiz-adv-x="469" 
d="M212 552h-67l140 128h42l86 -128h-59l-54 77z" />
    <glyph glyph-name="caron" unicode="&#x2c7;" horiz-adv-x="469" 
d="M381 680h67l-140 -128h-42l-86 128h59l54 -77z" />
    <glyph glyph-name="breve" unicode="&#x2d8;" horiz-adv-x="439" 
d="M288 582q70 0 100 67h48q-19 -54 -59 -83t-94 -29q-57 0 -88 29.5t-27 82.5h48q2 -67 72 -67z" />
    <glyph glyph-name="dotaccent" unicode="&#x2d9;" horiz-adv-x="469" 
d="M255 566l20 91h62l-20 -91h-62z" />
    <glyph glyph-name="ring" unicode="&#x2da;" horiz-adv-x="469" 
d="M209 618q0 34 24 57.5t58 23.5t58 -23.5t24 -57.5t-24 -57.5t-58 -23.5t-58 23.5t-24 57.5zM247 618q0 -18 13 -30.5t30 -12.5t30 12.5t13 30.5t-13 30.5t-30 12.5t-30 -12.5t-13 -30.5z" />
    <glyph glyph-name="ogonek" unicode="&#x2db;" horiz-adv-x="469" 
d="M212 -174l18 -41q-22 -6 -46 -6q-45 0 -71.5 24.5t-26.5 66.5q0 39 33 74t78 60h57l-7 -4q-111 -67 -111 -126q0 -51 54 -51q12 0 22 3z" />
    <glyph glyph-name="tilde" unicode="&#x2dc;" horiz-adv-x="469" 
d="M409 666l41 -10q-10 -21 -16 -32t-18 -27t-27 -23.5t-33 -7.5q-27 0 -77 26q-44 22 -55 22q-33 0 -47 -47l-42 9q36 90 96 90q23 0 67 -22q46 -23 62 -23q34 0 49 45z" />
    <glyph glyph-name="hungarumlaut" unicode="&#x2dd;" horiz-adv-x="469" 
d="M389 680h94l-132 -128h-56zM230 680h94l-132 -128h-56z" />
    <glyph glyph-name="uni0394" unicode="&#x394;" horiz-adv-x="773" 
d="M52 0l265 679h59l265 -679h-589zM346 610l-215 -560h432z" />
    <glyph glyph-name="uni03A9" unicode="&#x3a9;" horiz-adv-x="784" 
d="M390 690q151 0 234.5 -88.5t83.5 -229.5q0 -103 -45 -184.5t-128 -131.5h179v-56h-248v61q174 101 174 310q0 117 -67 190t-184 73q-115 0 -182 -73t-67 -190q0 -208 174 -310v-61h-247v56h179q-173 109 -173 316q0 140 83.5 229t233.5 89z" />
    <glyph glyph-name="uni03BC" unicode="&#x3bc;" 
d="M28 -190h-59l141 666h59l-56 -265q-14 -62 -14 -88q0 -80 90 -80q65 0 110.5 50.5t58.5 115.5l56 267h59l-101 -476h-59l17 78q-21 -40 -66.5 -65t-96.5 -25q-65 0 -92 43z" />
    <glyph glyph-name="pi" unicode="&#x3c0;" horiz-adv-x="612" 
d="M218 427l-92 -427h-60l93 427h-114l10 49h561l-10 -49h-114l-67 -311q-6 -27 -6 -40q0 -32 34 -32q36 0 77 22l-12 -58q-39 -18 -89 -18q-73 0 -73 60q0 16 6 46l71 331h-215z" />
    <glyph glyph-name="Wgrave" unicode="&#x1e80;" horiz-adv-x="884" 
d="M553 753h-56l-142 136h96zM606 0h-58l-35 406q-12 134 -12 170h-1q-21 -55 -82 -172l-205 -404h-57l-55 680h62l34 -403q12 -147 12 -167h1q19 49 80 167l202 403h59l37 -403q12 -147 12 -168h1q13 35 79 166l200 405h66z" />
    <glyph glyph-name="wgrave" unicode="&#x1e81;" horiz-adv-x="688" 
d="M410 476l28 -288q2 -23 5.5 -62t3.5 -42h1q15 33 54 109l148 283h60l-253 -476h-56l-27 306q-2 23 -3.5 53.5t-1.5 33.5h-1l-44 -88l-156 -305h-53l-59 476h59l33 -286q6 -42 11 -105h1q37 78 52 106l147 285h51zM235 680h94l94 -128h-56z" />
    <glyph glyph-name="Wacute" unicode="&#x1e82;" horiz-adv-x="884" 
d="M540 753h-56l102 136h96zM606 0h-58l-35 406q-12 134 -12 170h-1q-21 -55 -82 -172l-205 -404h-57l-55 680h62l34 -403q12 -147 12 -167h1q19 49 80 167l202 403h59l37 -403q12 -147 12 -168h1q13 35 79 166l200 405h66z" />
    <glyph glyph-name="wacute" unicode="&#x1e83;" horiz-adv-x="688" 
d="M410 476l28 -288q2 -23 5.5 -62t3.5 -42h1q15 33 54 109l148 283h60l-253 -476h-56l-27 306q-2 23 -3.5 53.5t-1.5 33.5h-1l-44 -88l-156 -305h-53l-59 476h59l33 -286q6 -42 11 -105h1q37 78 52 106l147 285h51zM444 680h94l-132 -128h-56z" />
    <glyph glyph-name="Wdieresis" unicode="&#x1e84;" horiz-adv-x="884" 
d="M606 0h-58l-35 406q-12 134 -12 170h-1q-21 -55 -82 -172l-205 -404h-57l-55 680h62l34 -403q12 -147 12 -167h1q19 49 80 167l202 403h59l37 -403q12 -147 12 -168h1q13 35 79 166l200 405h66zM416 768l20 91h62l-20 -91h-62zM603 768l20 91h62l-20 -91h-62z" />
    <glyph glyph-name="wdieresis" unicode="&#x1e85;" horiz-adv-x="688" 
d="M410 476l28 -288q2 -23 5.5 -62t3.5 -42h1q15 33 54 109l148 283h60l-253 -476h-56l-27 306q-2 23 -3.5 53.5t-1.5 33.5h-1l-44 -88l-156 -305h-53l-59 476h59l33 -286q6 -42 11 -105h1q37 78 52 106l147 285h51zM282 566l20 91h62l-20 -91h-62zM469 566l20 91h62
l-20 -91h-62z" />
    <glyph glyph-name="Ygrave" unicode="&#x1ef2;" horiz-adv-x="568" 
d="M413 753h-56l-142 136h96zM250 0h-63l60 280l-161 400h67l138 -338l283 338h76l-340 -400z" />
    <glyph glyph-name="ygrave" unicode="&#x1ef3;" horiz-adv-x="445" 
d="M120 476l44 -317l12 -83h1q17 32 50 86l187 314h63l-327 -540q-41 -69 -59 -91q-38 -47 -96 -47q-34 0 -61 18l11 56q26 -21 55 -21t47 21q14 16 38 56l43 74l-69 474h61zM119 680h94l94 -128h-56z" />
    <glyph glyph-name="enspace" unicode="&#x2002;" horiz-adv-x="500" 
 />
    <glyph glyph-name="emspace" unicode="&#x2003;" horiz-adv-x="1000" 
 />
    <glyph glyph-name="threeperemspace" unicode="&#x2004;" horiz-adv-x="333" 
 />
    <glyph glyph-name="fourperemspace" unicode="&#x2005;" horiz-adv-x="250" 
 />
    <glyph glyph-name="thinspace" unicode="&#x2009;" horiz-adv-x="133" 
 />
    <glyph glyph-name="hairspace" unicode="&#x200a;" horiz-adv-x="75" 
 />
    <glyph glyph-name="endash" unicode="&#x2013;" horiz-adv-x="640" 
d="M576 298l-11 -56h-508l11 56h508z" />
    <glyph glyph-name="emdash" unicode="&#x2014;" horiz-adv-x="831" 
d="M767 298l-11 -56h-699l11 56h699z" />
    <glyph glyph-name="quoteleft" unicode="&#x2018;" horiz-adv-x="194" 
d="M227 690l-7 -35q-32 -8 -44.5 -27t-21.5 -58l-5 -21h42l-25 -114h-78l34 152q11 49 34.5 72t70.5 31z" />
    <glyph glyph-name="quoteright" unicode="&#x2019;" horiz-adv-x="193" 
d="M85 425l7 35q32 8 44.5 27t21.5 58l5 21h-42l25 114h78l-34 -152q-11 -49 -34.5 -72t-70.5 -31z" />
    <glyph glyph-name="quotesinglbase" unicode="&#x201a;" horiz-adv-x="199" 
d="M-35 -141l7 35q32 8 44.5 27t21.5 58l5 21h-42l25 114h78l-34 -152q-11 -49 -34.5 -72t-70.5 -31z" />
    <glyph glyph-name="quotedblleft" unicode="&#x201c;" horiz-adv-x="326" 
d="M227 690l-7 -35q-32 -8 -44.5 -27t-21.5 -58l-5 -21h42l-25 -114h-78l34 152q11 49 34.5 72t70.5 31zM359 690l-7 -35q-32 -8 -44.5 -27t-21.5 -58l-5 -21h42l-25 -114h-78l34 152q11 49 34.5 72t70.5 31z" />
    <glyph glyph-name="quotedblright" unicode="&#x201d;" horiz-adv-x="325" 
d="M217 425l7 35q32 8 44.5 27t21.5 58l5 21h-42l25 114h78l-34 -152q-11 -49 -34.5 -72t-70.5 -31zM85 425l7 35q32 8 44.5 27t21.5 58l5 21h-42l25 114h78l-34 -152q-11 -49 -34.5 -72t-70.5 -31z" />
    <glyph glyph-name="quotedblbase" unicode="&#x201e;" horiz-adv-x="331" 
d="M97 -141l7 35q32 8 44.5 27t21.5 58l5 21h-42l25 114h78l-34 -152q-11 -49 -34.5 -72t-70.5 -31zM-35 -141l7 35q32 8 44.5 27t21.5 58l5 21h-42l25 114h78l-34 -152q-11 -49 -34.5 -72t-70.5 -31z" />
    <glyph glyph-name="dagger" unicode="&#x2020;" horiz-adv-x="444" 
d="M450 452h-162l-96 -452h-61l96 452h-161l12 57h161l37 171h61l-37 -171h162z" />
    <glyph glyph-name="daggerdbl" unicode="&#x2021;" horiz-adv-x="481" 
d="M259 229h162l-12 -57h-162l-37 -172h-61l37 172h-161l12 57h161l47 222h-161l12 57h161l37 172h61l-37 -172h162l-12 -57h-162z" />
    <glyph glyph-name="bullet" unicode="&#x2022;" horiz-adv-x="377" 
d="M82 343q0 49 34 83t83 34t83 -34t34 -83t-34 -83t-83 -34t-83 34t-34 83z" />
    <glyph glyph-name="ellipsis" unicode="&#x2026;" horiz-adv-x="869" 
d="M26 114h78l-25 -114h-78zM361 114h78l-25 -114h-78zM696 114h78l-25 -114h-78z" />
    <glyph glyph-name="perthousand" unicode="&#x2030;" horiz-adv-x="1346" 
d="M769 424q23 0 44 -7t42 -23.5t33.5 -48.5t12.5 -77q0 -67 -21.5 -130t-67 -106.5t-103.5 -43.5q-66 0 -100.5 43.5t-34.5 118.5q0 106 54 190t141 84zM626 155q0 -62 24 -91t62 -29q60 0 98.5 69.5t39.5 154.5q0 55 -21.5 86t-62.5 31q-66 0 -103 -69.5t-37 -151.5z
M274 0h-55l454 680h55zM264 692q23 0 44 -7t42 -23.5t33.5 -48.5t12.5 -77q0 -67 -21.5 -130t-67 -106.5t-103.5 -43.5q-66 0 -100.5 43.5t-34.5 118.5q0 106 54 190t141 84zM121 423q0 -62 24 -91t62 -29q60 0 98.5 69.5t39.5 154.5q0 55 -21.5 86t-62.5 31
q-66 0 -103 -69.5t-37 -151.5zM1170 424q23 0 44 -7t42 -23.5t33.5 -48.5t12.5 -77q0 -67 -21.5 -130t-67 -106.5t-103.5 -43.5q-66 0 -100.5 43.5t-34.5 118.5q0 106 54 190t141 84zM1027 155q0 -62 24 -91t62 -29q60 0 98.5 69.5t39.5 154.5q0 55 -21.5 86t-62.5 31
q-66 0 -103 -69.5t-37 -151.5z" />
    <glyph glyph-name="guilsinglleft" unicode="&#x2039;" horiz-adv-x="241" 
d="M47 276l16 73l163 137l-18 -83l-120 -93l79 -99l-16 -75z" />
    <glyph glyph-name="guilsinglright" unicode="&#x203a;" horiz-adv-x="241" 
d="M206 346l-16 -73l-163 -137l18 84l120 95l-79 96l16 75z" />
    <glyph glyph-name="fraction" unicode="&#x2044;" horiz-adv-x="418" 
d="M438 680h63l-496 -680h-64z" />
    <glyph glyph-name="Euro" unicode="&#x20ac;" horiz-adv-x="623" 
d="M56 300h56q3 41 12 79h-71l30 53h54q36 115 108.5 187t173.5 73q31 0 60.5 -9t59 -28.5t51.5 -57.5t31 -90l-58 -28q-10 74 -47.5 116t-101.5 42q-76 0 -131 -57t-85 -148h268l-31 -53h-251q-11 -48 -13 -79h225l-31 -53h-196q2 -106 44.5 -154.5t110.5 -48.5
q115 0 187 142l47 -32q-40 -76 -101 -120.5t-138 -44.5q-104 0 -156.5 68.5t-52.5 189.5h-85z" />
    <glyph glyph-name="trademark" unicode="&#x2122;" horiz-adv-x="957" 
d="M830 584l-111 -342h-43l-115 330q-9 24 -17 60q1 -16 1 -68v-322h-50v438h77l110 -318l17 -53q1 4 5.5 21.5t9.5 31.5l103 318h79v-438h-50v322q0 57 1 76zM131 633v47h326v-47h-138v-390h-50v390h-138z" />
    <glyph glyph-name="Omega" unicode="&#x2126;" horiz-adv-x="809" 
d="M399 690q151 0 234.5 -88.5t83.5 -229.5q0 -103 -45 -184.5t-128 -131.5h179v-56h-248v61q174 101 174 310q0 117 -67 190t-184 73q-115 0 -182 -73t-67 -190q0 -208 174 -310v-61h-247v56h179q-173 109 -173 316q0 140 83.5 229t233.5 89z" />
    <glyph glyph-name="arrowleft" unicode="&#x2190;" horiz-adv-x="812" 
d="M277 476h75l-216 -213h626v-50h-625l215 -213h-75l-237 238z" />
    <glyph glyph-name="arrowup" unicode="&#x2191;" horiz-adv-x="576" 
d="M50 415v70l238 237l238 -237v-70l-209 208v-623h-58v625z" />
    <glyph glyph-name="arrowright" unicode="&#x2192;" horiz-adv-x="812" 
d="M460 476h75l237 -238l-237 -238h-75l215 213h-625v50h626z" />
    <glyph glyph-name="arrowdown" unicode="&#x2193;" horiz-adv-x="576" 
d="M50 227v70l209 -210v625h58v-623l209 208v-70l-238 -237z" />
    <glyph glyph-name="uni2196" unicode="&#x2196;" horiz-adv-x="633" 
d="M613 29l-39 -39l-444 444l1 -298l-54 49l1 336h336l49 -49l-295 2z" />
    <glyph glyph-name="uni2197" unicode="&#x2197;" horiz-adv-x="633" 
d="M170 472l49 49h336l1 -336l-54 -49l1 298l-444 -444l-39 39l445 445z" />
    <glyph glyph-name="uni2198" unicode="&#x2198;" horiz-adv-x="633" 
d="M219 0l-49 49l295 -2l-445 445l39 39l444 -444l-1 298l54 -49l-1 -336h-336z" />
    <glyph glyph-name="uni2199" unicode="&#x2199;" horiz-adv-x="633" 
d="M574 531l39 -39l-445 -445l295 2l-49 -49h-336l-1 336l54 49l-1 -298z" />
    <glyph glyph-name="uni21A4" unicode="&#x21a4;" horiz-adv-x="839" 
d="M277 476h75l-216 -213h567v213h59v-476h-59v213h-566l215 -213h-75l-237 238z" />
    <glyph glyph-name="uni21A5" unicode="&#x21a5;" horiz-adv-x="596" 
d="M60 415v70l238 237l238 -237v-70l-209 208v-573h209v-50h-476v50h209v575z" />
    <glyph glyph-name="uni21A6" unicode="&#x21a6;" horiz-adv-x="839" 
d="M487 476h75l237 -238l-237 -238h-75l215 213h-566v-213h-59v476h59v-213h567z" />
    <glyph glyph-name="uni21A7" unicode="&#x21a7;" horiz-adv-x="596" 
d="M60 227v70l209 -210v575h-209v50h476v-50h-209v-573l209 208v-70l-238 -237z" />
    <glyph glyph-name="uni21B0" unicode="&#x21b0;" horiz-adv-x="839" 
d="M762 263v-263h-59v213h-568l217 -213h-75l-237 238l237 238h75l-215 -213h625z" />
    <glyph glyph-name="uni21B1" unicode="&#x21b1;" horiz-adv-x="839" 
d="M77 0v263h625l-215 213h75l237 -238l-237 -238h-75l217 213h-568v-213h-59z" />
    <glyph glyph-name="uni21B2" unicode="&#x21b2;" horiz-adv-x="839" 
d="M762 476v-263h-625l215 -213h-75l-237 238l237 238h75l-217 -213h568v213h59z" />
    <glyph glyph-name="uni21B3" unicode="&#x21b3;" horiz-adv-x="839" 
d="M77 213v263h59v-213h568l-217 213h75l237 -238l-237 -238h-75l215 213h-625z" />
    <glyph glyph-name="uni21B4" unicode="&#x21b4;" horiz-adv-x="596" 
d="M60 227v70l209 -210v575h-209v50h267v-623l209 208v-70l-238 -237z" />
    <glyph glyph-name="carriagereturn" unicode="&#x21b5;" horiz-adv-x="839" 
d="M762 476v-263h-625l215 -213h-75l-237 238l237 238h75l-217 -213h568v213h59z" />
    <glyph glyph-name="partialdiff" unicode="&#x2202;" horiz-adv-x="494" 
d="M226 615l-12 54q41 23 93 23q79 0 119.5 -54t40.5 -157q0 -90 -30.5 -210t-86.5 -191q-71 -92 -174 -92q-79 0 -119.5 48t-40.5 121q0 121 73.5 205.5t166.5 84.5q52 0 88 -27t47 -68h1q14 76 14 133q0 155 -105 155q-44 0 -75 -25zM374 285q-4 42 -37.5 75.5t-81.5 33.5
q-69 0 -122 -68.5t-53 -163.5q0 -57 26.5 -89t72.5 -32q51 0 94 41.5t66.5 94t34.5 108.5z" />
    <glyph glyph-name="Delta" unicode="&#x2206;" horiz-adv-x="661" 
d="M-7 0l265 679h59l265 -679h-589zM287 610l-215 -560h432z" />
    <glyph glyph-name="product" unicode="&#x220f;" horiz-adv-x="924" 
d="M105 680h785v-56h-107v-814h-63v814h-445v-814h-63v814h-107v56z" />
    <glyph glyph-name="summation" unicode="&#x2211;" horiz-adv-x="761" 
d="M108 -142l247 382l-249 388v52h530v-56h-451l240 -381l-242 -377h453v-56h-528v48z" />
    <glyph glyph-name="minus" unicode="&#x2212;" horiz-adv-x="838" 
d="M754 319v-57h-673v57h673z" />
    <glyph glyph-name="uni2219" unicode="&#x2219;" horiz-adv-x="206" 
d="M84 377h78l-25 -114h-78z" />
    <glyph glyph-name="radical" unicode="&#x221a;" horiz-adv-x="523" 
d="M485 680h56l-182 -683h-64l-147 439h-93v40h149l96 -301q23 -70 28 -85h1q7 29 22 84z" />
    <glyph glyph-name="infinity" unicode="&#x221e;" horiz-adv-x="927" 
d="M887 349q0 -68 -42.5 -115t-121.5 -47q-46 0 -98 24t-79 44.5t-77 61.5q-5 -4 -35.5 -27.5t-41.5 -31.5t-39 -26.5t-45.5 -25.5t-42.5 -14t-48 -7q-79 0 -117 45.5t-38 112.5q0 72 42 116t118 44q39 0 83 -19t75 -40t94 -69q13 9 45 33t50.5 36.5t47 28.5t56 23t56.5 7
q77 0 117.5 -44t40.5 -110zM829 345q0 52 -29 80t-78 28q-17 0 -36.5 -6t-34 -12t-38.5 -20.5t-33 -21t-35.5 -25.5t-30.5 -22q4 -3 29.5 -21.5t35.5 -25.5t34.5 -22t39.5 -21.5t36 -12.5t39 -6q48 0 74.5 30t26.5 78zM223 237q21 0 43 6.5t48 21.5t39.5 23.5t43.5 30.5
t34 25q-2 1 -36 25t-46.5 32t-40 24t-48 22t-39.5 6q-48 0 -75.5 -30t-27.5 -77q0 -51 28 -80t77 -29z" />
    <glyph glyph-name="uni2224" unicode="&#x2224;" horiz-adv-x="246" 
d="M104 377h78l-25 -114h-78z" />
    <glyph glyph-name="logicaland" unicode="&#x2227;" horiz-adv-x="206" 
d="M84 377h78l-25 -114h-78z" />
    <glyph glyph-name="integral" unicode="&#x222b;" horiz-adv-x="344" 
d="M72 -57l128 631q13 63 42.5 90.5t81.5 27.5q41 0 95 -16l-16 -52q-53 11 -72 11q-30 0 -48 -18q-16 -18 -25 -64l-130 -633q-12 -63 -44 -93q-30 -29 -85 -29q-44 0 -92 12l21 52q39 -9 66 -9q32 0 47 14q19 16 31 76z" />
    <glyph glyph-name="approxequal" unicode="&#x2248;" horiz-adv-x="584" 
d="M492 437l29 -48q-62 -77 -126 -77q-37 0 -98 30l-41 20q-42 19 -72 19q-27 0 -43 -12.5t-48 -50.5l-31 46q52 81 122 81q36 0 98 -28l47 -22q46 -21 66 -21q46 0 97 63zM492 250l29 -48q-62 -77 -126 -77q-37 0 -98 30l-41 20q-42 19 -72 19q-27 0 -43 -12.5t-48 -50.5
l-31 46q52 81 122 81q36 0 98 -28l47 -22q46 -21 66 -21q46 0 97 63z" />
    <glyph glyph-name="notequal" unicode="&#x2260;" horiz-adv-x="800" 
d="M734 406v-57h-297l-62 -118h359v-56h-388l-92 -175h-63l92 175h-222v56h252l62 118h-314v57h344l100 189h62l-100 -189h267z" />
    <glyph glyph-name="lessequal" unicode="&#x2264;" horiz-adv-x="793" 
d="M706 56v-56h-643v56h643zM706 154v-63l-643 262v66l643 266v-63l-579 -235z" />
    <glyph glyph-name="greaterequal" unicode="&#x2265;" horiz-adv-x="841" 
d="M110 0v56h643v-56h-643zM110 91v63l579 233l-579 235v63l643 -266v-66z" />
    <glyph glyph-name="dotmath" unicode="&#x22c5;" horiz-adv-x="206" 
d="M84 377h78l-25 -114h-78z" />
    <glyph glyph-name="lozenge" unicode="&#x25ca;" horiz-adv-x="518" 
d="M270 65l157 272l-157 276l-156 -276zM245 681h51l201 -344l-201 -340h-51l-201 340z" />
    <glyph glyph-name="uni2B0F" unicode="&#x2b0f;" horiz-adv-x="596" 
d="M60 415v70l238 237l238 -237v-70l-209 208v-623h-267v50h209v575z" />
    <glyph glyph-name="uni2B10" unicode="&#x2b10;" horiz-adv-x="596" 
d="M536 297v-70l-238 -237l-238 237v70l209 -208v623h267v-50h-209v-575z" />
    <glyph glyph-name="uni2B11" unicode="&#x2b11;" horiz-adv-x="596" 
d="M536 0h-267v623l-209 -208v70l238 237l238 -237v-70l-209 210v-575h209v-50z" />
    <glyph glyph-name="commaaccent" unicode="&#xf6c3;" horiz-adv-x="154" 
d="M75 -278l7 35q33 9 45 25.5t21 58.5h-42l21 94h77l-24 -110q-11 -49 -34.5 -72t-70.5 -31z" />
    <glyph glyph-name="uniF8FF" unicode="&#xf8ff;" horiz-adv-x="823" 
d="M40 361q0 154 108.5 263t262.5 109t263 -109t109 -263t-109 -262.5t-263 -108.5t-262.5 108.5t-108.5 262.5z" />
    <glyph glyph-name="arrowleft.salt" horiz-adv-x="940" 
d="M890 368v-56h-748l317 -312h-81l-340 340l340 340h81l-317 -312h748z" />
    <glyph glyph-name="arrowup.salt" horiz-adv-x="840" 
d="M80 347v79l340 340l340 -340v-79l-309 313v-746h-62v746z" />
    <glyph glyph-name="arrowright.salt" horiz-adv-x="940" 
d="M50 312v56h748l-317 312h81l340 -340l-340 -340h-81l317 312h-748z" />
    <glyph glyph-name="arrowdown.salt" horiz-adv-x="840" 
d="M80 244v79l309 -313v746h62v-746l309 313v-79l-340 -340z" />
    <glyph glyph-name="uni2196.salt" horiz-adv-x="747" 
d="M715 70l-40 -40l-538 535l3 -441l-58 55v481h482l55 -53l-446 3z" />
    <glyph glyph-name="uni2197.salt" horiz-adv-x="747" 
d="M128 597l55 53h482v-481l-58 -55l2 441l-537 -535l-40 40l541 540z" />
    <glyph glyph-name="uni2198.salt" horiz-adv-x="747" 
d="M183 30l-55 53l445 -3l-541 540l40 40l537 -535l-2 441l58 -55v-481h-482z" />
    <glyph glyph-name="uni2199.salt" horiz-adv-x="747" 
d="M675 660l40 -40l-542 -540l446 3l-55 -53h-482v481l58 55l-3 -441z" />
    <glyph glyph-name="uni21A4.salt" horiz-adv-x="972" 
d="M890 0h-62v312h-686l317 -312h-81l-340 340l340 340h81l-317 -312h686v312h62v-680z" />
    <glyph glyph-name="uni21A5.salt" horiz-adv-x="840" 
d="M80 347v79l340 340l340 -340v-79l-309 313v-691h309v-55h-680v55h309v691z" />
    <glyph glyph-name="uni21A6.salt" horiz-adv-x="972" 
d="M144 0h-62v680h62v-312h686l-317 312h81l340 -340l-340 -340h-81l317 312h-686v-312z" />
    <glyph glyph-name="uni21A7.salt" horiz-adv-x="840" 
d="M80 244v79l309 -313v691h-309v55h680v-55h-309v-691l309 313v-79l-340 -340z" />
    <glyph glyph-name="uni21B0.salt" horiz-adv-x="972" 
d="M459 0h-81l-340 340l340 340h81l-316 -312h747v-368h-62v312h-685z" />
    <glyph glyph-name="uni21B1.salt" horiz-adv-x="972" 
d="M594 0h-81l316 312h-685v-312h-62v368h747l-316 312h81l340 -340z" />
    <glyph glyph-name="uni21B2.salt" horiz-adv-x="972" 
d="M378 680h81l-317 -312h686v312h62v-368h-748l317 -312h-81l-340 340z" />
    <glyph glyph-name="uni21B3.salt" horiz-adv-x="972" 
d="M513 680h81l340 -340l-340 -340h-81l316 312h-747v368h62v-312h685z" />
    <glyph glyph-name="uni21B4.salt" horiz-adv-x="840" 
d="M80 244v79l309 -313v691h-309v55h371v-746l309 313v-79l-340 -340z" />
    <glyph glyph-name="carriagereturn.salt" horiz-adv-x="972" 
d="M378 680h81l-317 -312h686v312h62v-368h-748l317 -312h-81l-340 340z" />
    <glyph glyph-name="uni2B0F.salt" horiz-adv-x="840" 
d="M80 347v79l340 340l340 -340v-79l-309 313v-746h-371v55h309v691z" />
    <glyph glyph-name="uni2B11.salt" horiz-adv-x="840" 
d="M760 426v-79l-309 313v-691h309v-55h-371v746l-309 -313v79l340 340z" />
    <glyph glyph-name="uni2B10.salt" horiz-adv-x="840" 
d="M760 323v-79l-340 -340l-340 340v79l309 -313v746h371v-55h-309v-691z" />
    <glyph glyph-name="caron.alt" horiz-adv-x="469" 
d="M317 552h-48l49 128h82z" />
    <glyph glyph-name="commaturn" horiz-adv-x="154" 
d="M204 799l-7 -35q-33 -9 -45 -25.5t-21 -58.5h42l-21 -94h-77l24 110q11 49 34.5 72t70.5 31z" />
    <glyph glyph-name="zero.tlfslash" horiz-adv-x="590" 
d="M359 692q35 0 68.5 -12t66 -38t52.5 -78.5t20 -123.5q0 -110 -34 -211t-106.5 -171t-167.5 -70q-103 0 -156 69t-53 189q0 110 35 210t107.5 168t167.5 68zM124 148l338 436q-40 53 -108 53q-59 0 -107.5 -37t-77 -95t-44 -123.5t-15.5 -129.5q0 -60 14 -104zM488 534
l-339 -436q39 -55 114 -55q71 0 127.5 59.5t84.5 146.5t29 180q0 57 -16 105z" />
    <glyph glyph-name="zero.plfslash" horiz-adv-x="604" 
d="M366 692q35 0 68.5 -12t66 -38t52.5 -78.5t20 -123.5q0 -110 -34 -211t-106.5 -171t-167.5 -70q-103 0 -156 69t-53 189q0 110 35 210t107.5 168t167.5 68zM131 148l338 436q-40 53 -108 53q-59 0 -107.5 -37t-77 -95t-44 -123.5t-15.5 -129.5q0 -60 14 -104zM495 534
l-339 -436q39 -55 114 -55q71 0 127.5 59.5t84.5 146.5t29 180q0 57 -16 105z" />
    <glyph glyph-name="zero.plf" horiz-adv-x="604" 
d="M366 692q35 0 68.5 -12t66 -38t52.5 -78.5t20 -123.5q0 -110 -34 -211t-106.5 -171t-167.5 -70q-103 0 -156 69t-53 189q0 110 35 210t107.5 168t167.5 68zM117 252q1 -109 43 -159t110 -50q71 0 127.5 59.5t84.5 146.5t29 180q0 95 -38.5 151.5t-111.5 56.5
q-59 0 -107.5 -37t-77 -95t-44 -123.5t-15.5 -129.5z" />
    <glyph glyph-name="one.plf" horiz-adv-x="340" 
d="M196 0h-62l111 516q-58 -34 -151 -34q-22 0 -34 1l11 52h16q76 0 122 29q57 36 77 116h55z" />
    <glyph glyph-name="two.plf" horiz-adv-x="548" 
d="M161 401l-65 15q-6 27 -6 55q0 93 63.5 157t168.5 64q97 0 154 -53t57 -136q0 -34 -9 -66t-20 -56.5t-35.5 -53t-40.5 -45.5t-50 -43.5t-50 -38t-54 -38.5q-89 -62 -180 -110v-1q65 4 139 4h230l-11 -55h-456l9 52q139 80 275 181q43 32 69.5 55t57 57.5t45.5 72t15 80.5
q0 64 -39.5 101.5t-109.5 37.5q-82 0 -124 -48.5t-42 -121.5q0 -33 9 -66z" />
    <glyph glyph-name="three.plf" horiz-adv-x="558" 
d="M151 495l-56 18q4 67 64 123t159 56q98 0 150.5 -48.5t52.5 -116.5q0 -64 -44 -112.5t-121 -56.5v-1q63 -14 98.5 -59.5t35.5 -104.5q0 -82 -63.5 -143.5t-176.5 -61.5q-105 0 -163.5 50t-66.5 139l60 21q6 -70 48 -112.5t120 -42.5q76 0 127 38.5t51 114.5q0 90 -89 123
q-44 16 -117 16h-55l11 51h73q92 0 136 22q71 35 71 114q0 51 -38.5 83t-102.5 32q-75 0 -116.5 -41.5t-47.5 -100.5z" />
    <glyph glyph-name="four.plf" horiz-adv-x="551" 
d="M383 182l-39 -182h-60l40 182h-327l9 42l430 460h55l-96 -448h124l-11 -54h-125zM87 236h249l47 225q5 24 11.5 51t13.5 54t9 35h-1q-42 -59 -113 -136z" />
    <glyph glyph-name="five.plf" horiz-adv-x="547" 
d="M27 152l58 25q10 -59 53.5 -97.5t108.5 -38.5q77 0 131.5 55.5t54.5 154.5q0 76 -42 115.5t-105 39.5q-57 0 -104 -33t-63 -95l-59 19l96 383h369l-13 -55h-313l-36 -140l-28 -102l2 -1q25 38 70 58.5t94 20.5q83 0 140 -54t57 -152q0 -124 -74.5 -195.5t-175.5 -71.5
q-83 0 -142.5 42t-78.5 122z" />
    <glyph glyph-name="six.plf" horiz-adv-x="572" 
d="M561 537l-53 -34q-8 55 -47 94t-100 39q-56 0 -106.5 -35.5t-82.5 -105.5q-25 -51 -42 -125h1q66 82 181 82q99 0 152 -60.5t53 -147.5q0 -101 -67 -178.5t-180 -77.5q-98 0 -155.5 65t-57.5 185q0 191 84 322.5t223 131.5q77 0 129 -42.5t68 -112.5zM119 294
q-2 -32 -2 -48q0 -94 41 -148t117 -54q82 0 130.5 59t48.5 137q0 66 -40.5 112t-116.5 46q-56 0 -104 -29.5t-74 -74.5z" />
    <glyph glyph-name="seven.plf" horiz-adv-x="499" 
d="M571 680l-11 -48q-278 -311 -370 -632h-66q71 255 290 535q48 60 75 90v1q-22 -1 -109 -1h-218l-32 -153h-59l44 208h456z" />
    <glyph glyph-name="eight.plf" horiz-adv-x="581" 
d="M215 372q-100 33 -100 141q0 73 61.5 126t160.5 53q97 0 153.5 -43.5t56.5 -116.5q0 -68 -41 -113.5t-115 -59.5q121 -41 121 -166q0 -91 -66 -148t-185 -57q-110 0 -169.5 50t-59.5 134q0 75 47 129t136 71zM95 183q0 -64 44.5 -102t122.5 -38q86 0 136 40.5t50 112.5
q0 65 -45.5 103t-123.5 38q-89 0 -136.5 -45t-47.5 -109zM177 512q0 -53 36.5 -86.5t108.5 -33.5q77 0 118.5 36.5t41.5 97.5q0 50 -39 81.5t-106 31.5q-76 -1 -118 -37.5t-42 -89.5z" />
    <glyph glyph-name="nine.plf" horiz-adv-x="570" 
d="M34 143l53 34q8 -55 46.5 -93.5t100.5 -38.5q56 0 106.5 35t82.5 105q25 51 42 125h-1q-66 -82 -181 -82q-99 0 -152 60.5t-53 147.5q0 101 67 178.5t180 77.5q98 0 155.5 -65t57.5 -185q0 -191 -84 -322.5t-223 -131.5q-77 0 -129 42.5t-68 112.5zM476 387q2 32 2 48
q0 94 -41 148t-117 54q-82 0 -130.5 -59t-48.5 -137q0 -66 40.5 -112t116.5 -46q56 0 104 29.5t74 74.5z" />
    <glyph glyph-name="at.case" horiz-adv-x="800" 
d="M501 283l18 84q-9 -6 -68 -17l-43 -8q-59 -10 -91.5 -29t-32.5 -62q0 -72 85 -72q47 0 84 26t48 78zM563 183q67 0 114.5 77t47.5 173q0 105 -63 179t-189 74q-84 0 -154 -35.5t-115 -93t-69.5 -127t-24.5 -140.5q0 -122 72.5 -205.5t210.5 -83.5q82 0 162 35.5t136 99.5
l10 -50q-58 -63 -140.5 -97.5t-168.5 -34.5q-83 0 -149 27t-106 73.5t-61 105t-21 125.5q0 63 18 126.5t54 121t85.5 102t118.5 71t147 26.5q147 0 223 -86t76 -207q0 -116 -63.5 -208t-156.5 -92q-68 0 -68 47q0 8 1 13l-1 1q-38 -65 -133 -65q-55 0 -89 29.5t-34 81.5
q0 62 42.5 92t128.5 45l96 17q17 3 24 9t9 19q5 20 5 33q0 66 -93 66q-56 0 -85.5 -26t-35.5 -69l-47 11q8 65 57 96t117 31q135 0 135 -103q0 -24 -6 -48l-40 -186q-3 -18 -3 -26q0 -24 26 -24z" />
    <glyph glyph-name="bar.case" horiz-adv-x="258" 
d="M171 760v-838h-59v838h59z" />
    <glyph glyph-name="plus.case" horiz-adv-x="657" 
d="M369 309v-269h-57v269h-265v56h265v268h57v-268h264v-56h-264z" />
    <glyph glyph-name="minus.case" horiz-adv-x="831" 
d="M760 369v-57h-673v57h673z" />
    <glyph glyph-name="plusminus.case" horiz-adv-x="734" 
d="M388 373v-216h-57v216h-265v56h265v214h57v-214h264v-56h-264zM652 107v-57h-586v57h586z" />
    <glyph glyph-name="multiply.case" horiz-adv-x="692" 
d="M623 552l-228 -228l228 -228l-40 -40l-228 228l-228 -228l-40 40l228 228l-228 228l40 40l228 -228l228 228z" />
    <glyph glyph-name="divide.case" horiz-adv-x="798" 
d="M747 367v-57h-673v57h673zM371 576h78v-100h-78v100zM371 201h78v-101h-78v101z" />
    <glyph glyph-name="equal.case" horiz-adv-x="864" 
d="M775 271v-56h-673v56h673zM775 446v-57h-673v57h673z" />
    <glyph glyph-name="notequal.case" horiz-adv-x="793" 
d="M736 446v-57h-297l-62 -118h359v-56h-388l-92 -175h-63l92 175h-222v56h252l62 118h-314v57h344l100 189h62l-100 -189h267z" />
    <glyph glyph-name="approxequal.case" horiz-adv-x="584" 
d="M500 477l29 -48q-62 -77 -126 -77q-37 0 -98 30l-41 20q-42 19 -72 19q-27 0 -43 -12.5t-48 -50.5l-31 46q52 81 122 81q36 0 98 -28l47 -22q46 -21 66 -21q46 0 97 63zM500 290l29 -48q-62 -77 -126 -77q-37 0 -98 30l-41 20q-42 19 -72 19q-27 0 -43 -12.5t-48 -50.5
l-31 46q52 81 122 81q36 0 98 -28l47 -22q46 -21 66 -21q46 0 97 63z" />
    <glyph glyph-name="logicalnot.case" horiz-adv-x="536" 
d="M468 454v-233h-59v180h-337v53h396z" />
    <glyph glyph-name="parenleft.case" horiz-adv-x="244" 
d="M150 -80l-49 -4q-55 157 -55 300q0 291 224 546l52 -5q-111 -136 -164 -267.5t-53 -277.5q0 -135 45 -292z" />
    <glyph glyph-name="parenright.case" horiz-adv-x="243" 
d="M117 758l48 4q56 -160 56 -300q0 -291 -224 -546l-51 5q111 136 163.5 267.5t52.5 277.5q0 134 -45 292z" />
    <glyph glyph-name="hyphen.case" horiz-adv-x="409" 
d="M353 338l-13 -63h-277l13 63h277z" />
    <glyph glyph-name="bracketleft.case" horiz-adv-x="270" 
d="M176 -30l-11 -48h-167l178 838h168l-10 -48h-109l-158 -742h109z" />
    <glyph glyph-name="bracketright.case" horiz-adv-x="270" 
d="M119 712l11 48h167l-178 -838h-168l10 48h109l158 742h-109z" />
    <glyph glyph-name="braceleft.case" horiz-adv-x="270" 
d="M99 363q54 -26 54 -87q0 -24 -6 -54l-34 -161q-9 -41 -9 -55q0 -22 14.5 -31.5t50.5 -9.5h6l-9 -43q-5 0 -13 -0.5t-12 -0.5q-55 0 -77.5 17t-22.5 55q0 25 17 97l25 111q13 53 13 85q0 24 -11 38.5t-39 23.5l10 40q48 5 64 29.5t31 102.5l24 122q14 73 40.5 96.5
t83.5 23.5q26 0 41 -2l-9 -43h-26q-36 0 -49 -19t-26 -80l-23 -114q-14 -69 -34 -98.5t-74 -42.5z" />
    <glyph glyph-name="braceright.case" horiz-adv-x="269" 
d="M200 338q-54 26 -54 87q0 24 6 54l30 142q9 41 9 55q0 22 -14.5 31.5t-50.5 9.5h-6l9 43q14 1 25 1q55 0 77.5 -17t22.5 -55q0 -25 -17 -97l-21 -92q-13 -53 -13 -85q0 -24 11 -38.5t39 -23.5l-10 -40q-48 -5 -64 -29.5t-31 -102.5l-28 -142q-14 -73 -40.5 -96.5
t-83.5 -23.5q-26 0 -41 2l9 43h26q36 0 49 19t26 80l27 134q14 69 34 98.5t74 42.5z" />
    <glyph glyph-name="guillemotleft.case" horiz-adv-x="383" 
d="M47 306l16 73l163 137l-18 -83l-120 -93l79 -99l-16 -75zM194 306l16 73l163 137l-18 -83l-120 -93l79 -99l-16 -75z" />
    <glyph glyph-name="uni00AD.case" horiz-adv-x="410" 
d="M354 338l-13 -63h-277l13 63h277z" />
    <glyph glyph-name="guillemotright.case" horiz-adv-x="381" 
d="M359 376l-16 -73l-163 -137l18 84l120 95l-79 96l16 75zM212 376l-16 -73l-163 -137l18 84l120 95l-79 96l16 75z" />
    <glyph glyph-name="endash.case" horiz-adv-x="639" 
d="M584 338l-11 -56h-508l11 56h508z" />
    <glyph glyph-name="emdash.case" horiz-adv-x="830" 
d="M775 338l-11 -56h-699l11 56h699z" />
    <glyph glyph-name="guilsinglleft.case" horiz-adv-x="236" 
d="M47 306l16 73l163 137l-18 -83l-120 -93l79 -99l-16 -75z" />
    <glyph glyph-name="guilsinglright.case" horiz-adv-x="234" 
d="M212 376l-16 -73l-163 -137l18 84l120 95l-79 96l16 75z" />
    <glyph glyph-name="brokenbar.case" horiz-adv-x="270" 
d="M177 760v-323h-59v323h59zM177 245v-323h-59v323h59z" />
    <glyph glyph-name="idotaccent" horiz-adv-x="197" 
d="M169 476l-101 -476h-59l101 476h59zM212 680l-20 -98h-59l20 98h59z" />
    </font>
</defs>
</svg>
